<?xml version="1.0" standalone="no"?>
<!DOCTYPE svg PUBLIC "-//W3C//DTD SVG 1.1//EN" "http://www.w3.org/Graphics/SVG/1.1/DTD/svg11.dtd" >
<svg xmlns="http://www.w3.org/2000/svg" xmlns:xlink="http://www.w3.org/1999/xlink" version="1.1">
<metadata>
Created by FontForge 20161003 at Wed Feb  7 16:10:31 2018
 By www-data
Copyright (c) 2014 by Cindy Kinash &#38; Charles Gibbons for Cultivated Mind. All rights reserved.
</metadata>
<defs>
<font id="SVNCiaoBella" horiz-adv-x="266" >
  <font-face 
    font-family="SVNCiaoBella"
    font-weight="400"
    font-stretch="normal"
    units-per-em="1000"
    panose-1="0 0 0 0 0 0 0 0 0 0"
    ascent="685"
    descent="-315"
    x-height="333"
    cap-height="671"
    bbox="-170 -420.2 889 933"
    underline-thickness="50"
    underline-position="-150"
    unicode-range="U+0020-FB02"
  />
<missing-glyph horiz-adv-x="135" 
 />
    <glyph glyph-name="endash" unicode="&#x2d;&#x2d;" horiz-adv-x="500" 
d="M71 266l20 -2l18 1l21 -1l41 2l60 -2l19 2l117 -2h52q22 0 33 1q8 0 8 -9q0 -6 -5.5 -11t-13.5 -6l-21 -1l-101 2l-19 -2l-21 2h-61h-41l-38 -2l-82 1q-7 0 -7 5q0 7 6.5 14.5t14.5 7.5z" />
    <glyph glyph-name="emdash" unicode="&#x2d;&#x2d;&#x2d;&#x2d;" horiz-adv-x="750" 
d="M321 265h46h54h9.5h9h5.5h7q12 0 29 -2l19 2l117 -2h52q22 0 33 1q8 0 8 -9q0 -6 -5.5 -11t-13.5 -6l-21 1l-141 2l-87 -2l-22 -1h-31h-86l-126 2l-38 -2l-82 1q-7 0 -7 5q0 7 6.5 14.5t14.5 7.5l20 -2l18 1l62 -1h60l19 1h71z" />
    <glyph glyph-name="ellipsis" unicode="&#x2e;&#x2e;&#x2e;" horiz-adv-x="450" 
d="M43 62q12 -2 15.5 -6t6.5 -18q0 -14 -9 -23.5t-17 -12t-12 -2.5q-9 0 -18 6.5t-9 15.5q0 14 12 27t31 13zM172 0q-12 2 -15.5 6t-6.5 18q0 14 9 23.5t17 12t12 2.5q9 0 18 -6.5t9 -15.5q0 -14 -12 -27t-31 -13zM336 62q29 0 29 -19q0 -16 -9 -26.5t-17 -13.5t-12 -3
q-27 0 -27 22q0 15 9 27.5t27 12.5z" />
    <glyph glyph-name="ff" unicode="ff" horiz-adv-x="466" 
d="M215 -83q5 27 14 78t15 80q2 11 5.5 24.5t3.5 16.5q3 7 3 22v2q-10 -16 -32 -44q-21 -26 -50 -44l-3 -2q8 -34 8 -83q0 -64 -10 -103q-10 -42 -11 -46q-1 -1 -6 -16.5t-7 -20.5l-6 -13l-6 -12q-1 -5 -5 -10q-5 -11 -12 -20q-8 -11 -21 -18q-24 -22 -67 -9q-21 12 -26 17
q-32 42 -32 93q0 19 5 59q1 20 7 49q5 27 14 78t15 80q2 11 5.5 24.5t3.5 16.5q3 7 3 22l4 13q2 6 3.5 14.5t2.5 14.5q1 5 3 18.5t3 19.5l2 16l1 8q1 7 3 11q2 6 4 9q0 11 6 29q-1 14 5 37q2 6 6 30.5t7 32.5q1 3 9 32q5 17 10 28q0 11 6 21q2 4 2.5 8.5t2.5 8.5q8 13 9 20
q2 3 6.5 14.5t7.5 16.5l19 43q9 11 19 32q13 22 16 24q13 17 19 22q6 3 14.5 9t14.5 9q1 0 15 4q20 6 37 0q15 -7 18 -10q6 -7 11 -20q4 -16 3 -33q0 -8 -8 -51q-5 -24 -24.5 -71t-21.5 -52q-7 -18 -26 -59l-20 -39l-36 -64q-5 -10 -36 -51q-11 -15 -17 -22q-2 -2 -7 -9.5
t-7 -9.5l-2 -14l-11 -37l-5 -24l-9 -35l-5 -25l-7 -28l-3 -26l-12 -65q-3 -10 -3 -14t-2 -14q-2 -9 -5 -32q-3 -17 -3 -52q0 -23 2 -35t5 -19t4 -10q3 -10 17 -15q14 -6 25 -1q2 1 7 3t7 4q1 1 5.5 4t5.5 5q10 13 20 34q9 19 19 67q10 56 10 93q0 53 -12 89q-7 -3 -17 -3
q-36 0 -33 35q2 26 20 30q17 2 23 -8q13 -16 15 -28l3 -12q22 12 33 23q1 1 7.5 8.5t8.5 10.5q14 16 18 25l27 39l2 3q0 2 2 12q0 5 3 19t3 19l2 16l1 8q1 7 3 11q2 6 4 9q0 11 6 29q-1 14 5 37q2 6 6 30.5t7 32.5q1 3 9 32q5 17 10 28q0 11 6 21q1 4 2 8.5t3 8.5q8 13 9 20
q2 3 6.5 14.5t7.5 16.5l19 43q9 11 19 32q13 22 16 24q13 17 19 22q6 3 14.5 9t14.5 9q1 0 15 4q20 6 37 0q15 -7 18 -10q7 -7 11 -20q4 -16 3 -33q0 -8 -8 -51q-5 -24 -24.5 -71t-21.5 -52q-7 -18 -26 -59l-20 -39l-36 -64q-5 -10 -36 -51q-11 -15 -17 -22q-2 -2 -7 -9.5
t-7 -9.5l-2 -14l-11 -37l-5 -24l-9 -35l-5 -25l-7 -28l-3 -26l-12 -65q-2 -10 -2 -14t-3 -14q-2 -9 -5 -32q-3 -17 -3 -52q0 -23 2 -35t5 -19t4 -10q3 -10 17 -15q14 -6 25 -1q2 1 7 3t7 4q1 1 5.5 4t5.5 5q10 13 20 34q9 19 19 67q10 56 10 93q0 53 -12 89q-7 -3 -17 -3
q-36 0 -33 35q2 26 20 30q17 2 23 -8q13 -16 15 -28l3 -12q22 12 33 23q1 1 7.5 8.5t8.5 10.5q14 16 18 25q3 4 9 12.5t10.5 15t7.5 11.5l13 21l5 -6q-28 -50 -56 -84q-21 -26 -50 -44l-3 -2q8 -34 8 -83q0 -64 -10 -103q-10 -42 -11 -46q-1 -1 -6 -16.5t-7 -20.5l-6 -13
l-6 -12q-1 -5 -5 -10q-5 -11 -12 -20q-8 -11 -21 -18q-24 -22 -67 -9q-21 12 -26 17q-32 42 -32 93q0 19 5 59q1 20 7 49zM350 232q0 -3 -1.5 -8.5t-2.5 -10.5l12 17q5 7 16 21t17 24q3 5 10.5 16.5t11.5 18.5q7 10 17 30t14 27q10 15 16 29q3 7 14.5 32.5t16.5 41.5
q34 91 38 117q7 37 3 51q-2 12 -13 12q-7 0 -18 -6q-3 -2 -24 -23q-18 -24 -28 -44q-1 -1 -14.5 -29t-18.5 -43q-1 -3 -2.5 -8.5t-3.5 -10t-4 -8.5q-8 -17 -9 -32q-1 -3 -3.5 -11t-4.5 -12q-4 -10 -6 -22q-1 -5 -5 -20t-6 -23l-2 -21l-3 -15t-4 -16q-1 -5 -3 -15.5t-2 -15.5
q0 -3 -4 -18t-4 -25zM117 232q0 -3 -1.5 -8.5t-2.5 -10.5l12 17q5 7 16 21t17 24q3 5 10.5 16.5t11.5 18.5q7 10 17 30t14 27q10 15 16 29q3 7 14.5 32.5t16.5 41.5q34 91 38 117q7 37 3 51q-1 12 -13 12q-8 0 -18 -6q-3 -2 -24 -23q-18 -24 -28 -44q-1 -1 -14.5 -29
t-18.5 -43q-1 -3 -2.5 -8.5t-3.5 -10t-4 -8.5q-8 -17 -9 -32q-1 -3 -3.5 -11t-4.5 -12q-4 -10 -6 -22q-1 -5 -5 -20t-6 -23l-2 -21l-3 -15t-4 -16q0 -5 -2 -15.5t-3 -15.5q0 -3 -4 -18t-4 -25zM375 52q9 0 12 1v2q-8 20 -15 26q-4 4 -11 4q-11 -2 -11 -16q0 -17 25 -17z
M142 52q9 0 12 1v2q-8 20 -15 26q-4 4 -11 4q-11 -2 -11 -16q0 -17 25 -17z" />
    <glyph glyph-name="fi" unicode="fi" horiz-adv-x="406" 
d="M235 102l-2 5l-9 -11q-21 -26 -50 -44l-3 -2q8 -34 8 -83q0 -64 -10 -103q-10 -42 -11 -46q-1 -1 -6 -16.5t-7 -20.5l-6 -13l-6 -12q-1 -5 -5 -10q-5 -11 -12 -20q-8 -11 -21 -18q-24 -22 -67 -9q-21 12 -26 17q-32 42 -32 93q0 19 5 59q1 20 7 49q5 27 14 78t15 80
q2 11 5.5 24.5t3.5 16.5q3 7 3 22l4 13q2 6 3.5 14.5t2.5 14.5q1 5 3 18.5t3 19.5l2 16l1 8q1 7 3 11q2 6 4 9q0 11 6 29q-1 14 5 37q2 6 6 30.5t7 32.5q1 3 9 32q5 17 10 28q0 11 6 21q2 4 2.5 8.5t2.5 8.5q8 13 9 20q2 3 6.5 14.5t7.5 16.5l19 43q9 11 19 32q13 22 16 24
q13 17 19 22q6 3 14.5 9t14.5 9q1 0 15 4q20 6 37 0q15 -7 18 -10q6 -7 11 -20q4 -16 3 -33q0 -8 -8 -51q-5 -24 -24.5 -71t-21.5 -52q-7 -18 -26 -59l-20 -39l-36 -64q-5 -10 -36 -51q-11 -15 -17 -22q-2 -2 -7 -9.5t-7 -9.5l-2 -14l-11 -37l-5 -24l-9 -35l-5 -25l-7 -28
l-3 -26l-12 -65q-3 -10 -3 -14t-2 -14q-2 -9 -5 -32q-3 -17 -3 -52q0 -23 2 -35t5 -19t4 -10q3 -10 17 -15q14 -6 25 -1q2 1 7 3t7 4q1 1 5.5 4t5.5 5q10 13 20 34q9 19 19 67q10 56 10 93q0 53 -12 89q-7 -3 -17 -3q-36 0 -33 35q2 26 20 30q17 2 23 -8q13 -16 15 -28
l3 -12q22 12 33 23q1 1 7.5 8.5t8.5 10.5q1 1 8 9.5t9 13.5q0 8 1 10l2 22q1 4 2 12t2 12q2 16 5 23q6 29 13 51q7 19 15 53l6 18q0 3 3 5q3 3 7 3q4 -2 10 -1t8 -1l28 -2q2 -2 6 -1t6 -1q4 0 2 -5v-7l-15 -45q-4 -13 -9 -28q-7 -25 -7 -26q-5 -11 -6 -20l-2 -15
q-1 -4 -3.5 -14.5t-4.5 -17.5q0 -10 -1 -17q-4 -12 -2 -31q0 -3 -1 -8t-1 -9t0.5 -9.5t0.5 -7.5q1 -4 2.5 -11t1.5 -10q6 -17 19 -17q12 0 18 6q8 5 20 18q2 3 7 9.5t8 8.5q3 3 8 11t9 11q5 6 6 10q14 18 17 25q14 20 22 36l10 16q6 6 6 1v-3q-41 -69 -47 -77
q-33 -50 -47 -63q-16 -17 -32 -27q-10 -6 -22 -8q-5 -1 -8 -1.5t-4 -0.5h-9q-7 1 -21 9q-9 9 -15 21q-3 4 -3.5 8t-2.5 8q-2 3 -2.5 9t-1.5 9q0 11 -3 18q-2 3 -1 9.5t1 9.5zM117 232q0 -3 -1.5 -8.5t-2.5 -10.5l12 17q5 7 16 21t17 24q3 5 10.5 16.5t11.5 18.5q7 10 17 30
t14 27q10 15 16 29q3 7 14.5 32.5t16.5 41.5q34 91 38 117q7 37 3 51q-1 12 -13 12q-8 0 -18 -6q-3 -2 -24 -23q-18 -24 -28 -44q-1 -1 -14.5 -29t-18.5 -43q-1 -3 -2.5 -8.5t-3.5 -10t-4 -8.5q-8 -17 -9 -32q-1 -3 -3.5 -11t-4.5 -12q-4 -10 -6 -22q-1 -5 -5 -20t-6 -23
l-2 -21l-3 -15t-4 -16q0 -5 -2 -15.5t-3 -15.5q0 -3 -4 -18t-4 -25zM363 458q22 0 22 -15q0 -24 -23 -42q-7 -7 -21 -2q-6 1 -12 6q-3 7 -3 16q0 16 10 23l10 9q7 5 17 5zM142 52q9 0 12 1v2q-8 20 -15 26q-4 4 -11 4q-11 -2 -11 -16q0 -17 25 -17z" />
    <glyph glyph-name="fl" unicode="fl" horiz-adv-x="451" 
d="M367 8l-16 -8q-5 -2 -21 -2q-7 0 -17 2q-15 5 -24 13q-20 14 -30 37q-7 16 -13 52l-3 19q-12 -18 -19 -25q-21 -26 -50 -44l-3 -2q8 -34 8 -83q0 -64 -10 -103q-10 -42 -11 -46q-1 -1 -6 -16.5t-7 -20.5l-6 -13l-6 -12q-1 -5 -5 -10q-5 -11 -12 -20q-8 -11 -21 -18
q-24 -22 -67 -9q-21 12 -26 17q-32 42 -32 93q0 19 5 59q1 20 7 49q5 27 14 78t15 80q2 11 5.5 24.5t3.5 16.5q3 7 3 22l4 13q2 6 3.5 14.5t2.5 14.5q1 5 3 18.5t3 19.5l2 16l1 8q1 7 3 11q2 6 4 9q0 11 6 29q-1 14 5 37q2 6 6 30.5t7 32.5q1 3 9 32q5 17 10 28q0 11 6 21
q2 4 2.5 8.5t2.5 8.5q8 13 9 20q2 3 6.5 14.5t7.5 16.5l19 43q9 11 19 32q13 22 16 24q13 17 19 22q6 3 14.5 9t14.5 9q1 0 15 4q20 6 37 0q15 -7 18 -10q6 -7 11 -20q4 -16 3 -33q0 -8 -8 -51q-5 -24 -24.5 -71t-21.5 -52q-7 -18 -26 -59l-20 -39l-36 -64q-5 -10 -36 -51
q-11 -15 -17 -22q-2 -2 -7 -9.5t-7 -9.5l-2 -14l-11 -37l-5 -24l-9 -35l-5 -25l-7 -28l-3 -26l-12 -65q-3 -10 -3 -14t-2 -14q-2 -9 -5 -32q-3 -17 -3 -52q0 -23 2 -35t5 -19t4 -10q3 -10 17 -15q14 -6 25 -1q2 1 7 3t7 4q1 1 5.5 4t5.5 5q10 13 20 34q9 19 19 67
q10 56 10 93q0 53 -12 89q-7 -3 -17 -3q-36 0 -33 35q2 26 20 30q17 2 23 -8q13 -16 15 -28l3 -12q22 12 33 23q1 1 7.5 8.5t8.5 10.5q14 16 18 25l7 10v26q-1 8 -1 25v2q0 3 7 57q2 14 5 21q0 9 5 24q0 11 7 37q17 62 17 63q1 3 9 32q3 13 11 28q2 13 6 21q2 5 9 17
q7 11 8 20q3 5 7 16.5t5 14.5q4 5 7 12t7 16.5t6 14.5q1 1 16 28t17 28q13 18 20 22q6 3 11.5 7t9.5 6.5t9 4.5q2 1 15 4q18 6 36 0q15 -6 17 -10q8 -8 12 -20q3 -15 3 -33q-1 -15 -10 -51q-5 -24 -24.5 -68.5t-23.5 -54.5q-3 -9 -27 -59q-2 -4 -6 -11.5t-7.5 -14
t-7.5 -13.5q-31 -54 -37 -64q-4 -7 -37 -51q-11 -15 -17 -22q-2 -2 -7.5 -11t-7.5 -11l-1 -11v-16.5t-1 -14.5q-4 -25 -2 -60q2 -22 6 -33q1 -1 4 -11q8 -17 22 -23q6 -2 14 -2t18 5l19 15q6 6 19 20q2 3 25 34q15 24 20 30q1 1 4 6t5 7q6 12 10 18l7 11q1 4 3 7t4.5 6
t3.5 5q3 4 5 -2v-2q-3 -7 -9 -15l-10 -20l-34 -54q-26 -42 -38 -50q-23 -23 -38 -31zM314 231v-10.5t-1 -11.5l12 17q5 6 17.5 22t19.5 27q3 5 11 16.5t12 18.5q6 9 16 28.5t16 28.5q10 16 15 29q25 47 31 68q3 9 15 36.5t19.5 49t9.5 38.5q7 39 4 50q-1 12 -12 12
q-5 0 -22 -10q-14 -10 -22 -19q-13 -13 -29 -44q-4 -8 -16 -34.5t-19 -37.5q-5 -8 -12 -27q-12 -26 -13 -31q-1 -1 -4.5 -10t-5.5 -14q-4 -10 -6 -22q-3 -8 -12 -43l-5 -17q-2 -4 -10 -35q-3 -12 -5 -31q0 -2 -2 -15t-2 -29zM117 232q0 -3 -1.5 -8.5t-2.5 -10.5l12 17
q5 7 16 21t17 24q3 5 10.5 16.5t11.5 18.5q7 10 17 30t14 27q10 15 16 29q3 7 14.5 32.5t16.5 41.5q34 91 38 117q7 37 3 51q-1 12 -13 12q-8 0 -18 -6q-3 -2 -24 -23q-18 -24 -28 -44q-1 -1 -14.5 -29t-18.5 -43q-1 -3 -2.5 -8.5t-3.5 -10t-4 -8.5q-8 -17 -9 -32
q-1 -3 -3.5 -11t-4.5 -12q-4 -10 -6 -22q-1 -5 -5 -20t-6 -23l-2 -21l-3 -15t-4 -16q0 -5 -2 -15.5t-3 -15.5q0 -3 -4 -18t-4 -25zM142 52q9 0 12 1v2q-8 20 -15 26q-4 4 -11 4q-11 -2 -11 -16q0 -17 25 -17z" />
    <glyph glyph-name="t_t" unicode="tt" horiz-adv-x="393" 
d="M305 25q16 0 39 23q6 6 14.5 17.5t10.5 13.5l21 29l8 13q12 19 16 28q2 4 8.5 13t10.5 16l2 4q5 5 5 -3l-1 -4q-1 -2 -10 -18l-7 -11q-7 -11 -20.5 -32.5t-26.5 -39.5q-13 -21 -28 -34l-14 -13l-12 -9q-25 -18 -56 -18q-16 0 -29 10.5t-17 23.5q-7 26 -9 43q-2 9 -2 26
v21q-2 -4 -11.5 -21.5t-16.5 -28.5q-19 -31 -45 -52l-12 -9q-6 -5 -28 -13q-15 -5 -30 -5q-13 1 -23 10q-12 11 -16 19q-6 13 -7 28l-3 25q-2 22 -2 28l2 24l2 21q0 3 3 34.5t6 49.5q3 20 4 24q8 42 14 65l5 20q-1 0 -5 0.5t-9 0.5q-14 2 -18 2h-17q-5 0 -7 -1q-4 0 -4 7
q2 6 5 6q2 -1 6 -1q1 0 4 -0.5t5 -0.5q19 0 26 -2h8.5h5.5h3q6 22 8 28l9 32q2 6 6.5 19t5.5 16q11 36 18 49q1 3 3 8t4 7q3 15 9 22q3 3 8 3q23 -5 41 -6q16 -4 17 -7q3 -7 -1 -14q-4 -13 -12 -30l-13 -35q-1 -3 -12 -35l-15 -45q-1 -3 -3 -9.5t-4 -10.5q8 -2 13 -2h17
q2 0 11 -0.5t11 -0.5l16 -2l10 -1q4 0 12.5 -0.5t15.5 -1t13 -1.5q2 6 7 22t7 23l6 21l8 26l3 12t4 14.5t5 12.5q1 3 3 8t4 7q3 15 9 22q3 5 8 3q13 -4 41 -9q16 -2 17 -3q4 -2 -1 -15l-19 -55q-3 -7 -7.5 -22t-8.5 -23q0 -2 -4 -13t-4 -12q-2 -14 -7 -26q4 -3 14 -3l20 -1
q1 0 6 -0.5t9 -0.5h9l16 1q5 0 5 -4q-1 -9 -6 -9q-4 0 -7 1l-16 2q-11 1 -25 1q-4 0 -13.5 1.5t-15.5 1.5q-2 -8 -5.5 -21.5t-4.5 -16.5q-6 -20 -14 -77l-9 -63q0 -7 -1.5 -21.5t-1.5 -27.5q0 -25 6 -48q5 -20 27 -20zM107 20q17 0 38 21q14 12 28 36l13 20q3 3 7 11l6 13
q11 21 13 36q0 8 2 22q1 23 7 55q2 20 4 24q9 46 11 55v5q1 5 3 8q-1 1 -3 1q-6 0 -9 1q-4 0 -10.5 0.5t-7.5 0.5q-8 1 -15 1.5t-10 0.5t-6 0.5t-6 1.5q-6 1 -14.5 1h-10.5q-4 0 -13 1.5t-15 1.5l-15 -55q-10 -50 -14 -77q-4 -19 -5 -38q-3 -10 -4 -25q0 -5 -1.5 -15t-2 -15
t0.5 -16q0 -3 0.5 -8.5t0.5 -9.5t0.5 -9.5t0.5 -7.5q2 -14 5 -21q5 -20 22 -20z" />
    <glyph glyph-name=".notdef" horiz-adv-x="135" 
 />
    <glyph glyph-name=".null" horiz-adv-x="0" 
 />
    <glyph glyph-name="nonmarkingreturn" horiz-adv-x="333" 
 />
    <glyph glyph-name="space" unicode=" " horiz-adv-x="220" 
 />
    <glyph glyph-name="exclam" unicode="!" horiz-adv-x="240" 
d="M77 102q1 10 5.5 46t7.5 53q5 51 24.5 147.5t24.5 124.5q9 57 9 58v4q0 3 1.5 8t1.5 6q0 12 6 41.5t16 29.5h1l2 -1q2 0 5 1.5t5 1.5q8 0 18.5 -6.5t10.5 -17.5q0 -17 -11 -35q-13 -60 -16 -67q-11 -32 -37 -133l-36 -150q-29 -121 -34 -121q-1 0 -1.5 2t-1 4.5t-1.5 3.5
zM78 55q12 -2 15.5 -6t6.5 -18q0 -14 -9 -23.5t-17 -12t-12 -2.5q-9 0 -18 6.5t-9 15.5q0 14 12 27t31 13z" />
    <glyph glyph-name="quotedbl" unicode="&#x22;" horiz-adv-x="192" 
d="M116 582q-29 -63 -33 -68q-2 -2 -9 -13.5t-13 -21.5t-8 -10q-3 0 -3 4q12 28 18 61q15 69 24 77q6 5 12 5q8 0 13 -4.5t5 -10.5q0 -5 -6 -19zM176 572q-29 -63 -33 -68q-2 -2 -9 -13.5t-13 -21.5t-8 -10q-3 0 -3 4q12 28 18 61q15 69 24 77q5 5 12 5q8 0 13 -4.5t5 -10.5
q0 -5 -6 -19z" />
    <glyph glyph-name="numbersign" unicode="#" horiz-adv-x="390" 
d="M222 618l-3 -18l-18 -68q-9 -31 -15 -63l28 1l51 -1q16 75 40 143l4 6l4 8q2 2 4 2q1 0 1 -0.5t1 -0.5v1q3 -3 3 -6q0 -2 -1.5 -6.5t-1.5 -6.5l-19 -67q-3 -10 -9 -33.5t-10 -36.5q-1 -1 -1 -3h20h39q15 0 24 1q8 0 8 -7q0 -10 -16 -12l-15 -1l-64 1q-5 -15 -10 -40
l-9 -30v1l-5 -25l36 2l61 -1q7 0 7 -5t-5 -9.5t-12 -4.5l-15 1l-13 -1l-16 1l-48 -1q-2 -6 -2 -7l-13 -50l-11 -55l-15 -51q-2 -6 -8 -6q-2 0 -2.5 1.5t-1 4.5t-1.5 6l3 18l18 68v-1l16 72q-2 0 -5.5 0.5t-4.5 0.5l-14 -1l-54 1q-1 -2 -1 -7l-7 -27l-14 -55q-21 -62 -21 -64
l-6 -13q-3 -3 -6 -3t-3 5v5l12 43q0 1 1 3q1 1 1 3q3 16 19 72v-1l6 24q0 1 1.5 4.5t2 6t0.5 4.5h-18q-4 0 -17.5 -0.5t-20.5 -0.5h-25q-8 0 -8 7q0 11 16 12l16 -1h62l15 61l8 34l-34 -2l-61 1q-7 0 -7 5t5.5 9.5t11.5 4.5l15 -1l14 1h16h30l13 -1l10 32v-1q2 6 4 18l3 18
l7 35l13 45l4 8q1 6 7 6q3 -3 4 -7t2 -5zM185 357h49l9 30q1 5 5.5 19t6.5 22l5 24h-25h-53l-5 -21l-9 -30q-11 -33 -11 -44q3 0 7 -0.5t6 -0.5z" />
    <glyph glyph-name="dollar" unicode="$" horiz-adv-x="275" 
d="M247 562q27 8 29 32q0 7 -1 10q0 10 -8 16l-7 5l-6 3q-2 0 -5 1t-4 1q-3 -1 -9 -1q-26 -10 -32 -25q0 -1 -0.5 -4t-2.5 -8q-4 -13 -5 -23q0 -3 -0.5 -6t-0.5 -8v-15l4 -13q0 -6 10 -19l8 -18l9 -18q8 -14 14 -29q5 -18 5 -28v-11q0 -4 0.5 -8t0.5 -8q0 -18 -6 -28l-4 -8
q-6 -13 -13 -19l-7 -8l-10 -8q-9 -8 -20 -15l-6 -4q-6 -3 -13.5 -6t-14.5 -3l-8 -3l-11 -4l-8 -24q-1 -1 -1 -2t-0.5 -1.5t-0.5 -1.5l-3 -11l-6 -16q-2 -4 -2.5 -10t-0.5 -7q-1 -3 -1 -7q0 -2 -2.5 -3t-5.5 1q-5 2 -5 5l6 15q0 3 8 24l3 14q1 3 1 6l6 16q-1 0 -3 -0.5
t-3 0.5h-8q-18 0 -35 6q-2 1 -3.5 2t-2 1.5t-1.5 2t-3 2.5q-16 16 -11 35l4 12q15 33 57 33q19 0 19 -9q-3 -5 -5 -5q-12 5 -19 5q-33 0 -45 -27q-2 -8 -2 -11q-1 -12 4 -21l6 -8l6 -5q20 -5 26 -5q20 0 33 7l9 5q20 14 30 30l8 22q2 6 2 10v8l1 5q2 24 -4 37q0 10 -4 10
l-5 11q0 2 -1 3l-1 2l-5 11q-1 2 -2.5 8t-3.5 8q-3 5 -9 24q-6 6 -7 16q0 1 -1.5 5t-2 7.5t-0.5 7.5v11q0 4 3 14t3 15l7 20q10 17 23 25q4 3 20 12q4 1 9.5 4t9.5 4l4 2q3 1 7 1q3 0 6 0.5t4.5 1t2.5 0.5l3 3l13 37q0 1 1.5 5.5t2.5 8t1 5.5q6 18 6 19q0 6 5 4q8 -2 8 -7
q-3 -3 -4 -6q-2 -2 -3.5 -7.5t-2.5 -7.5q-3 -6 -8.5 -22.5t-5.5 -19.5q0 -2 -2 -6t-2 -6q2 0 3 -0.5t3 -0.5q8 -2 12 -4q15 -8 16 -27v-10q-3 -26 -35 -37q-5 -2 -14 2q-1 1 -2 1l-5 4q-8 11 1 20q0 3 5 3q5 2 5 -2q1 -2 -3 -6q-4 -2 -3 -6q0 -4 5 -7q1 0 2.5 -1t3 -1.5
t3.5 -0.5z" />
    <glyph glyph-name="percent" unicode="%" horiz-adv-x="440" 
d="M378 518l-42 -62q-15 -23 -36.5 -55t-33 -49t-16.5 -24l-42 -62l-28 -38q-25 -41 -48 -70q-36 -54 -47 -70q-4 -6 -18 -25t-22.5 -29.5t-12.5 -10.5l-4 4q0 6 8 12q15 26 54 79.5t55 81.5l11 16q0 1 7.5 12t17 26t15.5 22l41 60l20 31l28 36q2 5 6 8l9 14q6 13 23.5 36.5
t23.5 33.5q7 9 18.5 31t19.5 31l28 36q3 10 9 10q5 0 5 -3l-1 -2v-3v-1v-2v-1l-7 -14q-29 -41 -41 -59zM345 267q1 0 2.5 0.5t4.5 1t6 0.5q7 0 12 -1.5t13 -7t12 -22t4 -42.5q0 -49 -32 -113l-3 -6q-19 -32 -45 -48q-9 -7 -23 -10q-18 0 -33 11l-7 7q-19 17 -20 55l-1 3
q0 54 23 90v-1q0 6 6 12l7 9l-1 -1l1 2q1 1 1 2l7 9h-1q17 22 30 31v-1l8 8q6 6 17 9l5 1h-1q6 2 8 2zM165 602q1 0 2.5 0.5t4.5 1t6 0.5q7 0 12 -1.5t13 -7t12 -22t4 -42.5q0 -52 -30 -108l-3 -6q-19 -32 -45 -48q-9 -7 -23 -10q-22 0 -39 12q-14 12 -17.5 24t-4.5 40
q0 52 21 85q1 2 20 32q16 21 38 38q6 6 17 9l4 1q6 2 8 2zM355 260l-6 -1h1q-16 -7 -27 -27q-9 -9 -22.5 -40t-13.5 -39q0 -11 -9.5 -39t-9.5 -45v-6l2 -5q2 -29 21 -29q1 0 3 0.5t4 0.5l7 1q16 7 28 21q22 22 39 62v-1q0 2 4.5 14t9 31.5t4.5 40.5q0 62 -29 62q-5 0 -6 -1z
M125 370l6 1h-1q13 8 32 28q24 27 37 70q11 49 11 87l-2 11q-2 29 -21 29q-1 0 -3 -0.5t-4 -0.5l-7 -1q-16 -7 -28 -21q-5 -5 -29 -60v1q0 -2 -5 -17t-10 -38t-5 -44q0 -30 5 -38t18 -8q5 0 6 1z" />
    <glyph glyph-name="ampersand" unicode="&#x26;" horiz-adv-x="600" 
d="M190 398l-7 5q-3 4 -11.5 12t-12.5 13l-4 3q-16 16 -22 29q-6 11 -7 13q-2 8 -2 9v11.5t-1 12.5q-2 4 0 18q7 35 27 52q2 2 6 6.5t7 7.5t6 5q4 3 12 8t12 8q13 8 28 11h1l2 1q7 -1 15 2t17 3q28 2 39 0h10q20 -1 39 -10l20 -10q12 -5 25 -26q0 -1 2 -3q6 -16 7 -27v-12
q-1 -9 -4 -17q-10 -17 -13 -19q-13 -10 -18 -12q-9 -4 -20 -2q-1 0 -3.5 1t-5.5 2l-6 2l-4 4l-8 10q-3 7 -3 11q0 15 14 29q9 9 14 4q4 -5 1 -7q-6 -3 -10 -7q-8 -8 -10 -21q3 -10 3 -11q5 -5 10 -7q7 -4 22 -2q22 9 29 27q2 4 4 17v7q1 14 -11 33q-3 7 -15 14q-3 3 -11 5
l-9 1q-8 2 -10 0h-27q-5 0 -34 -10q-1 -1 -16 -7q-5 -2 -12.5 -8t-10.5 -8q-6 -4 -16 -17l-16 -23v-1q-9 -15 -11 -32v-5q-4 -5 -2 -14q0 -1 1 -2q-2 -6 5 -27l3 -17q2 -5 6 -9l12 -17l3 -2q9 6 35 8q2 0 6 0.5t6 0.5l22 -2q6 -1 23 -9q5 -5 5 -7q3 -6 1 -13t-7 -9
q-2 -1 -5 -3.5t-5.5 -3.5t-5.5 -1q-28 -2 -45 6l-27 10q-3 3 -8 0l-10 -5q-6 -6 -14 -9q-2 -2 -5 -3t-4 -3q-11 -7 -43 -30q-4 -3 -8.5 -7t-10 -9t-8.5 -8t-9 -13q-4 -4 -24 -42l-11 -35q0 -1 -1.5 -4.5t-1.5 -5.5q0 -1 -3 -46v-20q0 -15 5 -33q1 -4 6 -17q17 -29 24 -36
l19 -21q3 -2 22 -13l12 -3l13 -4l15 -3q1 -1 12 -1q4 0 18.5 -1.5t18.5 2.5q20 6 23 7l20 12l9 5q1 0 21 18q9 8 16 22l9 18q1 3 8 20l4 9q0 5 2 11v2l-1 2q3 21 1 53l-8 -4l-12 -7q-7 -2 -14 -6q-10 -2 -13 -1l-13 1q-6 0 -10 3l-7 3q-6 5 -9 10q-2 2 -2 4.5v3.5v8
q0 8 4 12q1 4 7 8q4 4 10 6q7 4 13 4q7 1 16 1q15 -2 22 -4q8 -3 12 -5t8.5 -5.5t7.5 -5.5q0 -2 2 -2l12 8q7 7 17 12t24.5 11t21.5 9q5 5 15 5q12 5 20 5q11 3 37 1l33 -8q17 -6 26 -12l11 -11l6 -5q13 -17 14 -24l3 -13q2 -22 -4 -35q-8 -18 -25 -28q-16 -7 -27 -7
q-14 0 -24 3q-12 5 -17 9q-11 9 -11 22q0 7 2 9q2 3 6 3q4 -1 4 -7l-2 -1q-3 -11 5 -19q10 -10 17 -7q9 0 16 5q5 3 7 6t3 8.5t2 8.5l4 14v15q-1 7 -4 15l-5 17q-3 8 -10 15q-21 18 -45 17q-21 4 -37 -5q-11 0 -19 -6l-5 -1q0 -1 -4 -2q-33 -14 -38 -18q-5 -6 -8 -6l-14 -10
q10 -9 19 -27q2 -5 4 -15q2 -21 1 -29q0 -16 -4 -23v-1q-2 -9 -17 -37q-10 -14 -16 -20q-11 -11 -32 -24l-14 -9l-20 -9q-18 -8 -30 -11l-27 -2h-22l-1 -1h-3q-14 0 -29 4q-12 0 -23 4l-23 5q-4 0 -5 1q-8 5 -35 14q-13 4 -27 20l-2 2q-5 3 -12.5 11t-11.5 11q-3 3 -7.5 9.5
t-5.5 7.5q-9 13 -10 26q0 2 -1 3q-7 10 -7 22q0 5 -6 27q-4 13 1 27v7q0 19 3 28q1 7 7 21l3 11q1 8 11 24l2 6q9 17 20 25l4 4q7 12 18 20q1 2 14 9l21 11l17 10q14 8 34 15l21 8q3 2 19 4zM292 181h1q9 -1 22 5q4 4 8.5 6.5t5.5 3.5l6 4q-1 1 -3.5 6.5t-4.5 7.5l-3 3
q-2 2 -5 3t-5 2q-12 3 -14 3q-12 1 -19 -3q-6 -3 -8 -9q-2 -4 -2 -10q-2 -5 3 -11l7 -7q6 -3 11 -4zM230 391q0 -1 1 -2q9 -8 28 -13h6q14 -6 32 -1q7 0 8 7q5 6 0 8q-6 10 -16 11q-6 1 -18 0t-16 -1q-7 -1 -19 -5q-3 -1 -6 -4z" />
    <glyph glyph-name="quotesingle" unicode="'" horiz-adv-x="132" 
d="M116 582q-29 -63 -33 -68q-2 -2 -9 -13.5t-13 -21.5t-8 -10q-3 0 -3 4q12 28 18 61q15 69 24 77q6 5 12 5q8 0 13 -4.5t5 -10.5q0 -5 -6 -19z" />
    <glyph glyph-name="parenleft" unicode="(" horiz-adv-x="250" 
d="M318 665l-4 -4l-13 -4q-26 -8 -53 -42l-28 -36q-4 -5 -10 -15q-45 -70 -64 -135q-5 -12 -13.5 -31.5t-11 -27.5t-6 -25t-5.5 -39l-4 -37q-3 -16 -3 -35l-1 -64l-2 -23v-10q-4 -21 -1 -30l1 -4q-4 -21 1 -42q2 -5 4 -16.5t3 -15.5q8 -47 40 -105t66 -88q22 -14 25 -18
l5 -4v-2l-1 -1q-1 -1 -1 -2q-9 0 -23 6l-36 21q-10 8 -15 16l-27 26q-8 3 -18 20q-42 48 -66 115q0 4 -7.5 29t-7.5 27q-1 1 -1 2l-6 33l-1 40q-6 46 -3 107l4 22q0 1 1 2q1 9 1 18t1 17t5 22l23 71q4 12 15 34.5t15 34.5q3 13 23.5 34t25.5 32q13 25 37 49l10 9l3 4l7 7
q29 35 74 53l21 8q2 1 14 1q7 0 7 -4z" />
    <glyph glyph-name="parenright" unicode=")" horiz-adv-x="250" 
d="M-68 -186l4 4l13 4q26 8 53 42l27 36l10 15q45 70 64 135q6 16 16 39t14 39t6 45l4 37q3 17 3 35l1 64l2 23v10q4 21 1 30l-1 4q4 21 -1 42q-2 5 -4 16.5t-3 15.5q-8 47 -40 105t-66 88q-22 14 -25 18l-4 4v2q0 1 1 1l1 2q8 0 22 -6l36 -21q10 -8 15 -16l27 -26
q8 -3 18 -20q42 -48 66 -115q0 -4 7.5 -29t7.5 -27q1 -1 1 -2l6 -33l1 -40q6 -46 3 -107l-4 -22q0 -1 -1 -2q-2 -11 -2.5 -25.5t-4.5 -31.5l-23 -71q-3 -12 -15 -34.5t-15 -34.5q-3 -13 -23.5 -34t-25.5 -32q-13 -25 -37 -49l-10 -9l-3 -4l-7 -7q-29 -35 -73 -53l-21 -8
q-2 -1 -14 -1q-7 0 -7 4z" />
    <glyph glyph-name="asterisk" unicode="*" horiz-adv-x="250" 
d="M149 497h-1q-2 -3 -3 -10t-2 -10q-1 -5 -2.5 -13.5t-3.5 -12.5q-5 -11 -6 -20q-5 -11 -9 -14q-8 -5 -14 -5q-12 0 -12 14q0 8 2 14q1 2 4.5 6.5t5.5 8.5q1 1 4.5 6t6.5 8q5 4 13 15q8 8 12 16q-9 -5 -18 -8q-7 -2 -16 -7q-4 -1 -10 -3t-10 -2q-5 -2 -21 -2q-22 -1 -22 11
q-1 8 13 14q12 5 18 3q7 1 20 0q3 -1 10.5 -1t12.5 -1q16 -2 24 -1q-13 13 -17 16q-2 1 -17 16q-10 6 -16 15q-5 7 -7 18q2 13 15 13q8 0 12 -4q5 -5 9 -12q1 -1 8 -18q2 -3 4.5 -10.5t3.5 -9.5l9 -21q5 8 8 25q1 5 5 18q4 17 9 24q4 11 8 14q8 5 14 5q12 0 12 -15
q0 -7 -3 -14l-10 -14q-9 -11 -13 -14q-1 -1 -12 -16l-14 -15l19 4q2 1 8.5 4t11.5 5q4 2 9.5 3.5t9.5 2.5q10 4 19 3q12 0 18 -3t6 -11q0 -12 -16 -12q-4 -2 -10.5 -3t-7.5 -1q-11 0 -18 1l-8 1q-9 0 -16 2q-3 0 -11.5 0.5t-13.5 -0.5q3 -2 6 -5t6 -6.5t5 -5.5q10 -6 18 -16
q9 -6 15 -15q5 -11 6 -17q0 -1 -1.5 -4.5t-2 -4.5t-3 -2t-6.5 -1l-12 3q-6 4 -10 13q-2 3 -4 9l-3 9q-2 3 -4 9l-3 9q-5 8 -11 22z" />
    <glyph glyph-name="plus" unicode="+" horiz-adv-x="400" 
d="M322 227h-4h-40q-2 0 -5.5 0.5t-4.5 0.5h-61v-105v-9q-5 -9 -10 -9q-7 1 -7 10l2 41v63v9h-104h-9q-9 2 -9 10t10 8l56 -1l46 -1h10v43q0 43 1 66v4q0 5 3.5 7t7.5 0t4 -7v-4v-18q0 -3 -0.5 -33.5t-0.5 -31.5v-26h44q44 0 67 -1h4q5 0 7 -4t0 -8t-7 -4z" />
    <glyph glyph-name="comma" unicode="," horiz-adv-x="150" 
d="M8 22q0 7 1 12l1 5q0 11 8 17q9 7 18 7q4 0 5 -1q30 -7 30 -37q0 -19 -13 -47q-14 -26 -34 -42q-1 0 -14 -9t-18 -9q-1 0 -1 4v1q0 3 4 6.5t9.5 6.5t6.5 4q27 20 36 37q5 10 7 27v4q-4 -1 -7 -2l-4.5 -1.5l-3 -1t-3.5 -0.5q-9 0 -18 5.5t-10 13.5z" />
    <glyph glyph-name="hyphen" unicode="-" horiz-adv-x="225" 
d="M56 251h20l19 -2h40h39l26 -4q0 -5 -10 -19q-3 -4 -5.5 -8.5t-3.5 -6t-3 -3.5t-4 -2.5t-6 -0.5l-40 2h-40h-40l-23 3q0 6 11.5 23.5t19.5 17.5z" />
    <glyph glyph-name="period" unicode="." horiz-adv-x="150" 
d="M43 62q12 -2 15.5 -6t6.5 -18q0 -14 -9 -23.5t-17 -12t-12 -2.5q-9 0 -18 6.5t-9 15.5q0 14 12 27t31 13z" />
    <glyph glyph-name="slash" unicode="/" horiz-adv-x="250" 
d="M248 652q-1 -7 -5 -23t-13 -46t-13 -45q-6 -16 -15 -48.5t-14 -47.5q-28 -110 -43 -147l-15 -57q-5 -19 -18 -51q-4 -15 -14.5 -52t-16.5 -56l-46 -147q-2 -4 -4 -9t-3 -7q-3 -4 -4 -2q-2 -2 -2 0q-5 2 -3 8l4 14q2 7 6.5 21t6.5 21l28 90q7 20 18 57.5t15 50.5l26 81
q10 36 11 43l40 135l18 61l13 47q7 27 13 47q4 10 8.5 29.5t7.5 29.5q2 7 5 11q2 5 5 5h3q1 0 3 -9l-1 -2q-2 -1 -1 -2z" />
    <glyph glyph-name="zero" unicode="0" horiz-adv-x="445" 
d="M292 613l28 4q18 0 20 -1q22 -3 38 -17q36 -29 44 -119l2 -30q4 -46 -16 -137q-9 -36 -46 -119l-2 -8q-13 -21 -17 -31l-8 -15q-31 -51 -53 -70q-28 -30 -43.5 -42t-38.5 -20q-10 -4 -20 -6t-12 -3q-42 -1 -89 36l-5 5q-22 20 -29 42l-3 7q-15 33 -20 86l-1 7q-1 20 5 65
l3 9q0 12 5 24q23 91 46 128l5 8q5 14 25 41l5 11l30 37q30 37 57 59q3 2 13.5 10.5t23 16.5t26.5 13l10 4q5 3 17 5zM313 604l-11 -4q-43 -24 -75 -77q-12 -15 -33 -66t-30 -68q-22 -48 -22 -59q-1 -9 -25 -92t-21 -135l5 -13q3 -33 17.5 -56t45.5 -21l21 3l10 1
q45 22 70 53q6 6 12.5 13t9.5 10q53 73 78 138l5 9q18 46 25 84q23 81 15 159q-7 64 -28 94.5t-52 28.5q-12 0 -17 -2z" />
    <glyph glyph-name="one" unicode="1" horiz-adv-x="240" 
d="M261 617q2 2 5 2q4 0 4 -4q0 -3 -1 -4l-3 -8l-10 -20l-4 -9q-13 -23 -25 -61q-2 -9 -7.5 -21.5t-5.5 -13.5l-3 -6q0 -3 -4.5 -16.5t-11.5 -32t-10 -29.5l-4 -9l-12 -45q-1 -4 -5.5 -17t-8.5 -31q-20 -79 -21 -84q-9 -37 -15 -56q0 -6 -1.5 -14t-1.5 -12q-15 -80 -18 -106
q-1 -4 -1 -11.5t-2 -10.5t-8 -3h-11h-25l-12 -1l-21 1q-1 -1 -6 -1q-7 0 -7 4q0 16 4 27q0 2 3 15.5t7.5 32.5t6.5 28l4 10q5 30 19 77l1 4q1 5 5 20t6 23q2 10 10 27.5t10 26.5l2 8q15 35 18 44q9 28 14 35q3 5 7.5 20t8.5 22l4 8q5 9 13.5 28.5t14.5 30.5l2 4l8 16
q7 14 14 25.5t9 16.5l-7 -6q-7 -6 -13 -11.5t-17.5 -12.5t-22.5 -11q-62 -41 -69 -41q-5 0 -5 7q0 5 20 14q63 37 88 56q4 3 27.5 22t37.5 27q3 4 12 12q2 2 4.5 4t5 5t4.5 5z" />
    <glyph glyph-name="two" unicode="2" horiz-adv-x="391" 
d="M55 416v24q0 3 1 9.5t1 11.5q0 41 40 94l6 6q3 3 10.5 8t12.5 9.5t8 9.5q3 1 21 12.5t37 18t43 6.5q14 -2 18 -2q1 0 3 0.5t4 0.5q24 0 37 -8l8 -3q19 -7 36 -27q11 -13 17.5 -25.5t8 -20.5t4.5 -24.5t6 -28.5v-2v-18q-1 -18 -12 -61q-5 -18 -32 -65q-10 -14 -26 -34
l-7 -5q-7 -10 -14 -15q-2 -1 -7.5 -8.5t-9.5 -9.5q-5 -5 -14.5 -12.5t-11.5 -9.5q-8 -8 -28 -21l-20 -14q-6 -4 -9 -8.5t-6 -6.5q-27 -16 -72 -49l-7 -6q-1 -1 -6 -4t-7 -6q-58 -41 -58 -53q0 -1 1 -1l8 5q36 4 37 4q34 -2 75 -23q9 -4 31.5 -14.5t39 -15.5t39.5 -6
q27 -2 36 8q9 8 14.5 16.5t7.5 11.5t4 3l3 -2q-2 -5 -7.5 -15t-5.5 -11q-17 -25 -34 -40l-3 -2q-11 -11 -28.5 -18.5t-27.5 -6.5q-8 0 -11 1h-5q-26 2 -84 20t-80 23h-11q-3 0 -11 1.5t-16 1.5q-24 -2 -39 -27q-3 0 -3 4q17 39 23 45q0 1 4 6.5t8.5 12t11 14.5t13.5 15
q14 10 16 13l4 3q21 22 82 69l5 5q5 5 27 21q6 5 36.5 37.5t31.5 33.5l6 6q5 5 13 19q14 12 34 58q13 22 17 42q1 10 7.5 30.5t7.5 32.5v6.5v8.5v9v8q0 2 -2 10q1 2 0 3l-1 2q0 26 -10 48l-3 8q-1 1 -5.5 7.5t-7.5 10t-9 9.5t-11.5 9t-14 5.5t-17.5 2.5q-1 0 -5 -0.5
t-6 -0.5q-10 0 -22.5 -3t-34.5 -12.5t-44 -34t-38 -60.5l-1 -5q0 -4 -4 -16t-4 -22q-3 -15 -1 -27q5 -31 17 -42.5t31 -11.5q11 0 36 10.5t34 26.5l5 7q4 7 13 12q2 2 13 35q4 12 7 36q0 5 -2 13q-3 7 -9 11q-2 -1 -5 0t-4 1q-4 0 -7 -4q-2 -5 1 -8q2 -3 -1 -6q-3 -1 -6 0
q-3 3 -3 6q-2 5 1.5 11.5t10.5 7.5q6 1 17 -2q13 -10 16 -22q5 -12 6 -46q-2 -22 -23 -59l-3 -4l-9 -9q-8 -10 -14 -14.5t-16 -8.5q-4 -5 -18.5 -10t-21.5 -4q-50 0 -68 37q-9 13 -9 28z" />
    <glyph glyph-name="three" unicode="3" horiz-adv-x="395" 
d="M61 437q0 8 2 22l2 9q11 43 42 83l5 6q58 58 120 58q35 0 63 -16l6 -3q17 -12 26 -21l3 -3q31 -35 31 -84q0 -16 -4 -33t-4 -29q-10 -22 -12 -28l-4 -8q-8 -16 -25 -37l-16 -21l-5 -6q-7 -7 -22.5 -20t-21.5 -19q45 -27 61 -55.5t16 -75.5l-1 -9q-1 -5 -2 -13t-2.5 -14.5
t-4.5 -13.5l-1 -4q-10 -20 -22 -34q-1 -1 -10 -14.5t-20.5 -24t-29.5 -19.5l-4 -3q-22 -12 -54 -20l-7 -2q-22 -5 -39 -5q-42 0 -63 6l-8 2q-39 12 -60 39q-1 1 -5.5 10.5t-7.5 18t-2 8.5v-1q-1 3 -1 11q0 20 10 33.5t29 13.5h9l7 -2q20 -9 20 -32q0 -40 -39 -40
q-16 0 -21 5q12 -38 53 -51l8 -3q8 -3 20 -3q18 0 34 3l6 1q6 1 8 1.5t8.5 2.5t10.5 4t11 6.5t12.5 9.5t13.5 13t16 17l14 11q5 7 21 42q1 2 2 3.5t2 2t2 2t2 3.5l2 12q12 33 12 63q0 57 -8 72q-1 4 -6 8t-7 8q-53 -34 -91 -34q-46 0 -46 30q0 14 19.5 24.5t45.5 10.5
q14 0 32.5 -3.5t23.5 -3.5t6 1l5 5q18 16 31 46q16 34 27 84q0 2 2.5 6.5t2.5 11.5v14q0 2 0.5 4t0.5 4v3v9q0 41 -12 62l-3 8q-17 24 -36 30l-13 6q-1 0 -2 0.5t-3 0.5q-21 0 -37 -5l-9 -3q-16 -6 -31 -18l-8 -5l-16 -15q-21 -21 -46 -83l-1 -3q-3 -13 -3 -23q0 -21 4 -32
l2 -9q10 -23 34 -28l2 -1h5q42 0 64.5 36t22.5 90v17q0 2 3 2q19 0 19 -44l-3 -15l-3 -10q-8 -22 -17 -36l-19 -24q-32 -30 -57 -29q-67 0 -67 76zM127 258h-2q15 0 32 6l7 3q10 4 24 13.5t22 13.5q-20 10 -56 10q-14 0 -24 -3q-24 -8 -24 -27q0 -16 21 -16z" />
    <glyph glyph-name="four" unicode="4" horiz-adv-x="430" 
d="M406 622q4 0 5 -0.5t0 -10.5q-1 -2 -18 -57l-3 -7q-2 -5 -14 -53q-2 -6 -4 -17t-4 -17q-5 -14 -18 -67l-1 -5q0 -2 -8 -31l-3 -8q-4 -9 -8.5 -37t-8.5 -41l-1 -8q-2 -7 -5 -25t-6 -33t-7 -21h14l34 2l46 -2h3q4 0 4 -3q0 -6 -3 -9h-17l-44 2l-23 -2l-17 1q0 -11 -5 -29
q0 -37 -16 -79q0 -10 -3.5 -30.5t-5.5 -20.5v-3q0 -7 -2 -12t-7 -4q-2 0 -10 1.5t-14 1.5h-5q-8 0 -9 1q-9 0 -18.5 1.5t-13.5 1.5q-2 0 -4 -0.5t-4 -1.5h-1q-7 0 -7 9v4l8 35l6 17l5 27l11 41l9 38l-20 1h-31h-46h-31l-32 -1q-16 2 -49 2q-4 0 -11 -0.5t-11 -0.5
q-4 -1 -13 -1q-4 1 -4 5q0 1 1 2l6 5q9 14 34 39l1 1l45 48q5 6 23.5 24t26.5 29q34 38 56 58q31 29 45 46q8 6 55 57q3 3 38 35t61 58q11 13 27.5 26t21.5 18zM338 539q-15 -16 -21 -20l-8 -7q-8 -11 -20 -20q-1 -1 -4 -4.5t-6 -6t-5 -4.5q-7 -7 -8 -9q-13 -13 -20 -18
l-9 -9q-7 -7 -12 -10q-4 -9 -19 -19q-3 -5 -21 -23l-3 -3q-14 -16 -17 -19l-4 -4l-5 -5l-6 -6l-13 -12q-3 -5 -18 -20l-6 -5q-13 -13 -18 -20l-8 -9l-9 -10q-3 -3 -10.5 -12t-13.5 -13q-14 -13 -16 -17l-1 -1l-20 -24q-4 -2 -7.5 -7t-7.5 -7l-10 -11h16h27h14l29 -1l25 1
l7 1l22 -1l20 -1l23 -1l34 2q8 0 9 8l3 7q1 9 7 25q2 4 4 12.5t3 12.5q0 1 1.5 5.5t1.5 7.5q8 22 9 28l3 8q8 22 9 28l3 8q0 4 2.5 10.5t2.5 10.5l11 25l8 25l4 12l3 8q2 5 5.5 15t4.5 13l3 6t2 6q2 3 3 7t2 7q2 5 6 13.5t5 10.5q2 4 4 12.5t5 12.5q1 2 2 5.5t3 5.5z" />
    <glyph glyph-name="five" unicode="5" horiz-adv-x="395" 
d="M296 533q-4 0 -12 -0.5t-12 -0.5q-2 0 -3 0.5t-3 0.5l-2 1h-4t-6 -0.5t-6 -0.5q-9 0 -16 -1q-3 0 -11 0.5t-13 0.5q-4 1 -16 1q-2 0 -4 -0.5t-3 -0.5q-9 -1 -20 -1t-14 -6l-2 -9q-6 -10 -10.5 -25.5t-6.5 -20.5q-3 -5 -6 -14t-5 -14q-6 -12 -8 -24l-3 -6q-21 -46 -21 -57
q0 -1 1 -1l6 8q4 9 21.5 23t28.5 19l7 4q27 12 49 12q2 0 5.5 -0.5t5.5 -0.5h13q6 0 16 -2.5t11 -2.5l4 -1q10 0 38 -18q6 -4 18 -17t17 -27l1 -4q5 -7 9 -34.5t4 -44.5q0 -40 -7 -63q-13 -39 -16 -44q-7 -13 -20 -43q-21 -39 -49 -68q-4 -4 -15 -13t-14 -11
q-31 -31 -52 -35q-11 -8 -59 -16q-48 -4 -71 7q-8 2 -17 6.5t-23.5 21.5t-18.5 40q-2 5 -2 20q0 20 1 29q10 46 42 46q14 0 23 -9t10.5 -15.5t1.5 -11.5q0 -14 -9.5 -27t-26.5 -13q-21 0 -30 14q-1 -1 -1 -4v-1v3q0 -4 0.5 -10t0.5 -10v-5q3 -18 10 -29.5t17.5 -17.5
t18.5 -8.5t21 -4t17 -2.5q2 0 24 2q9 1 48 23q33 19 62 71l2 3q5 6 12 19.5t8 15.5q11 20 17 43q5 12 8.5 31.5t6.5 27.5q5 15 5 49q0 99 -43 118l-10 4q-1 0 -9.5 1.5t-13.5 1.5q-41 0 -79 -38q-5 -5 -13.5 -16t-15 -18.5t-9.5 -7.5q-5 0 -5 10q0 3 4.5 16t11.5 31.5
t10 28.5q4 11 7.5 19t4.5 10q2 3 3.5 10t2.5 10l27 77q3 4 8 21.5t11.5 30t13.5 12.5q8 0 11.5 -0.5t11.5 -0.5q2 0 10 -1t9 -1q19 -5 36 -4q7 1 19.5 0t18.5 -1q11 0 30 2t22 2q5 2 10.5 3.5t9 2.5t4.5 2q9 4 7 15q-1 9 -5 14q-2 0 -4.5 2t-3.5 2q-4 1 -8 -1q-3 -3 -2 -8
q2 -3 -3 -5q-4 -2 -5 2q-3 4 -1 6q0 6 5.5 11t11.5 3q7 -1 16 -8q10 -15 7 -31q-3 -9 -8.5 -21.5t-5.5 -14.5l-9 -12q-18 -22 -37 -23h-3q-7 -3 -23 -3z" />
    <glyph glyph-name="six" unicode="6" horiz-adv-x="470" 
d="M32 158v8q-1 3 -1 13q0 14 -1 25v5q0 1 4.5 26.5t6.5 41.5l2 5q2 15 12 43.5t13 38.5q30 68 33 73l3 4q33 55 37 60q9 17 41 46.5t37 34.5l6 5q31 22 71 35l10 2q19 6 48 6q22 0 43 -11t32 -30l1 -4q2 -4 7 -29q0 -9 -10 -23t-23 -14q-16 0 -28 6l-4 5q-15 10 -15 37
q3 16 14.5 23.5t23.5 7.5q11 0 18 -4q-16 25 -59 25q-19 0 -33 -6l-9 -4q-1 -1 -7 -4t-9 -5l-5 -3l-17 -17l-4 -5q-20 -20 -38 -47q-6 -8 -17.5 -30.5t-21.5 -37.5q-3 -6 -7.5 -20.5t-9 -26t-10.5 -20.5q-4 -16 -13 -39.5t-14 -40.5q11 30 49 62q1 1 10.5 8t14.5 9.5
t19.5 5.5t33.5 3q16 0 43 -9q1 0 11 -6t17 -11t16.5 -14.5t14.5 -19.5q28 -55 30 -92v-19v-11l-2 -8q-3 -50 -24 -86l-2 -4q-17 -36 -25 -45q-43 -59 -115 -83l-9 -2q-7 -2 -22 -2q-18 0 -26 1l-6 1q-32 6 -47 16l-1 1q-46 30 -62.5 64.5t-24.5 85.5zM248 386h-7l-3 -1
q-15 -2 -26 -8l-5 -2q-22 -13 -44 -45q-1 -1 -13 -30q-2 -7 -2.5 -14.5t0 -12t-0.5 -9.5q0 -5 2 -13q3 -5 9 -10h9q4 0 7 4q2 5 -1 8q-2 3 1 6q3 1 6 0q3 -3 3 -6q2 -5 -1.5 -11.5t-10.5 -7.5q-13 -2 -17 0q-13 10 -16 22q-1 3 -1.5 17t-2.5 20q-17 -45 -21 -84
q-10 -30 -10 -96q3 -11 3 -21v-5q2 -41 23.5 -64t52.5 -23q9 0 18 3l7 2q17 11 26.5 20.5t17.5 21t15 19.5l21 39q23 50 25 89l-1 5q5 23 7 49q1 9 1 29q0 3 -1.5 11.5t-1.5 12.5v4q-1 5 -3 14.5t-4 14.5l-4 6q-3 19 -25 36l-9 5q-12 5 -23 5z" />
    <glyph glyph-name="seven" unicode="7" horiz-adv-x="340" 
d="M150 625h6q15 0 45 -10q19 -6 44 -23l6 -3q46 -24 63 -24h18q2 0 30 4q28 6 56 28q3 2 5 0t1 -5q-4 -4 -27.5 -25.5t-34.5 -34.5q-6 -6 -18 -20.5t-19 -21.5q-2 -3 -15 -20.5t-26 -36.5t-23 -38q-6 -12 -18 -32t-21.5 -37.5t-17.5 -35.5q-23 -66 -28 -76
q-7 -14 -13.5 -38.5t-11.5 -34.5q-7 -18 -11.5 -44.5t-7.5 -34.5q-1 -3 -2.5 -21.5t-5.5 -25.5v-8q0 -5 -2 -6.5t-10 -1.5l-6 1q-2 0 -5.5 -0.5t-5.5 -0.5q-9 0 -24 1h-15h3q6 0 9 1q-11 -1 -24 -1t-13 9q0 1 0.5 3t0.5 3q1 3 3 13t4.5 20.5t6.5 18.5q1 17 13.5 50.5
t16.5 47.5q5 9 12 25t19.5 41.5t36.5 69.5l1 3q5 6 29 41l4 7q1 1 16 22q6 9 23 27t21 26q36 46 68 70q4 6 13.5 13.5t13.5 12.5q5 5 17 15t20.5 16.5t8.5 7.5t-3 0t-9.5 -5t-7.5 -5q-41 -23 -88 -23q-7 0 -16 1.5t-12 1.5h-4q-3 2 -10 3t-10 2l-5 1q-1 0 -19.5 6.5
t-28.5 10.5l-8 3q-15 12 -37 12q-11 0 -23 -1l-4 -1q-15 -2 -27 -12l-2 -1q-8 -5 -17 -19q-7 -7 -18 -28q-4 0 -4 3l5 12l5 7q1 4 3.5 8t6 8.5t5.5 7.5l2 3l5 6q4 8 19 25l5 5q27 23 41 27l7 2q2 0 7.5 1.5t9.5 1.5h3z" />
    <glyph glyph-name="eight" unicode="8" horiz-adv-x="390" 
d="M112 435v16q2 10 2 12q0 1 -0.5 2t-0.5 3q13 65 61 113q35 35 86 42h2q3 0 10 1t13 1q1 0 25 -3q31 -6 47.5 -20.5t29.5 -39.5l4 -9q5 -10 7 -27q1 -15 1 -32q0 -13 -4 -25.5t-11.5 -28t-9.5 -19.5q-2 -6 -10 -14t-10 -13t-22 -21t-28 -16q-2 0 -4 2q23 17 24 19
q12 9 30 42l3 6q5 14 10 32q4 16 4 37q0 2 0.5 9t0.5 8q-1 6 -7 33v2q-2 9 -13 28l-5 7q-10 17 -30 25q-19 9 -30 9q-40 0 -66 -17q-1 -1 -5 -4.5t-10 -8.5t-11 -11q0 -1 -4 -5.5t-6 -7.5q-25 -37 -25 -69q0 -43 7 -58l3 -9q18 -50 42 -81l22 17q4 3 8 7t9 9.5t8 8.5
q11 8 22 40q7 27 8 39q1 16 -4 32q-3 9 -8 16q-1 0 -2 1l-2.5 2.5t-2.5 1.5q-4 1 -8 -1q-4 -4 -2 -8q2 -3 -3 -5q-4 -2 -5 2q-1 1 -1.5 3t0.5 3q0 6 5.5 10t11.5 4t15 -7q7 -4 11 -14l2 -4q1 -4 5 -29q0 -9 -6 -39q-7 -27 -22 -45l-5 -7l-27 -26q-18 -16 -22 -18q1 -2 5 -8
t8.5 -13t7.5 -14q14 -16 30 -47q4 -7 14 -34l3 -7q4 -10 6 -20t3 -19.5t2 -13.5v-4q0 -2 0.5 -7t0.5 -9q0 -8 -1.5 -15.5t-4 -16t-3.5 -13.5l-2 -5q-2 -7 -5 -12.5t-7.5 -11.5t-6.5 -10q-8 -13 -47 -42q-10 -7 -37 -17t-45 -10q-22 0 -31 3q-36 3 -72 31t-36 79q0 2 0.5 5
t0.5 4q-2 14 -2 20q0 9 3 16q2 7 5 20t6 22t9 18l5 8q12 20 25.5 33.5t47.5 38.5q3 0 9.5 5t17 12t20.5 12q-1 2 -14 24l-1 6q-4 7 -14 36l-2 6q-5 28 -5 47zM226 119q-2 14 -2 29q0 10 -2.5 20t-5 16t-8 18.5t-7.5 18.5q-13 29 -25 42q-4 9 -12.5 22.5t-11.5 20.5l-14 -9
q-9 -5 -18 -12.5t-20.5 -19.5t-18.5 -18l-18 -29l-16 -26q-10 -19 -13 -35q-1 -5 -2 -12t-2 -18.5t-2 -20.5q0 -16 7 -35q0 -36 50 -64q30 -7 31 -7h3t3 -0.5t4 -0.5q25 0 59 22l5 6q28 24 36 92z" />
    <glyph glyph-name="nine" unicode="9" horiz-adv-x="460" 
d="M199 235q20 0 28 6q12 7 16 13q14 16 17 29q4 18 5 26q0 3 -4 15q-3 7 -9 11q-2 -1 -5 0t-4 1q-4 0 -7 -4q-2 -5 1 -8q2 -3 -1 -6q-3 -2 -6 0q-3 3 -3 6q-2 5 1.5 11.5t10.5 7.5q6 1 17 -2q13 -10 16 -22q4 -11 -2 -39q-4 -19 -14 -31l-3 -4l-1 -1q-19 -26 -70 -27
q-18 -1 -39 7q-12 4 -32 17.5t-28 30.5q-22 44 -25 91q-1 5 1.5 10.5t2.5 9.5l2 8q0 55 18 87l2 4q25 59 60 88.5t79 46.5l9 2q15 3 22 3h26l6 -1q28 -2 47 -14l1 -1q51 -30 68.5 -71t20.5 -96q1 -8 1 -25q1 -10 -4 -34.5t-5 -38.5l-3 -5q-1 -16 -11.5 -45.5t-12.5 -38.5
q-17 -47 -32 -74l-3 -4q-5 -10 -37 -62q-9 -16 -36 -39.5t-36 -34.5l-6 -5q-19 -16 -76 -39l-9 -2q-15 -6 -54 -8q-21 -2 -42 7t-32 27l-1 4q-6 12 -7 28q0 10 9.5 23.5t21.5 13.5q16 1 32 -9t12 -36q-4 -30 -34 -30q-15 0 -18 2q16 -21 59 -19q21 0 38 7l9 5q1 1 7 4t9 5
l4 4l18 17l3 5q19 19 38 49q4 7 11 17.5t13.5 20.5t14.5 22q46 110 58 153q2 6 3 12.5t3 9.5q2 9 6 20t5 14q1 6 1.5 14.5t2 20t6.5 28.5v5q5 21 3 49l-2 29q-1 29 -10 57l-3 5q-4 18 -26 35l-9 5q-7 4 -23 4h-7l-3 -1q-16 -3 -26 -10l-5 -2q-22 -14 -45 -49l-3 -6
q-2 -4 -13.5 -24.5t-15.5 -29t-10 -25t-8 -31.5q-3 -9 -7.5 -41t-2.5 -56l2 -25q8 -40 26 -58.5t38 -18.5z" />
    <glyph glyph-name="colon" unicode=":" horiz-adv-x="150" 
d="M43 62q12 -2 15.5 -6t6.5 -18q0 -14 -9 -23.5t-17 -12t-12 -2.5q-9 0 -18 6.5t-9 15.5q0 14 12 27t31 13zM103 322q12 -2 15.5 -6t6.5 -18q0 -14 -9 -23.5t-17 -12t-12 -2.5q-9 0 -18 6.5t-9 15.5q0 14 12 27t31 13z" />
    <glyph glyph-name="semicolon" unicode=";" horiz-adv-x="150" 
d="M103 322q12 -2 15.5 -6t6.5 -18q0 -14 -9 -23.5t-17 -12t-12 -2.5q-9 0 -18 6.5t-9 15.5q0 14 12 27t31 13zM-2 22q0 7 1 12l1 5q0 11 8 17q9 7 18 7q4 0 5 -1q30 -7 30 -37q0 -19 -13 -47q-14 -26 -34 -42q-1 0 -14 -9t-18 -9q-1 0 -1 4v1q0 3 4 6.5t9.5 6.5t6.5 4
q27 20 36 37q5 10 7 27v4q-4 -1 -7 -2l-4.5 -1.5l-3 -1t-3.5 -0.5q-9 0 -18 5.5t-10 13.5z" />
    <glyph glyph-name="less" unicode="&#x3c;" horiz-adv-x="400" 
d="M131 233l-4 -5q5 -6 23 -17l30 -18l78 -55q3 -2 11.5 -9t14.5 -10q1 0 3 -2q5 -2 1 -7q-4 -6 -8 -3q-12 8 -19 11q-3 2 -11 9.5t-13 10.5l-72 48q-8 6 -24 16l-24 15q-13 7 -3 19l4 5q45 36 52 40q11 6 29 20t21 16t36 26l8 6q6 5 15 9q2 2 5 1t4 -4q2 -4 -4 -8l-28 -21
q-58 -41 -64 -46q-10 -7 -30 -23t-31 -24z" />
    <glyph glyph-name="equal" unicode="=" horiz-adv-x="400" 
d="M77 271q-10 10 0 17q146 0 251 -5q8 -8 1 -16q-32 0 -126 2t-126 2zM70 192q-10 10 0 16q31 0 125.5 -2t125.5 -2q9 -7 1 -17q-32 0 -126 2.5t-126 2.5z" />
    <glyph glyph-name="greater" unicode="&#x3e;" horiz-adv-x="400" 
d="M272 228q0 1 -4 5q-8 6 -28 22.5t-32 24.5q-7 5 -29.5 21t-35.5 25l-28 21q-5 5 -3 8q2 7 9 3l15 -9q5 -5 7 -6l37 -26q42 -31 49 -36q23 -15 52 -40q3 -2 5 -5q9 -12 -3 -19q-8 -5 -24.5 -15.5t-24.5 -15.5l-71 -48l-25 -20l-18 -11q-4 -3 -8 3q-5 5 1 7q2 2 3 2
q4 2 26 19q63 44 77 55q17 9 30 18q18 11 23 17z" />
    <glyph glyph-name="question" unicode="?" horiz-adv-x="375" 
d="M220 618l-1 -1h8q44 0 79 -23q21 -13 41 -43q1 -1 4.5 -6t5.5 -8.5t5 -10.5t5 -13.5t3.5 -17t1.5 -21.5q0 -2 -0.5 -7t-0.5 -7q0 -7 1 -9q-10 -62 -29 -87q-3 -10 -21.5 -29t-48.5 -38q-1 0 -14 -8.5t-30 -13.5q-4 -3 -26.5 -16.5t-47.5 -33.5q-7 -5 -18.5 -22.5
t-24.5 -28.5q-24 -48 -29 -52q-4 -4 -6 2q4 17 8 28.5t11 26t11 24.5q31 47 51 63q11 8 23 21t21 20q9 15 28 26q1 1 50 57q37 59 37 105t-26 79.5t-79 33.5q-8 0 -43 -7q-1 -1 -22 -10q-2 -2 -2 -4q-2 -2 -6.5 -7.5t-7.5 -7.5q-16 -18 -19 -29q-1 -3 -2.5 -6.5t-2.5 -6
t-2 -4.5q0 -4 -1 -5q-4 -14 -4 -18q0 -1 -1.5 -6.5t-1.5 -7.5q-2 -7 -2 -32q0 -4 1.5 -8.5t1.5 -7.5q6 -10 21 -10q12 7 9 13q-1 7 -9 7q-4 -2 -5 -1q-3 -2 -3 1l1 3q9 3 13 2q9 -7 12 -17q0 -5 1 -6q0 -11 -7 -18q-6 -6 -9 -6q-10 -8 -23 -4q-22 6 -32 18q-2 2 -3.5 7
t-3.5 8q-9 23 -5 42q0 5 6 19q7 19 8 23q8 13 8 14l10 12l14 20q6 6 19.5 15.5t41.5 22t54 12.5h4zM52 -7l1 -1q-8 2 -9.5 2t-5.5 2.5t-5 7l-3 13.5q0 9 4 16.5t9 11t10.5 6t9.5 3.5l4 2q24 -9 28 -20q1 -1 1 -3q0 -19 -14.5 -29t-29.5 -11z" />
    <glyph glyph-name="at" unicode="@" horiz-adv-x="630" 
d="M352 125q1 2 3 8t4 9l2 12q9 24 9 25q2 4 4.5 11.5t4.5 11.5q1 2 2 5t1.5 5t1.5 4t2 3q6 15 8 17q1 2 7 2q5 -2 16 -4.5t15 -3.5q12 -4 12 -5q3 -7 -1 -11q-7 -19 -10 -26l-8 -20q-5 -6 -6 -15l-4 -10q-1 -2 -8 -21l-8 -25q-5 -20 -5 -27v-16q0 -6 3 -11q10 -13 34 -7
l13 3q10 3 33 17q14 10 22 18q16 13 19 18l2 2q12 12 16 23q17 36 23 60q9 40 9 102q0 37 -5 56q-8 30 -25.5 49.5t-50.5 42.5q-48 16 -74 16q-37 0 -57 -4l-48 -12q-83 -20 -168 -107q-15 -15 -24 -30q-32 -40 -47 -89q-7 -18 -12 -62q0 -41 6 -59q1 -3 6 -26.5t11 -36.5
q4 -8 9 -21.5t10.5 -24.5t13.5 -19q29 -29 63 -56q14 -10 49.5 -19t58.5 -9q63 0 95 10q52 25 58 29q14 7 36.5 24.5t27.5 21.5q1 1 8 9.5t14 12.5q2 1 3.5 -1t0.5 -4q-25 -35 -81 -70q-18 -11 -35.5 -19.5t-25.5 -11.5t-33 -10.5t-32 -9.5q-30 -6 -34 -6q-60 0 -111 14
q-10 3 -20 10q-42 19 -47 26q-49 53 -59 69q-39 62 -39 165v15q1 14 1 36q0 24 16 64q7 17 34 62q49 76 137 118.5t184 42.5q55 0 81 -13q4 -2 12.5 -6t15.5 -7.5t13 -8.5q4 -4 13 -10t13.5 -10t11 -10.5t11.5 -13.5q22 -28 25 -41q12 -63 12 -67q0 -46 -6 -79
q-8 -45 -12 -50q-17 -52 -51 -81v1l-4 -4l-17 -9q-17 -10 -26 -15q-14 -8 -40 -17q-19 -8 -55 -8q-19 0 -31.5 15t-8.5 44q-2 -2 -8.5 -11t-10.5 -13q-12 -13 -44 -30q-15 -5 -25 -5q-19 0 -34 14t-22 34q-7 26 -7 51t2 32q1 20 7 41q0 2 2 6.5t2 6.5q2 5 5.5 13.5t6 13.5
t6.5 11.5t9 11.5q23 31 35 41q48 38 100 39q49 1 72 -26q10 -18 10 -37q0 -1 -0.5 -7.5t-2.5 -10.5q-1 -1 -5 -1q-7 2 -6 6q0 1 3 9t2 14q-1 27 -34 41q-19 5 -40 -1q-34 -19 -53 -44q-33 -40 -43 -73l-6 -22q-9 -34 -9 -71q0 -25 6 -40q10 -21 31 -21q19 0 33 19
q13 16 23 34q5 12 8 25z" />
    <glyph glyph-name="A" unicode="A" horiz-adv-x="453" 
d="M493 181q2 3 4.5 2.5t2.5 -4.5q-4 -5 -5 -9q-1 -1 -1 -3q-24 -43 -52 -81q-22 -30 -32 -40q-23 -23 -32 -29l-19 -12q-22 -10 -38 1q-9 5 -18 17q-11 15 -17 32q-1 1 -2 4l-3 12q-2 8 -2 11l-3 26q-2 -2 -3 -5q-4 -4 -8.5 -12.5t-8.5 -12.5q-2 -4 -7.5 -9.5t-8.5 -9.5
q-23 -23 -53 -41q-10 -7 -39 -14q-21 -5 -37 2q-4 1 -11 2t-11 3q-12 4 -34 14l-7 7l-10 9q-8 6 -12 10q-10 11 -16 28l-4 11q-7 11 -10 27q-1 5 -3 16t-3 16l-2 21q-2 18 -2 25v22q0 2 2 16q2 9 1 10q0 17 4 32q1 5 2.5 13.5t3.5 13.5l3 10q1 3 5.5 20.5t8.5 26.5
q9 26 16 36l4 10q4 15 15 32q1 2 2.5 5.5t3.5 5.5l-2 3q-8 6 -19 17q-14 14 -20 34q-3 7 -1 17q1 4 2 7.5t1 5.5l8 24q2 4 9 16q12 16 30 27q4 3 12 4q10 1 21 -5q12 -5 6 -18q-3 -9 -9 -18q-2 -3 -12 -11q-2 2 -1 4l4 3q1 1 9 14v2l1 2v4q3 8 -5 11q-15 6 -24 2
q-13 -7 -22 -19q-12 -14 -20 -36q-1 -4 -2 -13t-3 -13q0 -6 1 -8q8 -21 10 -23q1 -2 8 -9q5 -6 11 -11l9 -7q1 1 5 6t6 8l16 20l3 3q6 6 9 11l4 5l21 23q9 8 19 13l20 14q3 3 33 20q2 1 6.5 4t8 5t6.5 3q18 9 24 11q2 2 7.5 3t7.5 2q1 1 3 2q1 1 3 2l23 8q34 9 38 10
q11 3 32 5h33q2 0 17 -3q24 -6 33 -14q13 -13 13 -28q1 -16 -9 -46q-7 -14 -16 -23q-1 -2 -4 -4t-5 -3q-22 -17 -38 -24l-20 -10q-13 -9 -32 -15l-36 -15q-1 0 -6.5 -2t-9.5 -3q-11 -6 -21 -8q-9 -2 -25 -6.5t-19 -5.5l-16 -3q-17 -4 -45 -4q-4 0 -11.5 0.5t-12.5 0.5
q-1 1 -6 -1q-1 -3 -4 -8t-5 -9.5t-3 -9.5l-3.5 -10.5t-4.5 -11.5t-5 -12t-5 -12l-3 -11l-3 -9q-2 -3 -3 -8.5t-2 -9.5q-6 -18 -7 -30q-1 -8 -2 -23t-3 -23q0 -4 0.5 -12.5t0.5 -12.5q0 -20 -1 -31q0 -15 1 -23q2 -5 4 -25q0 -10 1 -13q2 -19 4 -23l1 -2q2 -2 2 -3l9 -21
l3 -4q4 -6 12.5 -14.5t12.5 -13.5q11 -11 33 -11q8 0 16 2q22 7 30 12l1 1h1q4 4 15 11q4 3 11.5 8.5t10.5 9.5q8 8 22 26q1 3 18 29q2 8 2 10q0 3 0.5 11t0.5 12q-1 16 5 42v2q-1 9 4 21l15 63q5 13 6 17q4 10 4 13q4 14 7 21l4 14q1 4 3 11.5t4 11.5l3 6q3 13 4 15
q1 3 11 31q6 12 16 18q15 9 35 14h1q6 3 25 3q5 -2 5 -5q3 -5 0 -11l-15 -33l-14 -28q-2 -4 -7 -15.5t-7 -17.5q-1 -8 -5 -17l-9 -27l-15 -55q-1 -4 -2.5 -13t-3.5 -13q-2 -10 -13 -43q0 -2 -1 -4v-3l-8 -34q0 -6 -1 -9q0 -2 -2 -16q0 -1 -1 -3.5t-1 -4.5q-2 -16 -2 -24
q-2 -15 0 -29q1 -10 5 -19q1 -5 6 -10t11 -5q10 0 19 4q11 3 18 10l33 31q3 4 11 14t12 16q12 18 25 38t19 30l6 10q0 3 7 13zM150 468l-13 -20l-13 -23q2 -1 7 -1q3 -1 15 -1q19 -1 45 4q17 3 41 9q14 4 31 10q13 3 30 11l4 2q5 1 9.5 3t10.5 4.5t10 3.5q2 1 7 4t9 4l26 13
q2 1 6 2t6 3q4 3 13 9t14 10l14 10q17 22 20 52q2 18 -5 26q-4 6 -10 10q-10 7 -23 7q-18 0 -30 -4q-2 0 -5.5 -1.5t-6.5 -2.5q-9 -4 -25 -8.5t-19 -5.5q-6 -2 -12 -5t-12.5 -6t-10.5 -5q-3 -2 -10 -5.5l-11 -5.5l-37 -25l-10 -8l-4 -4l-12 -9q-2 -2 -7 -6.5t-9 -8.5t-7 -8
q-5 -5 -15 -19q-5 -5 -10 -13q0 -1 -1 -2z" />
    <glyph glyph-name="B" unicode="B" horiz-adv-x="480" 
d="M-70 12q-15 -1 -33 5q-17 6 -11 22q6 13 21 7q2 -2 2 -5q-2 -2 -5 -2h-4q-4 1 -6.5 -1.5t-0.5 -7.5t5 -6q2 0 8.5 -1.5t10.5 -1.5h10q15 -1 30 12l10 12l19 28q8 13 15 35l8 25q8 22 9 28q0 1 1 2q0 8 10 38q1 3 4 13q5 12 6 23l10 25l8 28q1 4 3.5 10.5t4.5 12t4 10.5
q3 7 5 17q1 8 7 24l9 23l12 32q2 11 5 16l7 17q2 3 3.5 10t3.5 10q3 6 8.5 19.5t9.5 19.5q4 5 8.5 13t7.5 13l9 15q6 8 18 17q13 6 32 11q29 7 48 6q9 0 12 -1q6 -2 3 -8q-2 -5 -6 -8q-4 -2 -16 -12q-7 -4 -29 -26l-21 -24q-11 -15 -26 -45q-9 -14 -26 -54q-4 -7 -9 -20
t-8 -21l-2 -9q-2 -14 -4 -19l-3 -13l-8 -25q-1 -7 -5 -20.5t-5 -21.5q-6 -16 -7 -25q-7 -25 -16 -45l-13 -30q0 -1 -1 -3l-6 -14q-4 -14 -11 -30q-2 -5 -8 -13q-5 -7 -11.5 -18.5t-9.5 -15.5q-4 -8 -12 -13h-1l-1 -1q-11 -12 -18 -16q-2 -2 -12 -10q-1 -1 -3 -1q-1 -1 -2 -1
q-2 -2 -22 -9q-9 -4 -25 -2zM231 323q-2 1 -5.5 2t-5.5 3l-9 3q-5 0 -12.5 0.5t-11.5 0.5q-5 0 -11 -3q-11 -5 -13 -7q-7 -2 -10 -8q-6 -6 1 -13q8 -8 18 -5l18 6l9 3l12 6q2 2 5 3.5t6.5 3.5t5.5 3q1 0 3 2zM92 457h3q-3 -3 -6 -4q-7 -5 -16 -7q-3 -3 -11 -5l-6 -1h-1l-1 1
q-11 -2 -18 1q-8 3 -23 5q-4 1 -8 7l-8 11q-7 15 -1 32q4 13 18 27q7 5 9 11l2 2q31 31 39 37l20 13q2 2 5.5 4t5.5 3l22 13l8 3l24 9l33 8q3 2 16 2l24 3h7h9h11h21q5 0 32 -2q19 -3 22 -4q7 -2 19 -5.5t17 -4.5l20 -10l11 -7q8 -3 15 -10q5 -4 21 -22q11 -15 19 -39
q0 -1 0.5 -5t0.5 -6q0 -29 -2 -39q-10 -32 -21 -45q-2 -2 -10 -11t-13 -13q-3 -4 -11 -11t-12 -11l-3 -2q-14 -7 -24 -17q-4 -3 -10 -8t-7 -6q-3 -2 -13.5 -8t-15.5 -10q-2 -2 -6.5 -4t-6.5 -3l-2 -2q1 0 3 -2q23 -8 31 -12q3 -1 6.5 -3t6.5 -4.5t5 -3.5l33 -24
q10 -6 14 -15l5 -5q8 -7 15 -27q5 -9 6 -19q8 -26 5 -40q0 -6 1 -7v-7l-3 -14q-3 -16 -10 -29l-12 -26q-3 -4 -8.5 -13.5t-9.5 -13.5q-4 -3 -9 -9.5t-8 -10.5q-12 -10 -15 -11l-22 -14q-5 -4 -16 -7q-3 -1 -38 -9q-20 -5 -41 -3q-21 0 -33 1q-14 0 -22 4q-9 4 -23 7
q-9 4 -16 9q-17 12 -19 14q-22 16 -30 46v22q2 13 14 23q8 9 31 14h2q3 -2 3 -4t-3 -3q-1 0 -2 -1q-15 -1 -30 -16q-4 -3 -6 -12q0 -15 1 -22q1 -11 10 -25q2 -2 5.5 -6t6 -6.5t5.5 -4.5q16 -14 34 -17h6q1 0 3 -0.5t4 -0.5t5.5 -0.5t4.5 -0.5q14 0 26 4q21 3 26 5q8 1 13 6
q15 6 17 8l14 10q2 2 3 2q7 2 23 21q3 6 10.5 16t11.5 15q10 14 19 40q0 1 1.5 4.5t2.5 5.5l2 5l3 20v11v2q1 7 -2 20q-1 6 -7 23l-2 3q-12 19 -18 26q-4 3 -10 9t-11 10.5t-11 6.5q-12 9 -22 13q-10 6 -15 6l-3 1q-3 0 -4 -1q-4 -2 -10.5 -3.5t-9.5 -3.5q-6 -2 -38 -13
q-1 0 -9.5 -1.5t-13.5 -1.5q-9 0 -17 5l-2 2q-7 10 -2 22q8 10 15 14q20 9 32 9q12 2 24 0q1 0 34 -3q7 0 10 4q8 8 26 24l6 6q4 6 11.5 14.5t11.5 13.5q6 6 7 10q9 9 16 23q13 22 14 27q8 15 15 34q1 3 3 10.5t3 11.5q0 1 0.5 4t0.5 4q6 13 6 35q0 9 -3 15v1q0 5 -2 8.5
t-4.5 7.5t-3.5 6q-3 4 -10 10t-9 8q-1 1 -8 3q-30 6 -47 7q-2 0 -6 0.5t-7 0.5q-10 1 -19 0q-7 0 -42 -7q-4 -1 -13 -3.5t-13 -4.5q-18 -6 -29 -14l-4 -2q-16 -8 -30 -18q-13 -10 -25 -22l-19 -22q-8 -8 -18 -24q-2 -2 -3.5 -7t-2.5 -8l-3 -4q-5 -8 -5 -20q0 -15 11 -18
q5 -1 6 0q4 2 11 3.5t10 2.5z" />
    <glyph glyph-name="C" unicode="C" horiz-adv-x="384" 
d="M431 179q-2 -3 -4 -8t-4 -7l-3 -5q-11 -19 -13 -22q-11 -21 -34 -53q-28 -40 -50 -58q-27 -21 -50 -31q-33 -12 -94 -6q-48 4 -89 30q-9 5 -20 16q-2 2 -7.5 6t-6.5 5q-5 6 -11 11q-6 8 -18 22q-13 15 -20 46l-9 28q-4 9 -11 43q0 2 -3 75q-1 15 8 61l9 27q0 1 1 3
q3 19 14 43l16 34q11 24 23 41q2 5 10 18q2 5 5 9t7.5 9t7.5 9q2 3 33 31q5 5 11 7q1 0 4 3l12 9l19 12l20 10q25 11 27 12q24 8 32 10q1 0 5.5 0.5t6.5 0.5q1 1 13 3h4q6 0 18 0.5t17 0.5q16 0 25 -1q10 0 17 -1q20 -2 34 -13q9 -9 16 -14q8 -10 11 -18q7 -15 10 -32
q6 -23 -9 -42q-3 -4 -11 -22t-14 -23q-5 -6 -13.5 -14t-11.5 -11l-33 -31q-15 -15 -17 -16q-13 -10 -14 -11q-5 -3 -14 -5t-13 -6q-6 -3 -18 -5t-15 -3q-9 -3 -23 3q-14 8 -14 24q-2 13 5 25q2 4 5 8.5l5 7.5q16 21 29 32q3 3 7 2q3 -1 2 -5q-1 -3 -4 -4q-2 -1 -11 -12
q-7 -7 -17 -21q-10 -13 -12 -32q-1 -9 6 -16q13 -5 22 -2q3 1 12 1.5t13 3.5q2 1 5.5 2.5t5.5 3.5q5 3 13 6t14 6.5t11 8.5q11 8 31 28q12 12 15 16q3 3 10.5 9.5t12.5 11.5t8 12q15 34 18 38q7 12 5 29q-5 26 -13 38q-9 10 -22 15q-15 4 -40 4q-13 1 -31 -5q-6 -2 -8 -2
q-19 -5 -30 -10q-8 -3 -19.5 -10.5t-19.5 -11.5q-19 -11 -22 -14q-16 -10 -26 -18q-8 -6 -20 -23q-3 -5 -17 -19q-13 -14 -16 -27q-1 -2 -3 -7t-4 -7q-7 -17 -12 -24q-1 -3 -4 -8t-5 -8q-2 -2 -2 -3q-1 -3 -4.5 -13t-4.5 -16q-2 -16 -6 -32q-4 -11 -6 -27q-3 -12 -5 -40
q-1 -7 -1 -20v-9v-16q2 -6 2.5 -16.5t1.5 -16.5q2 -5 4 -14.5t3 -14.5l3 -15q2 -17 4 -21l4 -14q3 -13 13 -26q7 -11 25 -27q4 -4 12 -9.5t11 -8.5l12 -6q1 0 13 -5q14 -6 24 -7q10 0 20 -3q14 -4 57 3q51 9 88 60q10 15 36 58q2 3 4.5 7t5 7.5t2.5 4.5l8 14q1 3 3 4.5
t3.5 0t1.5 -4.5z" />
    <glyph glyph-name="D" unicode="D" horiz-adv-x="539" 
d="M253 531h7l2 -2q4 -5 -1 -12q-2 -2 -5 -9q-4 -10 -9 -15q-2 -6 -2 -7l-3 -12q-2 -5 -5 -13.5t-4 -14.5q-8 -29 -9 -32v-1q0 -1 -1 -2q0 -2 -1 -4.5t-2 -4.5t-1 -3q-3 -5 -5 -14q-2 -2 -3 -5.5t-2 -5.5q-2 -2 -4 -8q0 -1 -2 -9q-2 -3 -3 -8.5t-2 -8.5q-2 -3 -3 -8.5
t-2 -8.5q-2 -4 -4.5 -13t-3.5 -13q-2 -5 -4 -18q-1 -1 -1 -5q-2 -2 -3.5 -7.5t-2.5 -7.5q-1 -1 -1 -9l-1 -6q-3 -14 -5 -19q-1 -3 -4 -17l-4 -10q-3 -5 -5 -13q-2 -3 -4 -12q-1 -7 -9 -30q-1 -1 -4 -14l-3 -10q-2 -8 -5 -16q0 -1 -1 -2q-3 -6 -8.5 -21.5t-9.5 -23.5
q-2 -2 -3 -5.5t-2 -5.5q-5 -12 -21 -36q-11 -11 -16 -13l-2 -2q-15 -12 -38 -12h-2q-28 6 -39 12q-11 7 -16 27q0 9 5 16q3 5 10 6t12 -4q3 0 3 -5q2 -4 -2 -5t-6 2q-1 4 -6 4q-5 -2 -6 -5l-2 -7q0 -7 5 -15q6 -8 15 -5q2 0 6 2q1 0 1.5 0.5t1.5 0.5q11 8 17 18q14 24 17 37
q1 6 4 9q0 1 1 2q0 4 7 20l2 11l6 14q3 6 5 14l3 12t4 12l10 34l2 9q0 3 2 13q1 1 1 4v3q3 3 5 15q1 5 7 22l3 16q2 3 3 9t3 10q6 21 9 35q0 2 3 14q2 5 4 14.5t3 13.5l12 46q1 4 3 11.5t4 11.5l8 25q1 2 2 6l4 11q-1 0 2 3q2 18 12 31q1 1 4 10q3 7 11 7q18 0 27 1
q2 0 6.5 0.5t5.5 0.5h23zM242 609v1q-38 -3 -40 -3q-14 -2 -25 -6q-5 -2 -26 -11q-7 -2 -25 -14q-11 -6 -17 -15l-13 -11l-12 -11q0 -1 -1 -1q-6 -5 -13 -20q-8 -10 -13 -26q-1 -3 -2.5 -7t-1.5 -6q-5 -13 -3 -30q0 -11 1 -18q3 -17 4 -18q0 -8 8 -14q8 -7 18 -3.5t12 12.5
l2 7q2 4 5 2q3 0 2 -4q0 -15 -12 -22q-11 -8 -25 -6q-1 1 -5 1q-16 0 -37 14q-1 3 -6 6q-10 9 -18 23q-6 11 -8 27q-2 14 -2 16v17v1q1 2 4 17l2 4t1.5 3.5l1.5 4.5t2 5l8 16l8 11q8 7 15 18q9 11 33 27q5 3 24 13q25 9 32 11q9 4 23 4q17 2 25 5h4l47 2h2q6 -2 18.5 -3
t18.5 -2l36 -10q2 0 3 -0.5t3 -0.5q2 -1 6.5 -3t7.5 -3q22 -9 23 -10l22 -9l14 -10l10 -7l16 -12l13 -12l5 -5l14 -12l6 -5q4 -4 9.5 -13t9.5 -13q2 -1 3 -4t3 -5q5 -5 14 -23q12 -27 17 -45l4 -12q7 -27 7 -31q0 -3 1 -8t1 -7q1 -1 1 -4q0 -5 0.5 -13.5t0.5 -12.5
q0 -2 0.5 -6.5t0.5 -6.5q0 -19 -3 -40q-2 -20 -5 -30q-1 -8 -4.5 -21t-5.5 -21q-10 -27 -24 -52q-7 -16 -16 -26q-2 -2 -4 -6l-3 -6q-2 -3 -7.5 -9t-7.5 -10q-2 -2 -2 -4l-13 -14q-15 -15 -17 -16l-3 -4l-8 -9q-2 0 -2 -3l-5 -5l-16 -10q-2 -1 -6.5 -4.5t-6.5 -5.5
q-6 -4 -13 -5l-6 -2q-3 -1 -16 -9q-7 -3 -13 -3l-15 -3l-19 -3q-2 0 -7 0.5t-9 0.5q-2 0 -4 -0.5t-4 -0.5q-28 0 -48 5q-6 1 -18 6q-2 1 -5.5 2t-5.5 3q-14 6 -23 18q-8 6 -9 19q-2 22 4 31q14 29 35 34q4 2 16 4q8 2 16 -5q5 -4 4 -8q0 -3 -3 -5q-3 0 -5 3q-1 8 -11 7
q-23 -2 -35 -18q-1 -1 -5 -8t-6 -11q-5 -14 0 -26q2 -9 13 -14q16 -9 39 -14q13 -2 22 1q11 0 25 8q7 2 13.5 5.5t14.5 8.5t12 7q5 2 6 5l23 23q1 1 4 3t4 3q5 7 17 19q2 2 7 8t7 10t6 8t5 6l19 32q9 18 23 52v2l1 1q1 3 2 8t3 8q4 9 4 21q1 3 2 9t2 9q4 12 4 29q-1 2 1 9
q4 9 2 29l-2 21v12t-2 16q-3 10 -3 24q1 6 -2 18l-2 8q0 8 -4 17l-5 14q-4 10 -4 13q-3 9 -3 11l-6 16l-9 19q0 1 -1 2t-2 2.5t-1 2.5q-7 11 -16 20q-3 2 -8 6.5t-9.5 8t-9.5 6.5l-22 10l-15 3t-15 4q-13 4 -26 6h-17z" />
    <glyph glyph-name="E" unicode="E" horiz-adv-x="395" 
d="M167 364l3 -2q16 -10 38 -10q24 0 24 10q0 7 -7 11.5t-14 4.5q-33 0 -44 -14zM152 428q2 -29 9 -41q16 4 33 4q18 0 33.5 -8t15.5 -22q0 -20 -33 -20q-29 0 -51 15q-1 0 -2 1q-3 0 -9 -8l-6 -6q-6 -7 -14 -19l-3 -5l-5 -5l-6 -10q-19 -26 -19 -36l-8 -25l-15 -48l-3 -14
q-4 -17 -4 -37q0 -31 4 -42q0 -9 4 -14v-5q0 -4 4 -12t4 -10q9 -31 36.5 -45.5t56.5 -14.5q4 0 9 1t9 1q2 1 24 3.5t37.5 6.5t35.5 16.5t31 31.5l19 29q11 24 11 45q0 2 -2 10l-5 14l-3 5q-13 15 -23 16q-1 0 -3 0.5t-3 0.5h-8q-19 -3 -23 -4q-9 -3 -17 -9q-24 -21 -25 -28
q-2 -3 -5 -3q-2 0 -4 2q-2 0 -2 3l1 2q0 1 1 3l12 14q20 23 62 29q30 0 43 -18t13 -41q0 -26 -7 -38q-3 -3 -4 -8l-9 -15l-10 -15q-2 -2 -10.5 -12.5t-16 -17.5t-11.5 -7l-7 -3q-51 -23 -105 -23q-52 0 -65 5q-3 1 -6.5 2.5t-5.5 2.5l-2 1l-14 4q-29 7 -42 19q-8 4 -11 7
q-14 10 -18 22q-2 0 -4 5l-6 7q-7 9 -14 25q0 1 -2.5 10.5t-5.5 26t-3 33.5q0 39 6 55l9 24q3 3 9 16t10 19q7 12 11 15q11 18 15 21l13 12q0 1 1 1t2 1l5 7q11 11 26 20q1 0 5 3.5t12.5 10t18.5 12.5q0 1 -1 2q-17 21 -23 62l-2 14q-2 14 -2 20q0 55 36.5 93.5t84.5 50.5
l10 2q20 5 35 5q123 -11 123 -90q0 -9 -3.5 -21t-19 -25t-39.5 -13q-10 0 -28 5t-26 17l-9 17q-1 1 -1 3q0 3 5 3q1 0 3 -1.5t3 -1.5q13 -33 54 -33q11 0 35 14l3 3q13 21 13 31q0 26 -21 39q-4 1 -11.5 6t-13.5 5l-16 3q-7 1 -24 1h-12l-34 -10q-4 0 -12 -6l-13 -7
q-26 -15 -47 -49l-3 -6q-17 -25 -17 -49q0 -1 0.5 -2t0.5 -3q-1 -4 -1 -13q0 -3 2 -17z" />
    <glyph glyph-name="F" unicode="F" horiz-adv-x="335" 
d="M325 295h-3q-27 1 -60 10l-15 8q-1 1 -4 2q0 -2 -3 -14l-4 -9q-7 -16 -9 -34q-1 -4 -2.5 -9.5t-1.5 -7.5q-14 -46 -15 -53q-3 -10 -9 -19q-1 -3 -2 -7t-3 -7q-1 -3 -6.5 -13.5t-7.5 -16.5q-11 -23 -15 -29q-11 -20 -26 -38l-9 -14q-12 -14 -27 -24q-7 -10 -20 -13
l-20 -10q-1 0 -3.5 -1.5t-4.5 -1.5h-20h-6q-17 0 -29 17q-4 9 -5 18q-1 8 5 18q4 3 5 8q7 10 17 9q2 0 4 -2q1 -1 1 -3q-1 0 -3 -1q-6 3 -16 -7q-7 -9 -5 -29q3 -10 11 -13q9 -1 23 1q3 1 8 6q6 4 14.5 13.5t11.5 12.5q1 2 3 4q0 2 2 3l21 34l9 15q6 8 8 13l12 27l19 44
q2 6 5 16l2 8q5 11 14 49l3 10q2 9 8 27q1 6 3 16.5t4 16.5q2 5 4 18q0 1 1 2q1 7 -6 11q-2 2 -5 3.5t-7.5 2.5t-6.5 2q-17 4 -39 4q-15 0 -23 -6q-8 -3 -10 -15q-2 -6 0.5 -8.5t9.5 -1.5l2 1q3 0 5 1q3 1 7 -1q2 -2 -3 -6q-11 -7 -22 -1q-11 5 -6 21q5 15 21 21q16 5 36 3
l17 -3q18 -2 33 -11q2 8 4 25t3 25l2 8l9 46l3 28q0 1 2 9q4 10 3 18q0 1 0.5 2t0.5 2l3 14q1 11 7 24q1 2 1.5 4.5t2.5 4.5q2 4 9 16q1 1 1 4q-3 3 -10.5 11t-13.5 13t-13 8l-9 6q-5 2 -30 9q-1 1 -11 1q-28 0 -43 -7q-14 -5 -26 -14l-3 -4q-18 -12 -29 -35q-7 -22 -8 -30
q0 -4 -1 -11t-1 -10t0.5 -8t0.5 -8l10 -33q0 -2 2 -3q2 -2 2 -3q5 -11 13 -14l13 -9q21 -8 39 4q16 10 24 28q3 8 1 23q0 6 -9 8q-15 0 -19 -6h-1q-1 -1 -5 -1q-2 1 0 6q7 7 10 8q6 3 17 1q16 -1 16 -18q4 -18 -13 -42q-11 -13 -22 -17q-12 -5 -21 -5q0 -1 -16 -0.5t-17 0.5
q-5 0 -6 1q-20 7 -28 15q-2 4 -9 7q-2 2 -8 8.5t-8 11.5q0 1 -1.5 3.5t-1.5 4.5q-13 24 -13 44q0 15 5 35q1 1 1 8q1 2 2 5.5t3 5.5q10 18 17 25q2 3 5 5q5 3 13.5 10.5t14.5 11.5q4 2 22 9q4 0 10 2q27 6 53 3q24 -2 39 -8q15 -3 28 -13q13 -6 35 -30l5 -4q2 3 3 3
q12 15 30 24q6 2 9 -1v-1q-1 -1 -1 -2q-8 -8 -11 -19q-1 -4 -2.5 -12t-3.5 -12q-1 -4 2 -6q0 -2 2 -2q1 -1 6.5 -5.5t8.5 -8.5q2 -1 19 -18q3 0 9 -6l19 -14q2 -2 5 -3t5 -2l21 -9q15 -9 30 -9h5q18 -1 41 11q19 10 25 36q2 10 2 12q0 13 -12 13q-11 0 -17 -7.5t-4 -17.5
q-2 -2 -6 2q-6 15 5 23q15 8 24 7q6 0 9 -3q11 -7 10 -22q-6 -24 -13 -32q-8 -11 -15 -15q-20 -13 -35 -14q-28 -4 -50 6q-4 2 -14.5 7.5t-16.5 7.5l-9 6q-1 1 -22 16q-3 4 -8.5 8t-7.5 6q-3 4 -9.5 9.5t-7.5 6.5l-5 4q0 -2 -1 -6t0 -6q0 -3 -2 -30q0 -2 -0.5 -7t-0.5 -8
q0 -25 -1 -37q0 -20 -1 -29l-3 -26q-2 -20 -5 -33q-1 -7 -3 -20t-4 -20q-2 -15 -3 -17q-2 -3 3 -6q20 -12 48 -17q11 -1 32 -1z" />
    <glyph glyph-name="G" unicode="G" horiz-adv-x="509" 
d="M250 -107q-25 6 -39 3q-12 -1 -31 -8l-14 -6q-12 -4 -22 -9q-2 -1 -5.5 -3t-4.5 -2q-9 -3 -32 -18q-15 -12 -16 -13q-17 -15 -31 -37l-15 -27q-3 -10 -5 -29q-1 -22 17 -36q9 -9 24 -12q7 -2 27 -2q14 0 24 10q3 2 5 5q5 3 22 22q20 21 28 37q13 16 22 31q6 7 9 15
q6 8 7 11q5 15 18 39q7 13 12 29zM155 443q1 -1 3 -2l4 -2l12 -7q11 -6 21 -10q6 -4 16 -5q4 -2 12.5 -4t12.5 -3q13 -3 38 -5q31 0 37 2h3q4 1 27 4l11 4l31 11q3 3 11 5q13 10 16 12q5 4 14.5 12.5t10.5 9.5l8 10q3 4 8.5 12t8.5 12l8 18q12 19 8 34l-3 18q-3 7 -11 21
q-4 7 -9 10q-2 0 -4 2q-12 12 -33 17q-12 3 -13 3q-27 0 -36 -3q-3 -1 -11.5 -3t-13.5 -4q-33 -14 -52 -27q-4 -5 -12 -9q-12 -7 -20 -15q-5 -4 -15.5 -12.5t-15.5 -12.5q-3 -3 -9 -8t-10 -9l-7 -9q-25 -31 -26 -32q-11 -14 -20 -35zM164 427l-13 8l-3 -3v-2q-7 -10 -16 -31
q-4 -8 -14 -24q-17 -38 -23 -73q0 -4 -1 -10.5t-1.5 -11.5t-0.5 -10q0 -3 -2 -13q-4 -11 -4 -28q-1 -7 -1 -19q1 -11 1 -29q7 -49 12 -64q1 -3 4.5 -11.5t5.5 -13.5q5 -13 17 -27q2 -3 11 -12q14 -14 23 -19q1 0 3 -2q1 -2 3 -2q3 -1 8 -3.5l7 -3.5q4 -2 8 -3t9.5 -2t9.5 -2
q1 0 16 2q29 5 46 18l33 20q4 2 18 17l2 5q3 17 15 42q4 8 16 48q11 29 16 54q2 6 4.5 17.5t3.5 15.5q5 25 16 46q5 6 13 6q3 0 20 2q7 1 23 5h5q9 -2 14 0q1 1 2 0q2 -2 3 -5t3 -4v-4q-2 -5 -5.5 -15t-4.5 -16q-8 -24 -10 -32q-2 -6 -7 -17.5t-6 -17.5l-10 -25
q-2 -11 -13 -36q-8 -22 -13 -33l-23 -61q-9 -26 -18 -46l-3 -10l-9 -21l-11 -36q-5 -6 -6 -13l-8 -20q-2 -3 -4 -9l-3 -9l-3 -8l7 -7q6 -3 12 -9l3 -3q2 -4 7.5 -8t6.5 -5l12 -13q10 -11 17 -24q0 -1 0.5 -2t0.5 -2q1 -3 -1 -5q-4 -1 -5 1q-2 2 -3 4l-1 2q-2 2 -6 7.5
t-5 6.5q-7 7 -9 10q-26 28 -35 35l-2 2h-1l-3 3l-8 -14q-6 -10 -9 -17q-2 -4 -6 -11.5t-7.5 -13.5t-7.5 -11q-2 -5 -14 -22q-6 -9 -17 -21q-13 -17 -24 -26l-18 -18l-1 -1q-3 -2 -8.5 -5.5t-9.5 -4.5q-10 -6 -30 -11q-3 -1 -11 -3t-11 -3t-8.5 -2t-7.5 -3q-14 -2 -18 -2
q-21 0 -30 3q-17 3 -26 16l-7 9q-6 9 -9 21q-5 23 4 41q6 16 11 25q2 3 8.5 11.5t10.5 13.5q1 1 11 15l12 11q18 14 29 21q13 8 18 10q45 19 55 21q13 4 27 6q13 3 29 -1l11 -2q3 -2 5 3l9 23q21 53 25 64l9 24t10 24q3 6 4 14q-2 -2 -3 -2q-5 -3 -14 -9t-14 -10l-9 -7
q-22 -10 -33 -17q-26 -11 -54 -8h-8t-8 1q-10 3 -29 5q-18 4 -37 17q-11 6 -19 10q-9 6 -23 20q-5 3 -17 22l-8 11q0 2 -2 2q0 2 -1 3l-11 19q-4 10 -6 24q-2 5 -3 14.5t-3 14.5q-3 24 -3 26v38q0 2 1 3q2 8 4 22t3 22q7 40 16 67q8 23 17 43q3 9 11 25q1 2 4.5 7.5t5.5 9.5
l20 34q7 7 11 18q-6 6 -7 8q-3 4 -19 29q-5 11 -7 33q0 27 1 31q5 18 16 33q2 4 5 8q10 18 31 29q15 5 26 1q14 -6 11 -22q-4 -14 -16 -26l-3 -3q-3 -2 -6 1q-1 3 0 4l4 4q10 17 11 20q7 14 -9 15q-12 2 -23 -6q-12 -9 -20 -22q-6 -10 -10 -15q-2 -5 -5 -15.5t-4 -12.5
q-3 -9 -1 -23q1 -4 2.5 -12.5t3.5 -12.5q4 -15 22 -37l3 -3l11 12q11 16 21 27q10 14 27 26l44 34q19 15 48 27l26 9q24 6 36 10q14 2 16 2q0 -1 0.5 -0.5l1.5 1.5q5 2 19 2q36 2 43 1q23 -2 43 -14l8 -6q0 -1 1 -1q12 -10 25 -38q5 -9 7 -30q0 -9 -5 -22q-4 -17 -15 -31
q-4 -7 -18 -25q-1 -4 -7 -8q-2 -2 -5.5 -6t-6.5 -7t-6 -5q-4 -4 -12 -9.5t-11 -8.5l-15 -8q-1 -1 -3 -1q-13 -2 -32 -11q-8 -3 -21 -5l-25 -2q-2 0 -6 -0.5t-6 -0.5q-1 0 -40 3q-6 1 -17.5 2.5t-17.5 3.5q-17 5 -38 14l-7 3.5t-7 4.5z" />
    <glyph glyph-name="H" unicode="H" horiz-adv-x="670" 
d="M407 509q0 1 1 1q13 6 22 13q12 5 21 15q3 2 6 5t6.5 7t5.5 6q23 32 24 37q2 3 3 6t2.5 7t2.5 6q3 15 -3 29q-2 9 -8 7h-10q-10 -2 -14 -8q-1 -2 -2.5 -4t-3.5 -4q-10 -8 -14 -21q-4 -7 -10 -19.5t-9 -18.5q-7 -15 -11 -32q-2 -3 -4 -9l-3 -9q-3 -8 -2 -14zM287 358
q-29 7 -48 6q-21 -2 -28 -15q-9 -10 -7 -29q2 -11 8 -19q4 -6 12 -6q10 0 13 1q5 2 5 -3q0 -4 -4 -5q-1 -1 -4 -1q-12 -2 -20 1q-5 1 -9 7l-8 16q-1 1 -1 5v16q0 15 11 26q2 2 4.5 4t5.5 4.5t5 3.5q1 0 2 1q28 5 57 -3l5 -2h3q14 33 36 112q-3 0 -4 1q-13 0 -22 4l-19 7
l-16 9q0 1 -1 1q-4 7 -12 17l-6 12q-5 8 -6 17q-4 17 2 39q1 11 6 21q1 6 7 12l17 17q16 13 37 16q6 2 14 0q12 -3 10 -18q-3 -11 -13 -15q-6 -2 -7 -2q-4 4 1 8q8 6 9 10v2l1 2q0 5 -5 5q-10 0 -12 -2q-21 -3 -31 -16q-3 -4 -7.5 -8.5l-6.5 -6.5l-1 -2q-2 -2 -2 -3
q-9 -19 -10 -25v-4q0 -4 0.5 -13t0.5 -15v-4l11 -25q3 -3 4 -3h1q1 -1 2 -3q12 -15 40 -23q1 0 9.5 -1.5t13.5 -1.5q2 3 3.5 8.5t3.5 8.5q8 14 8 24q1 4 6 13q3 6 8 17.5t9 17.5l10 20l10 11q2 3 7.5 9.5t8.5 10.5q21 17 34 22q18 8 32 12q13 1 26 -2l1 -1q9 -12 10 -16
q0 -2 1.5 -7.5t1.5 -9.5q3 -15 -11 -39q-3 -5 -23 -33q-9 -14 -29 -30q-2 -1 -9.5 -6t-12.5 -9l-21 -10l-3 -6q-3 -9 -12 -41q-2 -6 -2 -8q-7 -17 -8 -22l-2.5 -7.5t-3.5 -7.5l-10 -32l-4 -15h7h12q8 0 23.5 -0.5t23.5 -0.5q7 -1 22 -1h50h6q0 1 1 1q0 8 6 24q1 5 14 37
q2 5 7 13.5t7 13.5q4 9 18 31q4 4 10 13.5t9 14.5q2 2 12 16t16 22q12 19 16 23q13 13 18 21q16 16 19 18q2 1 3 2t3 2q13 13 36 18q10 3 22 1q7 -1 10 -7q-3 -6 -8 -11l-24 -26q-12 -16 -27 -33q-10 -13 -12 -16l-9 -14v-2l-24 -35q-7 -9 -16 -29q-3 -4 -8 -17
q-1 -2 -5.5 -7t-6.5 -9l-2 -3l-8 -18l-8 -16q-4 -14 -10 -28v-3h4h8.5h10h8.5q21 3 31 16q7 7 7 18q0 8 -9 8q-12 -1 -15 -14q0 -4 -1 -5q-1 -2 -2 -2.5t-2 0.5q-3 1 -3 4q5 26 27 25h2q11 -5 11 -17q0 -19 -18 -30q-10 -8 -22 -11q-1 0 -4 -0.5t-4 -0.5h-28q-4 0 -5 -1
q-2 -5 -4.5 -16t-3.5 -14q-2 -4 -3 -13t-2 -13q-3 -11 -5 -29l-3 -27q-1 -8 -2 -23.5t-3 -22.5v-16l2 -35l2 -33v-21l2 -36q0 -2 2 -4q0 -5 4 -10q1 -4 7 -6q1 0 3.5 -1.5t4.5 -1.5q15 -4 22 9q2 4 4.5 11.5t3.5 9.5q1 6 6 14q1 4 6 3q2 -2 2 -5t-1 -4l-9 -23q-2 -5 -12 -19
l-4 -5q-7 -7 -11 -8q-15 -6 -21 -3q-2 1 -8 3t-9 4q-4 3 -10.5 8t-9.5 9q-8 8 -13 18q-1 2 -2 5t-3 4q-8 11 -11 23l-10 43q-2 5 -2 27q-1 4 -1 12v12q-2 2 0 5q0 2 3 30q0 12 3 19v6q0 2 0.5 6.5t1 8t1.5 6.5l4 24l10 39q4 8 5 18q2 8 5 16h-3.5h-3h-3.5h-3q-9 0 -25.5 0.5
t-24.5 0.5q-6 0 -15.5 0.5t-13.5 0.5l-50 2l-6 -16q-13 -33 -15 -40q-2 -5 -6.5 -14.5t-5.5 -11.5q-3 -7 -4.5 -11.5t-2.5 -6t-2.5 -6t-4.5 -12.5l-13 -32q-4 -8 -12 -31q-3 -6 -8 -16.5t-9 -16.5q-3 -5 -8 -14.5t-7 -14.5q-5 -5 -6 -12q-2 -3 -6 -8.5t-6 -8.5l-3 -6
q-27 -42 -35 -50q-2 -2 -3.5 -5l-2.5 -5q-4 -3 -14.5 -13t-17.5 -14q-15 -10 -37 -15q-2 0 -5.5 -0.5t-4.5 -0.5q-21 -2 -36 1q-10 1 -16 5q-10 3 -19 9l-15 6q-1 0 -2 1q-26 19 -39 37q-17 31 -19 45t-2 17v13q-1 14 5 35q3 6 5 14q7 19 14 28q2 2 4.5 6t3.5 5q7 13 23 24
q7 6 17 11l5 4q15 11 46 20q11 4 29 2t30 -15q13 -22 9 -37q0 -5 -7 -14q-5 -5 -14 -3q-11 3 -15 12.5t1 19.5q1 4 5 4q3 -1 3 -5q0 -2 -1 -3v-1q-5 -11 7 -18q6 -3 9 2v5q0 17 -7 25q-4 6 -14 8q-18 0 -36 -9l-1 -1h-1q-24 -21 -25 -22q-4 -7 -14 -16q-4 -6 -10 -21
q-3 -6 -13 -38q-1 -3 -1 -8q-2 -9 0 -38v-3q0 -17 2 -22q1 -11 9 -35q8 -14 15 -19q3 -4 20 -14q6 -4 12 -5q19 -5 40 3q12 5 17 10q12 10 21 24l21 31q2 2 3.5 5.5t2.5 5.5q3 6 20 42q7 11 23 53q1 3 3 9.5t3 10.5q2 9 6 16q3 4 6 14t3 11q1 2 2 7.5t3 7.5q6 22 7 34
q2 8 6 23.5t7.5 28t7.5 23.5q2 3 3.5 8t2.5 8z" />
    <glyph glyph-name="I" unicode="I" horiz-adv-x="365" 
d="M342 597l1 1h1q2 0 3 1q2 1 8 3t11.5 4.5t9.5 4.5q25 11 30 33q2 6 -2 10q2 6 -8 9q-14 -3 -22 -14q-8 -15 -18 -27l-6 -9zM329 557l-15 -55q0 -4 -2 -17t-2 -20q-1 -14 -7 -49l-2.5 -15t-1.5 -13q1 -7 -0.5 -19t-1.5 -16q-1 -1 -1 -6q0 -1 0.5 -7t-0.5 -6q-2 -6 -3 -17
t-2 -16q0 -4 -1 -11.5t-1.5 -13.5t-0.5 -11l-2 -8q-2 -10 -2 -13q-2 -11 0 -22l-3 -10q-4 -9 -2 -14l-4 -20q-6 -24 -8 -30q-11 -24 -11 -25q-9 -24 -15 -34q-5 -7 -9 -16q-8 -14 -11 -17l-6 -7q-2 -3 -16 -17l-2 -2q-9 -6 -10 -8q0 1 -3 -2q-9 -11 -19 -15q-3 -2 -8 -4.5
l-7 -3.5l-6 -2t-5.5 -2t-3.5 -2q-9 -3 -16 -3h-2q-5 -2 -10.5 -2.5t-12 -0.5h-10.5q-27 -2 -44 6l-9 6q-7 5 -21 19q-4 8 -10 24q-6 22 -3 36q0 14 6 26q7 19 30 22q17 0 22 -3q5 -1 6 -6q5 -3 0 -5h-6q-3 7 -11 5q-10 0 -17 -1q-16 -7 -19 -19q-6 -28 -1 -46q3 -14 4 -17
q5 -10 13 -19q11 -11 23 -15h1l2 -1q18 -3 34 2q15 5 34 24q2 3 8 8.5t8 9.5q7 9 10 10l1 1q2 0 3 2l13 20q3 6 10 19q10 18 11 20q4 7 10 23l12 40q-2 2 0 3q3 7 5.5 20.5t4.5 18.5q0 8 5 16l4 24l9 44v9q1 9 3 13l8 39q2 14 2 15q1 22 8 47l14 65q1 4 9 28.5t9 31.5l7 16
q6 17 6 19h-17q-2 1 -7.5 1h-6.5q-13 2 -20 1l-18 4q-7 1 -19 2.5t-19 3.5l-44 10h-16q-1 1 -5 1l-9 -1l-9 -2q-14 0 -23 -4l-12 -3q0 -1 -3 -1l-12 -5l-6 -4v1l-9 -8l-7 -4v1q-10 -16 -18 -24v1q-2 -3 -9 -19l-1 -4q-2 -18 7 -30q0 -3 4 -7l4 -6q3 -3 6 -4q6 -6 9 -7
q3 0 4 -1q15 -8 40 -6q17 2 32 7l10 7l4 1q1 0 12.5 7.5t16.5 14.5q0 2 3 3l-1 -1q3 3 6 0q2 -7 -2 -8q-4 -3 -11 -9.5t-10 -8.5l-17 -11q-1 0 -6 -2t-8 -2l-12 -4q-18 -5 -44 -3q-1 1 -4 1l-9 4q-2 0 -8 2q-13 10 -14 11l-7 5q-2 2 -2 7l-5 6q-5 13 -5 23q-3 15 7 37l14 16
l18 17q1 1 19 11q2 2 9 5t10 4h6.5t7.5 2q2 0 7.5 1t9.5 1h12q10 2 13 2q17 0 34 -4l39 -8q3 -1 10 -2t11 -3l19 -4h19h6.5t7.5 -2q4 1 8 0.5t7.5 -0.5t4.5 1q5 -2 7 6l4 8q0 2 6 8q0 1 3 4t3 5q3 5 8.5 10t7.5 8q14 14 23 17q23 10 25 10q7 2 18 0q2 -1 5.5 -2t6 -2.5
t3.5 -4.5v-4q2 -6 1 -7q2 -6 -2 -10l-5 -7l-4 -6q-8 -10 -19 -17q-8 -8 -14 -9l-10 -4q-4 -4 -6 -4l-8 -3q-2 -2 -7 -2q-3 -3 -6 -3l-2 -3q-1 -1 -2 -1q-1 -1 -4 -11.5t-3 -13.5z" />
    <glyph glyph-name="J" unicode="J" horiz-adv-x="435" 
d="M415 628l1 1h1q2 0 3 1q19 11 27 18q22 16 23 37q1 7 -3 10q0 7 -10 7q-13 -4 -20 -17q-7 -21 -12 -30l-4 -10zM336 486l8 44l8 42v8q1 1 1 4q0 6 1 10q0 2 0.5 4t0.5 4q0 3 1 4q-3 0 -9 -1t-8 -1q-10 -2 -14 -2q-6 0 -20 -2h-18h-19q-19 -1 -19 0q-30 2 -45 2
q-2 0 -16 -2h-2q-2 -1 -3 -1l-9 -3l-9 -2l-21 -8l-12 -5q0 -1 -2 -3l-11 -7l-6 -4v1l-7 -10l-6 -5v1q-9 -20 -14 -27v1q-4 -7 -6 -20v-4q2 -19 12 -28q0 -2 5 -7l5 -4q2 -3 7 -4q3 -3 10 -5q3 0 4 -1q15 -4 40 2q17 5 30 12l10 8l3 3q20 18 25 26q0 1 2 3v-1q1 3 5 2
q5 -6 0 -8q-4 -4 -9 -11.5t-9 -10.5l-14 -13q-12 -7 -14 -8l-10 -6q-15 -7 -44 -9q-1 -1 -4 -1l-9 2q-2 0 -8 2q-7 0 -16 7l-8 5q-3 3 -3 6l-6 5q-8 11 -9 22q-5 15 1 38l10 17l15 21q8 8 17 13q3 3 9.5 7.5t7.5 5.5q3 0 14 4l15 5l12 3q12 3 13 4q7 2 34 2q30 -2 40 -2
q3 0 10 -0.5t11 -0.5h21q14 2 18 2q10 2 14 2q19 2 20 3q3 1 5 12q0 7 1 8q0 1 2 7q0 1 1 4t1 4q3 13 13 26q11 14 29 24q3 2 12.5 4.5t12.5 3.5l2 1h4q5 0 6 1q12 4 18 3q14 -3 17 -8q0 -2 1 -3v-1q2 -6 2 -7q2 -5 0 -10l-4 -8l-3 -7q-12 -16 -16 -20q-4 -6 -12 -11l-9 -6
l-6 -5l-6 -4q-2 -2 -7 -4q-3 -3 -6 -3q-1 -2 -2 -3l-1 -2q-1 -2 -1 -8v-8l-4 -28q-2 -14 -2 -17q-2 -8 -4 -29v-7q1 -4 -1 -16q-2 -10 -2 -13q-1 -5 -1 -14q-5 -20 -5 -37q0 -1 -0.5 -3t-0.5 -4q-5 -25 -5 -52q-1 -4 -2.5 -10.5t-3 -16.5t-2.5 -15q-2 -10 -2 -11q0 -2 -2 -8
v-11q-3 -10 -5 -29q-1 -1 -1 -7v-4l-1 -1q0 -18 -5 -38l-5 -37l-7 -42l-6 -29q0 -5 -2 -14.5t-3 -13.5q-6 -24 -11 -36l-2.5 -5t-3 -7t-2.5 -7q-1 -1 -1 -3q0 -1 -1 -2q0 -1 -1 -3l-1 -7l-6 -10q-2 -9 -4 -11v1q-2 -2 -2 -4l-6 -14q-12 -26 -19 -37l-7 -10q-2 -2 -4.5 -6
t-3.5 -6q-5 -7 -5 -8q-3 -4 -31 -32q-5 -4 -17 -16q-3 -1 -7 -7q-8 -8 -44 -25l-13 -5l-12 -5l-5 -2q-7 -4 -20 -6q-5 -1 -17 -1q-4 0 -9.5 -0.5t-7.5 -0.5q-26 -2 -47 2q-13 2 -16 4l-18 6q-2 0 -3 1q-1 0 -2 1q-6 2 -10 6l-3 3l-8 4q-8 8 -11 13q-9 16 -11 20v-1
q-6 7 -8 22q-3 7 -5 21q-5 25 -1 45q0 12 1 15v2l1 2q1 16 10 37q1 2 11 21l5 9v-1q8 14 12 18l4 4q7 10 21 18q22 13 23 13l4 2l25 9q8 2 11 2q1 0 2 0.5t3 0.5h16q12 0 23 -10q2 -2 2 -4q0 -1 1 -3q4 -9 4 -17q1 -20 -11 -39q-5 -7 -11 -8h-4q-5 6 1 8q15 8 17 31
q2 11 -3 22q-4 4 -14 10h-7q-19 0 -24 -2q-22 -6 -26 -8l-8 -3q-16 -7 -30 -19q-19 -19 -24 -28l-13 -26v1l-11 -22q-3 -12 -5 -34v-18q-2 -23 4 -38q1 -3 2.5 -7t1.5 -6q3 -11 4 -13v1l6 -8l12 -20l8 -6l5 -3q14 -10 39 -15q2 -2 7 -2q6 -2 9 -2q10 -2 36 -2q5 0 24 5
q9 3 22 11q13 9 20 19l7 7l9 10l10 11q5 5 5 8l4 5q6 7 15 23.5t15 24.5v-1q0 2 2 4v-1l22 44q3 5 8 15t8 14v-1l4 11l7 19l1 3q2 4 4 9t3 7q0 2 0.5 5t0.5 4t1 3l1 2l6 29q7 26 7 32l9 38l3 12l3 12q0 7 2 23q0 9 2 23q0 3 2 11q4 9 5 18v4q0 11 3 20l7.5 30t6.5 35
q0 5 2 25l2 21q2 4 3.5 24t2.5 23q4 18 4 22z" />
    <glyph glyph-name="K" unicode="K" horiz-adv-x="449" 
d="M211 387q-4 -21 -10 -40l-21 -68l-9 -22q-6 -16 -7 -25l-11 -31q-2 -7 -3 -8q0 -1 -1 -4l-1 -3l-6 -14q-5 -10 -11 -27.5t-8 -22.5q0 -1 -1 -2q-2 -3 -8 -15.5t-10 -18.5l-9 -18q-2 -4 -5 -7q-6 -11 -12 -18q-15 -17 -24 -23q-3 -1 -6 -4l-9 -6q-1 -1 -4 -1
q-5 -2 -12.5 -5.5t-9.5 -4.5q-8 -4 -23 -2q-5 0 -6 -1q-6 -1 -16 1q-2 0 -2 1h-3q-8 0 -15 5q-9 4 -15 10q-7 6 -12 12q-11 27 -13 38q-1 2 -1 19q0 10 2 24q1 20 9 36q3 12 4 13q7 16 14 23q1 1 4 6t5 7q4 4 25 12q20 3 29 -16l2 -10q0 -4 -2 -6q-4 0 -5 4l-2 7
q-7 20 -23 13q-13 -5 -19 -10l-4 -4q-10 -13 -15 -27q-9 -19 -11 -32q-5 -27 -5 -49q0 -1 2 -11l1 -1v-3q4 -17 16 -35q3 -4 8 -6l7 -3q6 -4 16 -3q4 1 24 9h1l2 1q12 12 19 21q1 1 2 3q1 1 2 3l22 28l6 8l13 32q8 11 9 17l5 10q1 4 5 11t6 13q3 5 12 31q14 35 21 49
q2 5 5.5 18t6.5 20q1 3 11 31q8 22 10 30q1 8 8 37l4 14q3 6 11 37l11 42l1 1v3l-12 -6q-12 -11 -39 -20q-6 -3 -17.5 -6t-17.5 -5l-8 -2q-2 -1 -14 -1q-4 0 -22 2h-2q-4 3 -13.5 8.5t-13.5 9.5l-6 7l-9 24q-4 9 -2 27q0 11 7 27q1 3 3 9.5t4 9.5q8 13 14 19q7 6 14 11
q2 2 7 3q4 1 8.5 4t8.5 5q1 1 3 1q22 2 36 -9q3 -2 5 -7q2 -1 -1 -4q-3 -2 -6 1q-5 8 -22 10q-10 1 -22 -4q-1 -2 -4.5 -3t-5.5 -2l-13 -9q-7 -4 -15 -18q-14 -34 -13 -58v-2l1 -2l1 -2v-2q-1 -8 6 -20q9 -16 27 -24q18 -4 41 -1q4 1 17 4.5t20 6.5q21 7 40 20q2 2 5 3l13 8
q3 0 3 2q4 10 9.5 31t8.5 31q8 25 19 45l11 24q10 20 24 36l9 11q1 0 5.5 4t7.5 6l8 4q12 4 24 -4q6 -5 6 -15q1 -15 -7 -33q-2 -4 -4.5 -12.5t-3.5 -11.5q-1 0 -2 -3q-17 -27 -19 -29q-7 -11 -20 -29t-18 -25t-11 -28q-5 -18 -6 -31q-2 -10 -2 -16l-8 -32q-8 -28 -8 -31z
M251 560q-1 -4 -2 -11t-3 -10h1l3 4q18 24 29 43q14 18 18 27q8 15 13 40q1 7 1 16q0 6 -5 4q-3 -1 -6 -4q-5 -7 -6 -9q-14 -22 -16 -30l-11 -28q-5 -9 -8 -18q-1 -3 -3.5 -11.5t-4.5 -12.5zM585 644q2 0 1 -4l-6 -8q-14 -20 -31 -30q-9 -7 -27 -7q-14 2 -17 2
q-2 -2 -3 -7.5t-2 -7.5q-7 -15 -10 -28q-2 -7 -9 -19t-9 -20q-12 -18 -17 -28q-9 -9 -19 -25q-18 -23 -20 -25q-4 -6 -16.5 -21.5t-18.5 -24.5q-16 -21 -38 -42q-7 -7 -15 -12.5t-17.5 -11.5t-14.5 -10q-18 -12 -18 -13q-2 0 -5 -3l8 -11q12 -9 15 -18q8 -12 9 -24
q2 -12 1 -14v-32q0 -18 -1 -29q0 -1 0.5 -4t0.5 -5v-10q-1 -9 1 -23v-4q1 -2 1 -10v-2v-26q0 -17 2 -22q0 -10 4 -17q0 -2 7 -9q2 -6 4 -8q1 -1 3 -2t3 -2q7 -8 20.5 -5.5t23.5 7.5t17 10q17 18 39 47q40 64 41 65q7 14 11 18q1 3 8 14q3 2 5 -0.5t0 -5.5q0 -1 -3.5 -6
t-3.5 -6q-7 -14 -17 -29q-5 -7 -16 -25.5t-17 -26.5q-31 -44 -50 -60q-5 -4 -14.5 -8.5t-14.5 -7.5q-11 -5 -42 -5q-6 0 -20 6q-11 2 -17 8q-2 4 -7 8.5t-7 7.5q-6 7 -6 16l-4.5 13.5t-4.5 16.5l-2.5 10t-1.5 9q-2 6 -4 37q-2 11 -2 47q0 2 0.5 6t0.5 7q0 6 -2 28l-1 5
q0 6 -2 8q0 13 -1 20q-2 15 -8 27l-3 3q-1 2 -3.5 3t-4.5 3q-6 5 -11 3q-6 -2 -8 -2q-2 3 2 5q2 1 10 5.5t13 6.5q2 2 10.5 6t12.5 8q3 3 7 5q3 3 11.5 10t12.5 11q8 10 15 17q3 4 22 23q1 0 2 2t3 2q1 1 8.5 10t11.5 13q5 6 14 19t15 19q8 12 22 36q16 25 19 29
q2 4 9.5 14.5t11.5 17.5q13 24 28 42q16 19 18 21q-1 1 -2.5 3t-3 3.5t-3 5t-2.5 8.5t2 13q7 16 18 21q6 3 16 0q7 -3 10 -11q2 -6 2 -19q0 -16 -6 -30v-2l1 -1q21 -5 33 2q9 3 23 17q5 5 8 11q1 2 2.5 4t3.5 4q3 2 6 0zM502 655q1 6 -7 8q-12 0 -16 -10q-9 -15 2 -29
q4 4 8.5 11.5t5.5 8.5q4 1 7 11z" />
    <glyph glyph-name="L" unicode="L" horiz-adv-x="480" 
d="M166 120l-1 1q-12 6 -25 6q-43 0 -53 -4q-5 -2 -15 -4l-15 -3q-13 -4 -37 -14q-11 -6 -23 -16q-6 -6 -16 -22l-3 -9q-2 -5 -2 -24q0 -14 4 -23q4 -8 13 -14l9 -3q15 -7 31 -6q15 2 17 3l20 9l11 8l12 11l7 6q10 14 18 22q14 15 27 40q10 17 19 29zM316 395l-3 -13l3 2
q18 9 34 22q3 4 9 8.5t9 7.5t9.5 8.5t10.5 9.5q13 13 14 15q5 5 14 21l5 5l20 43q11 34 13 42q4 19 0 40q-1 7 -11 26q-4 3 -10 5q-10 0 -15 -1q-2 -2 -7 -3t-8 -2q-12 -5 -17 -14q-2 -2 -2 -4q-7 -7 -16 -26l-4 -8q-6 -8 -7 -12q-3 -7 -6.5 -21l-4.5 -18q-6 -21 -9 -35
q-1 -3 -9 -44l-2 -7q-3 -8 -5 -19q-2 -19 -5 -28zM225 114l-3 -8q4 -3 16 -12.5t19 -14.5q13 -10 27 -19q10 -6 15 -10q24 -16 37 -22q29 -12 37 -14q7 -1 18 -1q3 0 10 0.5t10 0.5q13 0 29 9q9 4 14 16q3 9 -1 16l-4 5q0 5 1 6q2 4 6 0q1 0 3 -2q4 -10 6 -20q0 -2 -1 -3
q-3 -13 -13 -20q-11 -10 -41 -16q-14 -2 -17 -2h-6q-30 3 -57 18q-9 5 -23 14t-19 12l-33 23q-2 0 -5 3q-4 4 -12 9.5t-11 8.5l-10 8q-3 -4 -8.5 -11.5t-9.5 -11.5q-18 -26 -33 -37q-9 -11 -20 -20l-16 -12l-10 -8q-1 -1 -11 -7q-6 -4 -32 -11q-4 -1 -11.5 -2t-11.5 -3
q-12 -2 -24 0q-12 0 -19 1q-1 0 -9 2q-16 9 -27 21q-7 7 -7 22q-2 20 1 33q6 23 21 36q7 7 33 22l38 13q10 1 18 5q21 5 38 4h15q8 0 26 -2q2 0 4 -1h2q6 -2 8 -4q1 3 3 5l8 18l7 14q5 11 6 17q2 4 4 10.5t3 9.5q1 1 4 11q8 34 11 51l8 41v1l8 31l2 8l-15 -7q-5 -1 -11 -4
q-4 -2 -20 -4q-15 -4 -32 -4q-24 0 -45 10q-13 3 -23 13q-11 8 -16 17q-1 1 -1 2q-3 3 -13 23l-2 8q-2 32 2 47q6 30 27 53q2 3 23 21q30 20 54 16q13 -2 22 -11q6 -11 2 -21q-4 -14 -21 -21q0 -1 -1 -1q-4 -2 -5 2q-2 4 2 6q1 2 4 3t4 2t3 4t4 5q8 11 -5 20q-7 4 -22 2
q-29 -4 -53 -28q-7 -7 -19 -24q-9 -20 -10 -31q-5 -20 -1 -36v-6q0 -4 1 -6l3 -11v-1q0 -1 1 -2q17 -23 29 -30q7 -5 31 -14q23 -4 47 0q20 2 26 5q10 5 28 11q3 2 5 7l1 10q0 10 2 15q6 34 16 67q2 16 5 26q2 10 5 16q8 26 11 39l13 36l15 33q17 28 40 41q7 4 21 10l14 3
l20 2q16 1 32 -9t23 -23q4 -5 6 -24q4 -27 -5 -57q-10 -24 -14 -36q-2 -3 -8.5 -16.5t-10.5 -19.5q-14 -27 -38 -46q-6 -4 -15.5 -13t-13.5 -12q-18 -16 -33 -23l-14 -10l-3 -2q-1 -6 -2.5 -16t-3.5 -16l-2 -14l-11 -49l-8 -31q-4 -10 -5 -15q-1 -3 -1.5 -9t-2.5 -9l-9 -21
l-20 -42q-2 -6 -11 -18q-2 -2 -4 -6.5t-3 -6.5z" />
    <glyph glyph-name="M" unicode="M" horiz-adv-x="815" 
d="M456 181l5 -4q-12 8 -14 25l-2 7q0 1 -1 5t-2 7.5t-1 7.5l-3 18v3l-4 31q-3 12 -5 38v5q-3 16 -5 43q0 3 -0.5 10t-0.5 14q0 2 -0.5 6.5t-0.5 6.5l-3 23l-1 8l-4 25v8q-2 18 -2 26q0 11 -2 24q0 6 -1 10q-3 23 -4 25q-3 16 -8 32l-2 4q-7 20 -22 16l-13 -11
q-10 -10 -18 -24l-6 -12l-9 -18q-3 -5 -7 -17l-10 -23q-1 -2 -2 -6.5t-3 -6.5l-5 -11q-2 -3 -3 -9t-2 -9l-3 -14q-7 -28 -10 -37q-3 -13 -4 -14l-1 -3l-1 -4l-1 -3l-3 -14l-3 -11q-1 -4 -8 -30l-2 -6q-9 -35 -15 -52q-8 -19 -12 -37l-12 -34l-4 -9q-3 -5 -8.5 -18t-9.5 -19
l-14 -27l-1 -3l-19 -31l-2 -3q-17 -23 -19 -24l-6 -7l-5 -5l-5.5 -5.5l-4.5 -4.5q-10 -9 -21 -15l-7 -4q-2 -1 -8 -2.5t-8 -3.5l-7 -3q-10 -3 -29 -5h-4q-23 -2 -34 4q-11 5 -16 11q-6 6 -9 15q-4 8 -4 29l3 8q5 11 14 9q11 2 17.5 -2t1.5 -13q-1 0 -2.5 1.5t-5.5 2.5t-11 1
q-5 -2 -6 -8q-2 -10 -2 -11q-1 -6 4 -16q9 -13 26 -18q3 -1 12 -1q2 0 12 2q9 3 24 18l9 10q4 6 14 23q2 4 9 19l6 12q4 9 14 25l3 7l12 24q2 4 4.5 12.5t3.5 11.5l1 2q0 2 0.5 4.5t1.5 4.5l3 10q6 22 10 33l9 21q2 5 8 13l2 1q3 4 8 22q2 4 4.5 13t3.5 13q2 3 3 8t2 7l9 25
l3 6l2 7q2 4 4 14t3 13q0 4 2 9.5t2 8.5l2 7l4 20q2 5 3 15.5t2 15.5l3 19l7 42q0 1 2 20q0 4 -0.5 10t-0.5 9l-2 18q-3 15 -12 35l-1 3q-6 11 -21 20l-4 2q-13 5 -22 5q-12 2 -26 -3q-10 -2 -17 -5l-19 -7q-7 -3 -17 -9l-7 -3.5t-7 -4.5l-22 -19q-8 -7 -12 -7
q-5 -3 -13 -11q-15 -15 -18 -19q-2 -2 -3 -5t-2 -4q-9 -14 -18 -34l-3 -8l-6 -21q-4 -13 -6 -26q-1 -3 -1 -15q-2 -14 -2 -16v-13q0 -12 1 -19q1 -6 5 -18q0 -8 5 -20q6 -12 16 -22q1 -1 6.5 -4.5t9.5 -5.5l18 -7l15 -3q10 -2 25 1q5 0 12 4q14 8 21 23q5 8 6 17q2 10 2 20
q0 11 -4 20q-4 10 -14 15q-4 2 -17 2q-8 -2 -15 5q3 3 29 3l4 -1q11 -4 19 -18q6 -13 7 -26q0 -1 0.5 -5.5t0.5 -9.5l-1 -5v-3q-4 -15 -7 -21l-5 -8q-9 -11 -16 -15q-14 -11 -47 -7q-10 1 -16 5q-2 1 -8 3t-9 4q-14 6 -23 15q-7 5 -8 7q-7 7 -12 20q-6 13 -7 27q-2 14 -2 17
q0 9 1 24l2 18q2 16 5 24l2 12q1 3 3 7.5t2 6.5l10 26l2 5l14 28q1 3 8 12l14 14l5 4l35 29q2 2 4.5 3.5t4.5 2.5t4.5 2.5t5.5 3.5t5 3l21 12q5 3 25 10q3 1 7.5 2t5.5 1l2 1h22q15 0 22 -1q23 -2 30 -4l8 -4l11 -8l14 -14q2 -2 16 -22l9 -21q5 -11 6 -20q2 -16 2 -26
q0 -3 0.5 -15.5t0.5 -21.5q0 -11 -1 -13h1l5 7q1 1 10 23l4 9l10 22l7 14q1 2 2 5t3 4q11 19 23 31l11 9q6 5 16 9q8 4 23 4q17 0 27 -10l3 -3q5 -6 6.5 -9.5t-0.5 -3.5q10 -7 16 -31l2 -25v-4l4 -31l4 -25l3 -23q2 -10 2 -12q2 -16 2 -24v-31l2 -18l2 -18q3 -11 5 -32l1 -9
q1 -8 1 -24q6 7 8 12q10 23 12 28l5 10q2 3 5.5 12t5.5 14l12 24q1 3 3 6t4.5 6.5t4.5 6.5l8 17q2 7 6 13l13 23l5 10l5 7q2 3 5 10.5t5 10.5q2 1 3 4t2 5q13 17 18 19l10 14l3 4q3 3 10.5 11.5t12.5 13.5l13 12l9 6l18 12q18 11 37 15q2 0 4 1h3h4q15 0 18 -1q12 -3 23 -14
q8 -9 9 -21q1 -4 1 -10l-2 -16q-3 -19 -9 -35q-1 -4 -3.5 -11t-3.5 -10q-4 -6 -6 -13q-4 -5 -8 -15q-2 -2 -3 -6.5t-2 -6.5l-4 -12l-4 -10q-2 -2 -3 -7t-2 -7l-11 -30l-9 -24l-13 -29l-2 -7l-3 -9l-4 -12l-2 -7l-3 -8q-1 -4 -2 -9.5t-3 -9.5t-4 -12.5t-3 -12.5l-3 -12
q-2 -5 -4 -25l-3 -17l-2 -20l-3 -26q-3 -48 -3 -50v-28q0 -10 1 -17l2 -10q3 -22 4 -24q5 -16 18 -39l13 -17q7 -7 17 -15q8 -6 11 -7q2 -2 5 -3q10 -8 26 8q4 4 10 14q14 20 18 14q0 -1 1 -3l-2 -6q-3 -9 -9 -17q-4 -6 -20 -17q-16 -9 -18 -10q-1 0 -3 -1t-4.5 -2t-4.5 -1
q-9 -3 -19 -3q-12 2 -25 6l-19 7q-2 1 -11 6h-1l-13 10q-10 9 -21 24l-4 8q-11 17 -16 36q-3 7 -5 22q-4 20 -4 67q-2 8 -2 20q0 3 0.5 9t0.5 9v15q0 3 0.5 6.5t1 10t0.5 12.5q0 2 6 23l4 11q1 3 3 9.5t3 9.5l1 5l6 24q2 13 5 20q1 4 3.5 14.5t5.5 18.5l2 5l6 18l7 18l9 25
q2 3 4 11q2 7 10 34l6 21q1 2 3 7.5t5 9.5l6 18l12 26q6 13 9 29q2 10 2 18q-3 12 -15 12q-11 2 -20 -3q-11 -6 -19 -16q-3 -4 -17 -18l-15 -14l-14 -22l-9 -16q-7 -12 -8 -13l-2 -2q-3 -3 -4 -6q-2 -2 -4 -7t-3 -7l-8 -13q-3 -6 -10 -19q-7 -15 -17 -31l-9 -19l-12 -24
q-1 -2 -3 -7t-4 -8l-11 -25l-3 -6q-3 -3 -4 -5l-9 -18l-2 -3q-9 -21 -12 -31q-2 -4 -3 -12t-2 -13v-4q-1 -5 -3 -7l-6 -14q-9 -22 -13 -26z" />
    <glyph glyph-name="N" unicode="N" horiz-adv-x="560" 
d="M417 84q0 2 1 10t2 15.5t2 14.5q6 38 11 58q0 5 2.5 14t3.5 15l8 40q0 5 3.5 15.5t3.5 13.5l7 32q6 30 15 56l7 23q2 6 5.5 15.5t4.5 12.5l6 15q13 30 14 32q3 9 14 28l12 23q13 23 17 28l15 21l11 12q17 19 23 23q10 8 20 14l9 4q7 3 17 3q10 -1 23 -6l9 -6q5 -7 9 -16
q1 -1 3 -12q1 -18 -16 -28q-15 -7 -27 5q-1 0 -1 1q-4 4 -4 12q0 4 4 4q3 0 4 -1q0 -1 0.5 -1t0.5 -1h1v-1h1q0 -5 1 -6t4 -1q12 -2 16 5q5 5 4 12q0 9 -4 16l-3 3q-1 0 -1 1l-5 2q-27 12 -51 -6q-3 -4 -11 -10t-12 -10l-11 -11q-2 -3 -7.5 -9t-7.5 -10l-12 -17l-9 -18
q-4 -6 -9 -17.5t-8 -17.5l-8 -16q-10 -30 -16 -41l-8 -25l-9 -27q-1 -3 -3.5 -9.5t-4.5 -12.5q-14 -38 -18 -66l-8 -44l-8 -40q-2 -8 -4 -22l-7 -39l-5 -36l-7 -46q-4 -27 -15 -53l-6 -14q-5 -6 -11 -6l-4 3q-3 3 -7.5 6.5t-6.5 4.5l-12 13l-9 9l-15 18q-2 3 -5 8t-4 7
l-25 41l-15 30q-1 3 -14 32q-1 3 -5.5 11.5t-8 16.5t-3.5 12q-2 3 -3.5 8t-2.5 8q-4 17 -12 33l-7 15l-5 16l-17 44l-33 80q-6 18 -10 27q-2 4 -5 11.5t-5.5 13.5t-4.5 11q-1 0 -1 3q-2 5 -5 11t-8 14t-7 12q-2 -12 -11 -47l-14 -45l-8 -40l-10 -34q-2 -10 -4 -23t-5 -23
q-9 -27 -9 -41l-14 -48q-2 -8 -7.5 -24t-7.5 -25q-1 -3 -7 -19t-8 -25q-8 -25 -21 -49q-19 -38 -27 -49q-5 -6 -13 -18t-14 -18q-3 -4 -22 -19q-16 -10 -34 -12q-13 -1 -22 0q-2 0 -20 8l-9 7q-8 7 -13 22q-4 9 -4 27q2 15 6 22q6 10 14 11q2 0 5 1q4 1 5 1q11 3 17 -6
q3 -3 3 -6q1 -5 -1 -7q-5 -2 -7 2q0 1 -1 1l-3 4q-4 4 -11 1q-11 -2 -14 -14q-7 -20 8 -47l1 -1l1 -1q1 -2 5 -4t5 -3q12 -5 18 -5h15q7 0 20 6l12 8q13 8 20 16q6 6 14 22q2 4 6 9t5 8q10 13 16 29l14 28q2 4 6.5 15t7.5 20l10 27q13 38 15 49t12 39q7 29 10 39q6 15 7 29
q3 10 6.5 26t7.5 28q2 6 4 17.5t3 15.5q3 20 5 25l5.5 16.5t4.5 15.5q3 9 5 25l9 34q0 1 1.5 5.5t1.5 7.5l8 35q4 19 16 45l6 20l2 6q2 6 5 1q1 0 1 -0.5t1 -0.5q3 -3 16 -28q19 -28 23 -36q8 -23 19 -42l12 -31q1 -5 5 -12.5t6 -11.5l8 -22l8 -21l16 -38l22 -51q1 -5 3 -10
t4.5 -12t3.5 -11l11 -27q2 -3 3 -8t2 -8q0 -1 6 -16t10 -23l7 -19q0 -2 3 -7t4 -9q2 -4 8 -22t12 -24q19 -33 22 -36q1 -5 6 -9l12 -12q1 0 2 10z" />
    <glyph glyph-name="O" unicode="O" horiz-adv-x="455" 
d="M402 462l8 -7q2 5 4 10.5t4.5 12t3.5 10.5q2 4 2 14t2 14v17q3 11 -3 34q-5 23 -24 38q-13 10 -30 7q-23 -8 -25 -9q-6 0 -7 -1q-4 -2 -6 -4q-8 -4 -10 -7q-5 -3 -22 -18q-11 -5 -25 -19q-8 -8 -10 -9q-20 -14 -39 -38q-3 -4 -9 -12.5t-10 -12.5q-6 -6 -14 -18.5
t-13 -18.5q-5 -12 -11 -20q-13 -31 -16 -36q-3 -6 -4 -11l-8 -18q-1 -1 -1 -7l5 -2q21 -8 36 -9h34q40 6 60 10q2 0 7.5 1.5t9.5 2.5q6 4 10 5l22 8q17 9 35 24q3 3 9 6q12 12 15 16q2 2 6 6.5t6 6.5l8 11q3 7 -2 10q-4 4 -6 8q-8 6 -18 5h-1q-1 0 -2.5 -0.5t-4 -1
t-4.5 -0.5q-5 -1 -11 -7q-7 -13 -6 -23q1 -2 -2 -9q-6 0 -8 5q2 17 5 22l2 6q6 7 14 12q6 2 7 3q10 4 21 1q4 0 16 -8zM410 435q-12 -12 -15 -17l-3 -5l-6 -7l-25 -21q-7 -7 -18 -15q-5 -2 -15 -7t-16 -7l-19 -7q-9 -3 -22.5 -6t-18.5 -4q-2 -1 -11 -1q-17 -4 -39 -4
q-10 1 -19 0q-16 0 -27 4l-18 6q-6 -7 -7 -14q-1 -3 -3.5 -11t-4.5 -13q0 -2 -1.5 -7.5t-2.5 -9.5q-1 -3 -2 -9t-2 -9q-6 -31 -7 -43q-4 -8 -4 -24q-2 -6 -2 -27q0 -1 -1 -6t0 -7q3 -20 2 -30q0 -1 1.5 -10t1.5 -13q10 -24 11 -36q3 -19 15 -33l11 -13q1 -1 2 -3t3 -3
t35 -15h2q29 0 39 6q3 2 15.5 8t18.5 11q2 1 5 3t5 4q5 5 19 15l13 15l8 11q11 9 18 24q8 11 16 28l2 3q5 8 17 37q2 8 7.5 23.5t7.5 22.5q0 2 2 6.5t3 6.5q3 19 10 32q2 4 3.5 11.5t2.5 11.5l8 40q0 2 2 11t2 14q2 14 5 26q2 28 0 38q-1 3 -1.5 9.5t-2.5 9.5zM69 390
q-6 6 -6 9q-5 3 -12 12l-10 10l-2 2q-1 2 -10 18q-10 17 -18 40q0 3 -0.5 9t-0.5 10q0 5 1 13t1 12q0 8 8 24q2 1 3 5t3 5q2 4 9 11q5 7 15 17l12 7q1 1 8.5 3.5t10.5 4.5q3 0 6 0.5t4.5 1t2.5 0.5q6 2 14 0q6 0 7 -1q8 -3 18 -13q0 -1 1.5 -3t1.5 -4q3 -20 -4 -33
q-2 -4 -6.5 -9t-6.5 -8q-10 -12 -26 -15q-7 -1 -16 -1q-5 0 -5 4t5 4q13 0 18 2q10 3 19 13q8 6 12 16q5 18 1 27v1q-13 13 -22 13h-2q-15 4 -37 -10q-10 -6 -17 -13q-5 -3 -11 -12q-8 -8 -11 -21q-6 -5 -6 -14q-2 -32 -1 -38l2 -14q1 -4 5 -11t5 -11q2 -4 6.5 -10t5.5 -9
q1 -1 3.5 -5.5t4.5 -6.5q8 -9 16 -19q2 -1 4.5 -2t3.5 -3l4 9q7 20 28 50q4 7 24 33q2 2 3.5 4.5t4 6t4.5 6.5q4 5 28 29q15 12 16 13l3 3q5 9 15 14q9 7 32 22q2 1 40 22q10 6 21 8q1 0 3 0.5t3 0.5q11 5 23 6l21 3q23 2 36 -5q3 -2 8 -3.5t7 -3.5q18 -10 21 -22
q7 -13 10 -19q0 -1 3 -22v-12v-12q0 -19 -2 -24q-1 -4 -1 -13q0 -5 -1 -6q-2 -4 -4.5 -11.5t-5 -14t-6.5 -11.5q-2 -1 1 -4q4 -6 5.5 -18.5t2.5 -14.5q1 -16 0 -33q-3 -12 -5 -31q0 -4 -2 -11t-3 -10l-9 -42q-5 -14 -6 -25l-10 -31q-2 -4 -4.5 -13t-3.5 -11q-6 -15 -11 -34
q-2 -4 -4 -9.5t-3 -7.5l-11 -22q-7 -16 -13 -22l-10 -17q-2 -4 -7.5 -10t-7.5 -9l-1 -1v-1q-2 -5 -14 -17q-8 -3 -9 -7q-2 -3 -15 -13q-14 -10 -15 -11l-23 -15l-9 -3q-1 -1 -10 -4l-11 -4l-21 -3h-6q-8 -1 -19 2q-3 2 -17 4q-6 0 -12 3q-19 10 -24 13q-2 1 -31 25l-3 4
l-11 22q-2 2 -4 6q-7 22 -16 37q1 1 -1 9q-3 9 -5 25q-4 13 -4 39q-1 9 -1 27q-2 12 1 17v12q-1 15 4 36q3 8 5 31q2 5 4 14t3 13q7 10 9 20q1 3 2.5 8.5t3.5 8.5q1 4 3 10z" />
    <glyph glyph-name="P" unicode="P" horiz-adv-x="407" 
d="M196 624q-11 1 -29 -2q-24 -6 -31 -13q-12 -7 -14 -8l-2 -2q-9 -12 -15 -14q-3 -4 -8 -10t-9 -9l-10 -15q-7 -13 -10 -19q0 -2 -2 -5t-3 -4q-7 -13 -4 -31q1 -2 2.5 -5.5t1.5 -4.5q5 -8 14 -5q11 4 20 16q0 1 1 2q1 3 5 2q3 -1 1 -6l-3 -6q-5 -8 -8 -9q-7 -8 -18 -11
q-23 -5 -41 13q-3 2 -10 20l-3 16v6q2 21 6 32q6 14 18 29q2 2 5.5 5t4.5 5q7 7 36 24q17 9 43 14q1 1 3 1q11 4 26 4h10q4 0 12.5 0.5t12.5 0.5q28 0 45 -4l11 -3q4 -1 11.5 -2.5t11.5 -3.5q16 -3 26 -10q3 -2 10 -4.5t10 -4.5q14 -6 25 -17l5 -5q13 -8 17 -18l1 -1
q9 -8 15 -26l6 -17v-1q5 -11 7 -31q0 -3 0.5 -10t0.5 -11v-4q-1 -7 -1 -22q0 -2 -0.5 -5.5t-0.5 -4.5l-3 -17q-5 -29 -14 -48q-9 -15 -11 -18q-4 -9 -20 -25q-12 -9 -29 -17q-16 -9 -18 -10q-12 -5 -22 -5q-3 0 -7.5 -1.5t-7.5 -1.5q-33 -8 -60 -3q-4 1 -11 2.5t-11 3.5
q-5 1 -10 6l-5 6q-3 6 0 14l4 5q4 0 5 -1q2 -1 1 -5h-1q-5 -9 3 -15q9 -6 18 -8q18 -3 28 -2q22 0 31 9l11 8l21 27q7 8 13 20q1 2 2 6.5t2 7.5l8 19q4 9 5 18q0 3 0.5 7t0.5 6v2q0 6 2 14t2 14v4q2 7 2 33q0 3 0.5 7t0.5 6q2 15 1 22q0 21 -2 27q-3 18 -14 36q-4 6 -13 14
q-10 6 -14 10q-3 2 -21 9q-18 6 -30 7q-2 1 -8 1h-31zM-3 2h-8q-13 0 -18 1t-13 2t-12 3q-11 4 -24 19q-11 17 -6 37q2 7 3 8q3 7 10.5 12.5t15.5 3.5h1h1l1 -1q3 0 3 -3t-3 -3h-2q-12 1 -19 -10q-6 -7 -4 -19q0 -7 1 -9l2 -6q6 -13 15 -17q5 -5 14 -6q22 -6 32 -5
q2 0 7.5 0.5t9.5 0.5q1 1 2 1q14 8 17 15q13 22 16 34q4 10 6 20q5 17 13 51q3 8 5 22q1 6 3 19t4 20q2 15 6 26q1 1 1 6l3 17q2 5 3.5 14t2.5 14v8l2 13l9 30q1 6 9 49q9 41 11 56l12 63q1 4 2 12.5t2 12.5q0 2 0.5 5.5t0.5 5.5l8 36q2 8 2 10q2 2 4 2h4q12 -3 34 -11
l10 -3q4 -1 4 -5l-2 -10q-1 -2 -1 -9q0 -2 -1 -3q0 -1 -3 -25q-1 -6 -3 -16t-4 -16t-3 -16.5t-2 -15.5q0 -1 -0.5 -4.5t-0.5 -5.5q-2 -6 -3.5 -19t-2.5 -19l-2.5 -12.5t-3.5 -12.5l-3 -20l-3 -17v-1q-1 -1 -1 -2q-2 -6 -4 -18.5t-3 -18.5l-3 -19q0 -4 -1 -5q-2 -6 -3 -18
t-2 -17l-3 -16q-2 -12 -6 -24l-3 -15v-5v-3q-3 -5 -15 -42q-5 -17 -8 -26q-2 -8 -6 -15q-2 -2 -3 -8q-2 -4 -5 -8.5l-5 -7.5q-5 -9 -16 -23q-9 -12 -17 -17q-14 -13 -35 -19q-3 -1 -12 -1q-3 -1 -14 -1z" />
    <glyph glyph-name="Q" unicode="Q" horiz-adv-x="490" 
d="M356 619l-19 -2q-9 0 -12 -1q-18 -7 -30 -12q-16 -8 -24 -13q-2 -1 -4.5 -2.5t-4.5 -3.5t-9 -7.5t-12 -8.5l-18 -19q-7 -11 -17 -20q-3 -6 -9 -12l-18 -24q-4 -4 -8.5 -12.5t-7.5 -12.5l-4 -5q-5 -6 -6 -10q-5 -7 -14 -27q-11 -18 -17 -39q-1 -3 -9 -32q-3 -13 -4 -14
t-1 -4q-2 -6 -4.5 -18.5t-3.5 -16.5q-3 -13 -5 -37l-2 -27q-1 -13 1 -35q0 -2 0.5 -6t0.5 -7l3 -16q2 -27 4 -33q1 -4 3.5 -13t4.5 -13l8 -26l4 -10q7 -12 16 -25q13 -19 34 -31q20 -10 41 -7q1 0 2 1q-1 1 -1 3q-1 1 -1 2q-2 3 -4 11l-11 42q-1 10 4 15q0 -1 3 -8
q1 -4 3 -13.5t4 -14.5l11 -37q15 2 24 5q13 5 52 33q13 10 23 23l11 11q14 15 17 18l5 6q6 8 12 18q6 7 10 17l7 11l8 10q3 7 7 14t8.5 15.5t7.5 13.5l14 33q3 7 5.5 15.5t5 19t4.5 16.5q7 23 11 40q0 1 3 23q4 34 3 63q0 23 -4 43q-5 32 -18 59q-12 25 -26 42
q-15 18 -40 27l-8 2q-22 0 -36 -6q-18 -4 -18 -25v-12q2 -14 15 -14q4 0 5 3q0 4 5 4q4 0 4 -6q0 -9 -10 -10q-19 -5 -26 13q-8 24 5 43q8 10 14 11q25 11 48 6q16 -1 29 -13q15 -11 35 -40q10 -16 17 -31q1 -5 5 -18t6 -20q3 -11 5 -35q2 -10 2 -45q0 -23 -4 -43v-6
q0 -8 -7 -36q-3 -8 -7 -22.5t-6 -21.5q-2 -9 -11 -33q-10 -29 -31 -62q-1 -2 -3 -7t-4 -7q-19 -29 -19 -30l-1 -1q-3 -3 -11 -15t-14 -19t-13 -13l-19 -21q-9 -9 -21 -18q-4 -3 -12 -8.5t-12 -9.5q-21 -15 -48 -19q1 -1 2 -5q17 -27 19 -29q20 -25 43 -35q12 -8 27 -6h3.5
t3.5 1q14 1 16 17v9q-1 15 -19 15q-2 0 -4 -2q-1 0 -3 -2q-3 0 -5 2l1 5q1 1 3 2t3 2q9 3 18 -1t12 -12q6 -17 -1 -31q-2 -5 -18 -12q-20 -3 -35 2q-3 1 -6 3t-7 4.5t-6 3.5q-28 18 -42 42l-15 26h-12q-3 0 -8 0.5t-7 0.5h-12q-13 -2 -22 1h-3q-13 -1 -29 6q-18 6 -31 16
q-13 9 -15 13q-1 2 -3 3.5t-4 3.5l-3 3q-7 4 -13 12q-12 16 -16 29q0 4 -3 7q-2 2 -3 6t-2 6q0 1 -2 3q-7 9 -9 20t-5 17q-1 2 -1 3l-1 2q-3 18 -3 19q-2 5 -3 16t-2 16q0 6 -1 15t-1.5 16.5t-0.5 14.5q0 4 -0.5 12.5t-0.5 14.5q-1 18 4 41q1 4 3 13t4 14v4q0 2 0.5 4t0.5 4
q2 3 4 12l9 24q10 22 12 28q0 1 8 13q3 7 11 21q0 1 1 2q4 4 9.5 13t8.5 13q2 4 7 9.5t7 8.5q10 10 15 17q10 14 23 26q26 27 51 40q8 6 28 15l9 6q23 11 44 15q4 0 13.5 2t15.5 3q31 5 53 -4l10 -5q2 -1 3 -3h1v-1z" />
    <glyph glyph-name="R" unicode="R" horiz-adv-x="551" 
d="M28 -4q-9 -1 -28 4q-2 0 -19 10l-3 3q-3 3 -9 10q-4 6 -6 13q-2 8 -2 10q-2 16 1 25q1 7 11 21q8 8 11 9q5 2 20 0q5 -2 3 -5q-1 -3 -5 -3q-2 1 -8 1q-8 2 -14 -6q-9 -16 -10 -17q-2 -2 -2 -12q0 -9 1 -16q0 -3 6 -13q4 -10 14 -13q3 -1 5 -3q5 -3 16 -3q12 -1 31 6
q14 6 27 19q3 3 25 27l3 4q8 18 13 25q2 2 2 4l15 48q7 27 11 46q0 4 2 6q3 7 6 19t5 16l8 29q1 3 2 9t3 9q1 4 2.5 11t1.5 10l20 70l11 48q1 4 12 46l9 39q1 2 1 5q1 1 1 2q5 11 6 18q2 9 8 16q0 2 3 2q12 3 13 3q26 2 32 4q7 1 10 0q10 0 10 -10t-4 -15q-3 -4 -4 -11
l-1 -2v-2q-4 -8 -12 -33l-10 -30q-7 -16 -8 -18q-1 -1 -2 -4q-1 -10 -10 -35q-2 -4 -3.5 -12.5t-3.5 -12.5q-6 -19 -10 -25l-3 -8q-4 -19 -18 -57q-2 -6 -11 -34q-2 -2 -3 -7.5t-2 -8.5q-2 -4 -4 -12.5t-3 -12.5q-1 -3 -3 -11.5t-4 -11.5q-1 -4 -2.5 -11t-3.5 -11
q-1 -2 -1.5 -4.5t-2.5 -4.5q-1 -4 -3 -11t-4 -11q-1 0 -1 -1q-4 -18 -14 -35q-3 -7 -13 -21q-3 -7 -20 -24q-2 -4 -8 -8.5t-7 -5.5q-2 -3 -7 -7t-6 -5l-5 -4q-6 -5 -12 -7q-2 -2 -5.5 -2.5t-5.5 -1.5l-12 -3t-12 -4q-3 -1 -11 -1zM339 317l-22 11q-9 4 -16 3q-10 -2 -13 -4
q-12 -9 2 -15l8 -2q11 -1 40 5q0 1 1 2zM385 321q4 -2 26 -19q17 -16 28 -45q3 -7 5 -21q0 -6 2 -22q2 -27 -2 -46q-1 -3 -1 -14q-1 -6 -3 -19t-4 -20q-2 -5 -3 -14t-2 -14l-3 -18q-3 -15 -3 -44q0 -13 6 -21q3 -7 8 -12q9 -9 21 -4l29 12q6 3 6 -3q0 -2 -2 -4
q-12 -5 -24 -12q-8 -5 -21 -5h-10q-12 0 -26 8q-9 6 -15 12q-7 8 -12 15q-9 20 -10 29q0 3 -1.5 17.5t-1.5 23.5v24q0 63 1 95q0 11 -2 33q-1 3 -1 10q0 18 -2 23q-2 7 -3 8l-9 20q-6 10 -8 12q-12 1 -22 -3h-4h-27l-14 3q-6 2 -6 14q2 14 15 17q4 2 10.5 2.5t7.5 0.5
q5 0 9 -0.5t9 -1.5t8 -1q8 0 11 -1l16 -6q5 -2 7 1q15 12 21 20l12 13l14 22q1 2 3 5.5t3 5.5q11 13 15 27l3 6q9 12 10 27q1 3 2 7t3 7q7 19 7 34q1 21 -3 43l-3 9l-7 21q-3 11 -12 20q-12 12 -23 18l-20 8q-2 0 -7.5 1.5t-9.5 2.5q-7 3 -18 1q-4 -1 -16 -1q-22 -3 -25 -4
q-5 -2 -17 -3.5t-17 -3.5q-1 0 -7 -2q-11 -6 -22 -8q-2 0 -4 -2q-2 -1 -5 -2t-4 -3l-27 -15q-25 -15 -37 -31l-19 -18q0 -2 -2 -3t-2 -3q-4 -7 -14 -21q-3 -3 -7 -9t-5 -8q-8 -14 -18 -43q-4 -9 -2 -24q1 -18 21 -23q6 -2 12 3t7 11q0 6 -4 10q-2 3 -6 3h-6q-3 1 -3 3
q0 4 3 4q11 2 17 -4q2 -2 2 -3q8 -13 5 -24q0 -2 -0.5 -5t-0.5 -4q-5 -14 -16 -21q-7 -6 -15 -6q-22 -2 -35 8q-24 21 -32 38q0 3 -1 7.5t-1.5 8.5t-0.5 8q-1 29 13 59q5 12 18 26l21 23q8 9 19 16q5 3 13.5 8t12.5 9q22 12 27 14q22 10 51 21q3 1 38 9q11 2 19 5q13 3 30 5
q31 3 37 4q10 2 15 2q28 2 45 -1q24 -3 28 -4q14 -2 25 -8q18 -9 24 -13l21 -19q10 -10 17 -30q5 -9 7 -30q0 -11 1 -18q0 -7 -3 -15q-2 -4 -4 -23l-2 -11q-4 -15 -13 -29q-2 -3 -3 -8t-3 -7l-9 -13q-3 -3 -5 -8q-1 -2 -6 -7t-7 -9q-3 -3 -9.5 -8t-10.5 -9q-14 -10 -21 -17
l-17 -11q-6 -4 -18.5 -11t-16.5 -9h-1q-1 -1 -2 -1z" />
    <glyph glyph-name="S" unicode="S" horiz-adv-x="390" 
d="M353 571q0 -4 1 -5l25 9l26 9q3 0 5 -2q0 -4 -3 -5l-3 -2q-3 -1 -31 -11l-16 -6q-3 -1 -3 -2l-17 -37q-6 -12 -19 -12h-1h-10q-11 0 -11 13q0 15 14 21l25 15l5 2q2 6 2 7q0 19 -12 36l-8 7q-7 6 -25 11l-25 3q-4 0 -13 -1.5t-15 -1.5h-1q-8 -4 -17 -6.5t-13 -4.5l-6 -3
q-2 -1 -4.5 -2t-4.5 -3l-18 -13q-33 -33 -33 -76q0 -3 1 -8t1 -9v-3q3 -18 12 -44l12 -24l13 -13l9 -10l10 -11q9 -11 33 -32t36 -35l8 -8t6 -7t5.5 -9t9.5 -17l14 -28q3 -6 4 -11t1.5 -12.5t2.5 -13.5v-10q2 -8 2 -31q0 -4 -2 -18v-8q0 -21 -11 -38l-1 -1q0 -7 -4 -12
l-3 -5q-12 -21 -16 -25l-14 -16l-5 -5l-13 -12l-10 -8l-12 -8q-13 -13 -55 -21h-3q-18 -2 -26 -5h-18q-14 0 -36 5l-18 5q-12 0 -43 20l-12 11q-11 11 -16 19q0 1 -4.5 10.5t-9 23t-4.5 24.5q0 56 32 95v1l6 7q36 36 77 36h6h4q25 -3 33 -16.5t8 -35.5q0 -29 -16 -45l-5 -4
q-15 -15 -34 -15q-12 0 -19.5 9.5t-7.5 20.5v3q0 4 5 4h2q3 0 3 -3v-1q0 -24 19 -24q16 0 26 10l3 3q15 15 15 40q0 47 -44 47q-31 -5 -56 -25l-7 -5q-15 -13 -27.5 -40.5t-12.5 -58.5q0 -27 8 -41l7 -12q5 -16 29 -31l14 -8q44 -20 76 -20q20 0 46 7l15 7q4 1 14 7.5
t12 6.5l17 18q20 22 25 49l6 38v5q0 24 -4 37l-3 13q-2 18 -5 25l-3 8q-2 2 -4.5 7.5t-3.5 7.5l-15 23q-1 2 -5 9l-15 20l-12 12l-12 13q-8 13 -19 17l-11 13q-6 6 -12 15l-7 9q-25 30 -32 45l-14 28q-1 1 -1 5l-5 20q-1 3 -1 14q0 10 1 13v19q0 9 5 21l11 25q0 3 4 7l6 7
q1 1 2.5 3t3 4.5t2.5 3.5l2 2l4 4q0 1 1 1l7 6l8 7q5 4 27 14l36 12q10 5 41 5h18h10q78 -14 78 -64zM310 515q1 0 2 -1q6 0 11 3l7 8l10 24l-29 -17q-4 -4 -4 -12q0 -5 3 -5z" />
    <glyph glyph-name="T" unicode="T" horiz-adv-x="434" 
d="M281 569l-11 3l-21 3l-15 3q-14 3 -41 1l-39 -3q-23 -1 -42 -11q-4 -1 -8.5 -4t-8.5 -5q-6 -2 -10 -5l-15 -10l-4 -2l-20 -21q-9 -14 -16 -35q-6 -16 -6 -24q-2 -12 4 -25t19 -17q5 -2 15 -2q19 0 29 6q17 11 23 28q2 13 -6 17q-6 3 -14 1q-8 -5 -8 -8l-2 -4q-2 -2 -5 -1
q-4 1 -2 5q6 20 28 17q9 -1 15 -15q3 -10 -2 -21q-3 -9 -17 -23q-7 -5 -15 -6q-10 -3 -24 -3q-16 -1 -32 9q-10 7 -18 15q-11 12 -16 28q-2 4 -4 21q-2 5 -2 19q0 23 7 38q3 4 7 12l12 20q7 7 8 9q9 10 20 17q10 6 14 7q16 9 21 11q2 1 6.5 2t6.5 3l39 9q21 3 42 3
q3 0 7 -0.5t7 -0.5q9 0 16 -1h2q32 -5 53 -10l34 -11q4 -2 11.5 -3.5t11.5 -3.5l27 -9l11 -2q8 -3 25 -3q24 -3 26 -3q4 0 10.5 -1t11.5 -1.5t10 -0.5h3h4h3q32 0 57 13q18 10 32 22q13 10 16 16q11 22 -2 40q-5 6 -14 8q-23 2 -39 -9q-15 -9 -6 -25q1 -4 6 -7q4 -3 9 -1
q2 4 4 -1q1 -3 0 -4q0 -2 -3 -2q-5 -2 -10 0q-14 5 -17 19q-1 17 13 28q14 9 35 9q11 0 18 -4q1 -1 4.5 -3t5.5 -4q7 -12 9 -24q0 -14 -7 -25q-8 -14 -39 -37l-26 -16q-29 -9 -38 -11q-33 -3 -35 -3q-5 0 -16 -1t-17 -1q-4 0 -12 0.5t-14.5 1t-12.5 1.5q-4 1 -4 -1
q-5 -9 -10 -22l-2 -8q-5 -14 -10 -32l-4 -14q-3 -10 -11 -34t-12 -37q-2 -8 -5 -21.5t-4 -16.5q-10 -39 -11 -42q0 -7 -1 -9l-4 -22q-1 -8 -7 -24l-9 -42q-1 -5 -2 -13t-2 -12q-2 -14 -5 -26q-1 -8 -7 -40l-7 -29q-2 -5 -3 -14t-2 -13l-3 -10l-3 -12l-2 -15q-1 -7 -1 -19
q-2 -22 -2 -28q0 -4 2 -14q3 -9 13 -8l8 4q5 5 11 15l20 31q2 2 5 1q1 -1 1 -5q0 -3 -1 -4q-4 -5 -10 -15.5t-8 -13.5q-9 -13 -18 -19q-2 -1 -17 -1q-10 0 -20 5l-16 14q-4 4 -5 7q-3 3 -4 6l-8 16q-1 2 -4 13q0 1 -2 15q-4 16 0 34l3 18l3 18l4 22q2 16 4 20q0 5 3 11
q4 9 4 24q1 9 7 32q2 14 2 15v4l8 35q0 2 1.5 6.5t2.5 8.5q1 1 1 4q2 12 6 24q0 3 2.5 9t2.5 10q0 3 1 4q1 4 4 11.5t5 13.5t3 11v1l9 35q1 6 6 18v4q2 7 6.5 19t5.5 18q0 2 1 4t1 3q1 3 2.5 10t3.5 10q1 4 5.5 17t6.5 20q1 4 3 11.5t3 11.5z" />
    <glyph glyph-name="U" unicode="U" horiz-adv-x="460" 
d="M288 100v1q-3 -4 -16 -24q-4 -4 -9.5 -13t-9.5 -13q-25 -25 -29 -28t-8 -5q-26 -12 -32 -14l-11 -3q-7 -1 -19 -1q-11 -1 -29 2q-9 4 -18 5q-16 5 -25 16q-15 11 -19 16q-24 24 -32 60q-3 10 -5 28q-2 16 -2 24v21q-1 16 3 32q2 14 2 21q0 3 1.5 8t1.5 8l9 33l7 19l3 10
q0 6 6 28q1 6 5 17.5t6 18.5q1 3 2.5 10t3.5 10l8 26q2 8 2 12l2 6q0 1 1 2q3 8 7 26q2 5 4 14t3 14q7 28 9 38l3 24q2 6 2 29q0 19 -2 24q0 6 -3 14q-2 8 -6 17q-6 17 -27 20q-32 5 -61 -18q-21 -15 -18 -41l3 -16q3 -9 10 -13q8 -5 15 1q4 3 7 0q1 -4 -1 -7q-3 -3 -6 -3
q-16 -7 -29 10q-3 5 -5 13q-5 19 -2 31q3 21 19 31q31 25 69 22q19 -2 27 -6q10 -4 19 -11q17 -15 23 -24q14 -21 19 -40q3 -12 3 -23v-16q2 -30 2 -42q-1 -26 -10 -61q-1 -2 -3 -18l-9 -36q-7 -34 -18 -69q-1 -6 -9 -28q-5 -14 -16 -55q-8 -32 -8 -49q0 -2 -1 -3
q-2 -5 -2 -25q0 -7 -0.5 -21t-0.5 -22q0 -20 6 -40q2 -15 6 -25q4 -12 13 -25q2 -1 6 -3.5t6 -4.5q9 -6 18 -6q13 -2 27 0l8 2q6 2 14 6t13 6q1 0 3 2t3 2q22 15 43 48l24 34q4 3 2 8q-3 12 -3 24v36q0 8 2 24q3 14 3 28q0 7 3 20t3 18l3 17q5 17 6 31q1 13 9 37l2 15
q3 8 5 22q2 12 5 20q1 3 5.5 21.5t6.5 28.5q2 5 5.5 18t5.5 20q2 4 4 21l9 20l3 6q1 7 8 16q3 4 11 6q8 3 21 1q1 -1 5 -1q12 2 23 -3q6 -2 8 -8q3 -11 -4 -23l-13 -32q-5 -12 -11 -29q-2 -2 -2 -5v-4l-9 -20l-8 -31q-2 -7 -3 -8q-9 -29 -12 -41q-2 -9 -5 -14q-3 -8 -7 -23
t-5 -18q-1 -6 -3 -17.5t-4 -17.5q-1 -6 -4 -28q0 -2 -1 -2v-1q0 -11 -2.5 -28.5t-2.5 -23.5l-3 -39q-1 -9 0 -25.5t1 -21.5q0 -16 5 -36q1 -6 2.5 -16t3.5 -16q1 -8 9 -24q1 -2 2.5 -4.5t3.5 -4.5q7 -7 16 -5q7 1 20 10q2 3 5.5 8t4.5 7l3 4h4q3 0 3 -4q0 -1 -1 -2
q-6 -11 -16 -21q-14 -13 -37 -10q-1 0 -1 0.5t-1 0.5q-6 0 -7 1q-16 7 -21 12q-6 9 -15 18q-5 6 -11.5 17.5t-8.5 15.5q-2 3 -3 9.5t-3 9.5l-3 8q-2 2 -3 6.5t-2 6.5q0 3 -2 5z" />
    <glyph glyph-name="V" unicode="V" horiz-adv-x="586" 
d="M351 70l3 9q3 9 9 22.5t7 17.5q3 9 9 22.5t7 17.5l12 30l3 9q4 11 12 29q0 1 11 25l13 32l9 15q9 13 24 41q4 10 16 26q4 6 12 16t11 14l12 19q12 15 13 16q8 13 20 28l15 20l2 2q3 6 11 14.5t11 13.5q6 7 18 17.5t16 14.5l5 6q6 6 10 9q1 1 6.5 5.5t9.5 7.5q4 2 10 7
l6 6q24 18 37 24q9 6 53 22q2 0 3 0.5t3 0.5q5 2 5 -3q1 -4 -3 -6l-27 -9q-36 -15 -47 -23q-1 -1 -26 -20q-2 -1 -8.5 -6.5t-10.5 -7.5q-2 -2 -6.5 -6t-5.5 -5q-14 -14 -22 -19q-4 -4 -12 -13.5t-14 -15.5q-16 -17 -40 -52q-4 -7 -20 -27l-3 -4q-5 -9 -16.5 -24t-12.5 -17
q-23 -32 -26 -40q-2 -4 -6 -11.5t-7.5 -13.5t-7.5 -11q-6 -10 -14 -31l-12 -26q-6 -11 -21 -51q-2 -6 -5 -10q-8 -24 -13 -36l-15 -35l-20 -48q0 -2 -0.5 -4t-0.5 -3q-1 -5 -5 -15q-4 -5 -9 -15t-9 -16q-3 -7 -9 -1v1q-16 21 -17 30q0 1 -9 25l-8 22l-3 18l-2 11
q-8 22 -9 36q-1 6 -3 18.5t-4 18.5q-8 51 -8 53q0 1 -0.5 4t-0.5 5q-2 32 0 44v8v85q0 23 3 45v4q-1 20 4 46q1 7 2.5 21t3.5 21q3 20 3 37q0 1 0.5 3t0.5 4l4 23q1 6 2.5 18t3.5 18q-2 0 -3 -1q-18 -6 -29 -11l-25 -12q-2 -1 -6 -2.5t-6 -2.5q-7 -3 -21 -10.5t-22 -11.5
q-18 -8 -55 -29q-26 -12 -38 -19q-13 -8 -27 -18l-4 -3q-22 -17 -39 -39q-10 -13 -17 -37q-2 -18 -2 -26q-2 -25 2 -43q6 -28 22 -47q9 -9 21 -15q6 -5 13 -6q6 -2 7 -2q39 -5 64 1q21 3 34 16q16 18 21 29q7 12 10 32q2 8 2 13q3 12 -2 30q-8 31 -9 32q-9 13 -19 18
q-1 0 -2 1q-3 2 -2 5q0 3 4 2q8 -1 10 -4q13 -10 19 -23q5 -10 6 -21q5 -13 5 -26q0 -31 -7 -46q-8 -18 -17 -33q-6 -9 -25 -24q-22 -12 -41 -13q-22 -3 -51 2q-6 0 -14 5q-19 7 -24 12q-2 1 -9 8q-14 18 -17 32q-4 8 -11 41v7v32q0 8 4 15q1 2 2.5 7.5t3.5 7.5q1 6 19 34
q19 21 34 30q12 11 24 16q6 5 19.5 12t15.5 8l42 23q5 2 21 10t25 12l54 27q6 2 16 6t13 5q4 2 17 8l12 4q11 3 13 -9q2 -7 4 -29q0 -4 1 -9.5t1 -7.5v-21v-2q3 -14 3 -28q0 -1 0.5 -3t0.5 -4q0 -4 0.5 -10t0.5 -9v-8q0 -1 -0.5 -4t-0.5 -4q1 -13 1 -39v-33t1 -34
q0 -5 0.5 -10.5t1.5 -12.5t1 -11v-21q0 -4 0.5 -10t0.5 -10q1 -11 1 -31q0 -26 2 -33q3 -15 3 -30q1 -3 1 -10.5v-11.5q0 -9 2 -27v-13q0 -3 0.5 -7t0.5 -6q3 -11 5 -32v-11t1 -11q0 -5 2 -19h2z" />
    <glyph glyph-name="W" unicode="W" horiz-adv-x="850" 
d="M560 516l-1 1q-3 -3 -19 -18l-5 -6q-12 -12 -17 -19l-24 -33q-6 -10 -9 -17q-1 -2 -3 -5.5t-4 -5.5q-10 -16 -17 -31l-24 -46l-20 -43l-9 -18q-4 -8 -10 -24l-21 -54l-7 -19l-8 -25q-10 -24 -14 -36q-13 -33 -27 -58l-13 -20q-4 -9 -19 -24q-5 -4 -26 -16h-2
q-17 -2 -26 1q-11 3 -19 14q-8 16 -12 36q-3 15 -3 31v14v13v36q2 22 2 35q2 26 4 32l4 24q2 20 5 32q1 5 2.5 15t3.5 16l3 16q1 4 2 14t3 15t3.5 16t3.5 17q3 19 11 53q2 6 3.5 18.5t2.5 18.5l4 20l4 19l4 27q2 18 2 29q1 2 1 11l2 34q0 16 -4 28q-3 14 -17 14
q-16 -2 -28 -10q-3 -2 -7.5 -4.5t-6.5 -3.5q-11 -6 -34 -22q-6 -3 -18 -12l-10 -9l-13 -11q-11 -11 -17 -19l-5 -4q-17 -15 -30 -33l-7 -7l-21 -27q-1 -2 -3 -5t-3 -4q-15 -19 -27 -46q-6 -12 -12 -44q-5 -28 -4 -48l3 -15q2 -12 5 -18q13 -20 24 -27l19 -12q11 -6 23 -5
q20 0 29 1q17 1 27 15q14 17 20 37q4 17 -3 36q-3 9 -16 12q-8 2 -17 -3q-6 -4 -7 -8l-3 -7q-1 -4 -6 -2q-2 2 -1 6q3 10 4 11l3 3q16 12 33 6q18 -5 22 -26q5 -29 -11 -55q-4 -9 -20 -25q-7 -5 -23 -7q-8 -2 -39 -2q-8 0 -22 8q-3 1 -6 3t-7 4.5t-6 3.5l-10 9
q-10 11 -16 25l-3 12t-4 12q0 1 -0.5 2t-0.5 2q0 35 4 54l9 38q1 2 2.5 5.5t3.5 5.5q3 5 8 16t9 16q21 28 23 31q3 5 8.5 12t7.5 9l14 15q3 4 18 19l7 7q11 13 24 24q3 3 17 16q2 1 20 14q9 8 41 23l15 10q22 10 33 13q22 4 41 -3q14 -7 20 -15q1 -3 4 -7t5 -8t3 -9
q3 -13 4 -14l9 -48l2 -21v-32v-9.5v-10v-8.5q0 -10 -2 -32v-1q-2 -6 -2.5 -15.5t-1.5 -14.5q0 -3 -1 -4q0 -2 -1.5 -8t-1.5 -10q-2 -4 -4 -12l-3 -12q-1 -3 -2.5 -9t-3.5 -10v-1q0 -9 -5 -27q-2 -4 -3.5 -13t-2.5 -14l-8 -28l-7 -30q-10 -33 -17 -65q-5 -15 -6 -31
q0 -3 -2 -11q-5 -18 -6 -34q-1 -5 -1 -46q1 -8 1 -22q0 -1 2 -7q4 -6 11 -2q12 9 20 22q9 15 25 45q5 9 12 26.5t8 20.5l21 58q4 16 16 41q1 2 3.5 10t4.5 13l15 35q3 6 6 12.5t7 15t6 13.5l9 18l13 25l6 10t5.5 10.5t4.5 8.5q2 6 5 10q3 5 8 14t9 13l23 34q5 7 17 19v1l1 2
l19 19l12 13q17 21 34 33h1q4 4 7 2q3 -1 3 -7q0 -2 -1 -4.5t-2 -4.5t-1 -3q-3 -9 -8.5 -27.5t-9.5 -28.5q-1 -2 -2.5 -5.5t-1.5 -4.5l-3 -13q0 -3 -2 -17q-3 -8 -5 -25l-8 -49l-3 -27l-2 -26q-2 -16 -2 -26q-2 -7 -4 -33l-2 -41v-18l-3 -45q-1 -8 -1 -24q5 -28 1 -50
q0 -2 1 -4v-3q2 -7 4 -35q1 -4 2.5 -12.5t3.5 -12.5v-1q3 -10 12.5 -10.5t12.5 5.5q1 1 18 28q7 12 8 14l8 18q2 5 16 46q1 3 2 8.5t3 8.5q4 9 16 47q1 2 5 19.5t7 26.5l15 48q13 42 15 46q3 8 5 12q2 5 8 17t8 18q1 1 11 30q2 2 3 5.5t2 5.5t6.5 12t9.5 15l3 9l7 12
q13 25 30 51q11 18 23 32l21 32l10 8q0 2 3 -1q4 -4 20 -13l1 -1q4 -3 10.5 -8t9.5 -9q6 -5 7 -6t1 -3.5t-4 -7.5q-1 -2 -7 -8l-9 -15q-5 -10 -12 -21l-12 -22q-2 -3 -13 -22q-3 -5 -7.5 -14t-8.5 -14l-5 -6l-9 -22l-9 -19l-8 -19l-9 -15l-3 -11q-2 -2 -3 -6t-2 -6l-8 -20
q-4 -6 -8.5 -18.5t-7.5 -18.5q-2 -4 -5 -12t-5 -12q-11 -24 -16 -32q-3 -6 -7 -17t-6 -16q-3 -3 -6 -9l-7 -18q-15 -31 -22 -42l-10 -19q-1 -1 -3 -4.5t-4 -5.5q-3 -7 -11 -21q-18 -24 -23 -29q-9 -9 -22 -17q-5 -2 -5 -3q-12 -7 -26 -8q-12 -1 -22 3q-13 5 -28 20
q0 2 -2 3.5t-2 3.5l-8 21l-2 13q0 8 -1 10q-3 17 -3 34q-2 14 -2 20v12v17.5t-1 17.5q-2 24 1 38q0 3 0.5 8.5t1 10.5t1.5 9q1 9 2.5 25.5t3.5 24.5q0 4 0.5 7.5t1.5 8t1 7.5q2 30 5 45q3 31 14 70q1 3 2 9.5t3 10.5l9 32q5 18 16 39z" />
    <glyph glyph-name="X" unicode="X" horiz-adv-x="476" 
d="M213 237q-3 -5 -15 -28l-23 -46q-19 -35 -26 -45l-26 -37q-16 -22 -27 -29q-9 -8 -15 -15q-15 -10 -41 -26q-9 -6 -20 -9q-16 -4 -31 0q-18 7 -21 9l-5 4q-3 5 0 6q2 2 6 -1q15 -12 33 -13q13 -1 29 8l35 21q7 5 18 16h1l1 1q10 7 27 28l6 8q21 29 29 42q9 13 15 27
l18 36q2 5 6.5 12.5t6.5 12.5q10 15 14 30q1 1 1 6q-6 34 -7 44q-1 9 -2.5 26t-3.5 26q0 12 -2 17v1l-1 1q1 11 -4 30q-1 4 -4 25q0 2 -2 16l-2 17q0 2 -0.5 4t-0.5 4l-9 45q-2 6 -3.5 16t-2.5 15l-3 21q0 1 -1 3.5t-1.5 4.5t-0.5 4q-6 18 -10 27q-7 16 -23 7q-9 -3 -22 -16
l-10 -9q-16 -16 -28 -37l-8 -13q-3 -4 -5 -2q-4 1 -2 6l1 1v1q26 40 36 50q29 24 31 25q20 11 41 9q7 0 15 -5q2 -2 7 -4.5t8.5 -5t5.5 -6.5l2 -4q12 -15 17 -34l12 -32q16 -49 20 -74q0 -12 4 -21q4 -15 10 -47v-2q4 -12 6 -30q0 -6 1 -8l4 5q19 27 24 37q2 4 6.5 9t5.5 7
q11 13 18 25q14 18 22 26l19 21l7 7t8 9q11 11 16 18l14 15q4 5 11.5 11.5t9.5 8.5q10 10 22 16q3 2 7.5 6t8.5 6q3 3 7 5q1 1 2.5 0.5t1.5 -2.5q2 -3 -2 -5l-13 -11q-4 -4 -7 -5q-5 -3 -13 -9t-9 -7q-16 -14 -23 -22q-5 -6 -14 -17t-15 -16q-5 -7 -11.5 -13.5t-14 -14.5
t-11.5 -12t-9.5 -12t-9.5 -12l-24 -32l-10 -14l-10 -14q-2 -1 -3 -3l-2 -4t-3.5 -7.5t-5.5 -8.5q-4 -4 -2 -10t3 -16t3 -16q2 -5 3 -14t2 -14l3 -18q2 -4 3 -13.5t2 -13.5q2 -6 3.5 -17.5t3.5 -17.5q1 -3 4 -22q1 -5 2.5 -14.5t2.5 -14.5q1 -3 3 -10t3 -11q2 -8 5 -25t6 -25
q4 -14 7 -20q1 -2 7 -11q6 -16 16 -29q2 -4 6 -9q7 -5 11 -13q2 -3 19 -10h4l14 4q2 0 4 1.5t3 1.5q3 2 7.5 7.5t5.5 6.5q7 13 9 14q3 4 7 0q0 -1 1 -2q-5 -12 -15 -22q-5 -8 -8 -9q-9 -9 -22 -14h-9q-14 0 -22 4q-21 9 -27 13q-31 27 -36 32l-24 34q-7 8 -15 27l-6 10
q-1 2 -4 8.5t-5 11.5q-17 41 -19 50q-4 18 -7 26q-2 8 -5.5 25.5t-4.5 20.5q0 1 -0.5 4t-0.5 5z" />
    <glyph glyph-name="Y" unicode="Y" horiz-adv-x="541" 
d="M353 -24l2 45l-8 -4q-19 -11 -43 -31q-10 -10 -14 -13l-17 -16q-11 -9 -39 -39l-19 -20q-12 -17 -14 -19q-3 -5 -12.5 -20t-14.5 -23q-4 -5 -8.5 -15.5t-7.5 -15.5l-4 -9q-4 -9 -5 -17q-1 -5 -3.5 -12.5t-4 -13.5t-1.5 -12q0 -7 -2 -29q-1 -2 -1 -11v-32v-7l12 -35
q0 -2 1 -3q17 -17 26 -20q11 -4 35 -4h1l33 13q3 1 5.5 3t4.5 3.5t4.5 3.5t4.5 4l6 5q3 6 10 17t9 16q1 3 16 42l4 15q6 17 10 31l8 45q0 3 1.5 10t2.5 11l3 14l4 26q0 7 8 55q5 14 6 26q0 23 1 36zM434 99v-23l8 5l25 13q6 3 18 8t18 9q6 1 7 -3q2 -5 -2 -6l-5 -2
q-29 -14 -41 -20q-8 -5 -19 -10l-3 -2q-9 -4 -9 -14l-3 -31v-1q0 -15 -2 -41l-3 -23q-1 -7 -2 -23t-3 -23q0 -2 -1.5 -13t-1.5 -17q-1 -6 -2 -17.5t-3 -17.5l-3 -16q-4 -12 -9 -34t-6 -25q-2 -7 -6 -21.5t-5 -21.5q0 -1 -0.5 -4t-0.5 -5q-3 -7 -8.5 -25t-9.5 -27
q-3 -4 -8.5 -15t-10.5 -17l-9 -9q-16 -16 -34 -23q-5 -4 -9 -4q-6 -4 -31 -13q-10 -2 -16 -2q-43 0 -59 4q-30 12 -42 29l-3 4l-12 39v1l-1 2q1 8 1 24v24q0 5 0.5 10.5t1.5 12t1 10.5q3 19 9 37q1 4 2.5 9t2.5 8q3 5 5 13l12 23l11 18q5 9 14 22.5t12 17.5q6 9 18 22t15 16
q8 9 36 35q6 6 15.5 14.5t13.5 12.5q15 15 51 36l5 4q4 1 6 8q0 4 2 14q2 14 2 18l1 22q0 22 -1 22q0 19 2 24q1 2 1 8q2 30 2 46q4 19 4 74v6q-1 -1 -2 -1l-20 -34l-26 -43q-3 -5 -9 -17t-10 -17q-3 -8 -12 -20q-1 -1 -2 -3l-2 -4q-5 -8 -15.5 -22.5t-15.5 -22.5
q-1 -2 -14 -20l-6 -7l-32 -27l-12 -11l-21 -12l-8 -3q-16 -7 -31 -6h-7q-10 -2 -15 2q-1 0 -2 1q-6 0 -16 2q-4 0 -5 1q-16 9 -22 15q-2 4 -16 17l-2 2q-15 17 -20 41q-1 1 -3 8l-2 6q-2 16 -1 25q0 9 -1 11q-3 15 0 28l2 27v4q3 5 4 15.5t2 14.5q2 3 4 11t3 11q3 7 3 15
q2 14 4 17l11 28q3 13 13 35l3 10l6 13q5 10 11 28q1 1 1 2q7 7 14 26q1 3 2.5 5.5t3.5 5t3 4.5q2 2 3 5t2 4q2 4 7 9.5t7 8.5q2 5 8 14.5t7 11.5q4 6 9.5 18.5t8.5 18.5q1 2 3 6.5t4 6.5t3 5q6 18 6 28q5 24 -3 50q-3 9 -9 17q-12 15 -30 12q-34 -4 -68 -26
q-8 -5 -21 -14.5t-21 -13.5l-10 -9q-26 -24 -34 -37q-2 -3 -5 -8t-4 -9q-3 -6 -9 -19q-10 -18 -12 -38q-2 -19 0 -36q4 -25 30 -29q11 -4 23 8q6 6 8 15q0 6 -3 7q-6 2 -7 -5v-4q-2 -2 -5 -2t-5 2v3q-1 9 12 15q10 4 16 -5q4 -7 0 -17q-6 -16 -20.5 -23.5t-33.5 0.5
q-24 10 -24 34q-4 30 3 58l13 28q1 3 2.5 6.5t2.5 6t2 4.5q16 29 35 44l12 11q16 13 41 30l30 18q16 7 18 8t7.5 2.5t7.5 3.5q4 2 11.5 3t11.5 3q6 2 23 0q18 -2 28 -6q20 -8 30 -26q9 -15 9 -37q1 -15 -4 -41q0 -9 -4 -18q-1 -2 -1.5 -6.5t-2.5 -6.5l-9 -27q-4 -9 -14 -25
l-21 -42q-1 0 -2 -1q-2 -3 -21 -44q-12 -24 -26 -74q-1 -6 -3.5 -17t-3.5 -16l-2 -17q-2 -22 -5 -35q-2 -6 -4 -32q-2 -14 0 -57q0 -2 3 -23q3 -8 7 -26l11 -22q0 -1 2 -3q1 -1 1 -3q8 -11 32 -21q3 -1 14 -1q9 0 17 3h1q1 1 2 1q1 1 14.5 13t20.5 19q4 4 16 24q3 4 11 14.5
t13 17.5q1 4 5 9q9 11 11 16q2 3 4 6.5t4.5 8t3.5 6.5l24 44q2 3 6 8.5t5 8.5l27 44l8 13q4 7 4 15q0 27 1 31q0 4 1.5 10.5t1.5 8.5v5v42q2 16 2 24q2 14 2 24v3q1 1 4 25q10 51 14 60q4 10 14 13q6 0 8 1q9 3 23 5q11 2 18 -3l7 -2q7 -1 5 -7q-3 -4 -5 -23q0 -1 -1 -4
t-1 -5q-2 -4 -2.5 -12t-1.5 -12l-6 -36v-3q2 -1 0.5 -14t-1.5 -15q0 -6 -1.5 -17t-1.5 -13v-4q-2 -14 -2 -20v-20q0 -23 -1 -35q-2 -35 -5 -53q-2 -10 -2 -12q0 -4 -0.5 -12t-0.5 -13l-4 -45l-2 -18q-2 -18 -2 -26q-1 -7 -1 -22q0 -3 -2 -17z" />
    <glyph glyph-name="Z" unicode="Z" horiz-adv-x="560" 
d="M519 580v-4q3 1 3 2q10 9 23 17q14 14 17 23q2 3 4 12q0 4 -3 6q-7 6 -14 -1q-11 -11 -13 -15q-2 -5 -5 -13t-4 -10zM96 60q-4 2 -14.5 10t-17.5 12q-22 11 -26 14q-14 7 -23 8q-17 4 -44 -1q-22 -5 -29 -26l-3 -13q-2 -23 15 -40q5 -6 15 -13t13 -10q13 -10 27 -7
q17 3 33 12q14 9 27 22q13 18 27 32zM153 30q2 -2 5 -3l2 -1l44 -19q29 -10 39 -15l21 -9q5 -1 28 -9q7 0 23 -6q6 -2 19 -3.5t20 -2.5q3 -1 18 -1q23 -4 52 1q13 2 19 5l21 8q21 15 22 16q9 7 23 29q6 13 6 37q-5 33 -37 40q-22 0 -28 -4q-1 -1 -6 -1q-2 1 -2 3l-1 2
q0 2 2 4q7 4 16 4q20 2 35 -5q19 -7 27 -28l1 -4q0 -4 2 -6q4 -35 -20 -66q-7 -7 -9 -10l-2 -4q-30 -18 -36 -19q-2 -2 -6.5 -3t-6.5 -2q-8 -7 -19 -5q-18 -3 -22 -4h-14q-10 2 -29 3.5t-29 2.5q-5 0 -9.5 1.5t-10 3.5t-9.5 3l-16 3l-14 4q-11 4 -30.5 12t-27.5 11
q-24 9 -56 24q-2 1 -5 2t-5 3q-3 3 -8 0q-1 0 -1 -1q-6 -7 -26 -14q-17 -8 -55 -22q-11 -4 -32 -4q-24 0 -35 5q-7 4 -14 6q-18 13 -30 25q-17 17 -17 44q0 17 12 36q8 12 23 14q19 6 42 3q21 -2 35 -11l22 -11q21 -11 33 -20l5 -5q3 5 11 13q5 10 17.5 26.5t16.5 22.5
q2 2 7 10.5t9 13.5q3 4 34 46q2 4 6 7.5t5 4.5q3 5 9.5 13.5t10.5 14.5q7 7 21 25l16 22q2 4 6 10t5 9q4 4 15 20l9 12q15 23 17 26l27 35l20 30q5 6 13.5 18t14.5 18q5 6 15 19t16 20l21 26q3 5 9.5 13t9.5 14q-1 0 -4.5 0.5t-5.5 0.5q-7 0 -27 4q-9 2 -39 11q-4 1 -22 8.5
t-20 8.5q-4 0 -12 5q-1 1 -38 16q-6 2 -8 5q-16 6 -59 16q-12 5 -28 6q-3 2 -35 2q-14 4 -50 -5q-3 -1 -12 -3t-13 -4t-12 -5.5t-13.5 -6.5t-10.5 -8q-19 -19 -19 -39q-2 -15 -1 -21q0 -9 2 -15l6 -13q7 -11 24 -17q8 -4 23 -2q11 0 17 10q8 8 2 19l-2 1q-1 5 2 7t6 -1
q4 -3 4 -9q2 -15 -5.5 -25t-23.5 -11t-28 2q-18 6 -27 21q-13 22 -10 41q1 3 1 13q0 15 13 33.5t29 26.5q4 2 19 6.5t24 8.5q31 8 38 7q6 0 20 -2q2 0 16 -0.5t16 -0.5q11 -1 66 -15q4 -2 19.5 -6.5t20.5 -7.5q6 -2 22.5 -9.5t20.5 -8.5q4 -2 10 -4q14 -8 31 -12l31 -11
q19 -3 34 -3h14q5 -2 10 7q2 3 7 9t10 11q2 7 9 12q3 4 7.5 11.5t8.5 11.5q12 12 21 16q13 4 25 -3q9 -6 8 -16q0 -14 -11 -27q-6 -10 -18 -18q-9 -7 -10 -7q-12 -9 -18 -12l-5 -6q-5 -17 -12 -33l-22 -48q-6 -9 -14.5 -28t-9.5 -22q-13 -32 -26 -49l-23 -42
q-1 -2 -10 -15.5t-13 -22.5q-2 -4 -8.5 -15.5t-11.5 -17.5v-1q-6 -6 -14 -18t-13 -18q-6 -9 -21 -26t-18 -21l-8 -8q-1 -1 -9.5 -10.5t-12.5 -14.5q-6 -6 -16.5 -17.5t-15.5 -16.5q-14 -16 -28 -31l-15 -15l-31 -32q0 -1 -1.5 -2t-3.5 -2.5t-3 -2.5z" />
    <glyph glyph-name="bracketleft" unicode="[" horiz-adv-x="250" 
d="M186 658l23 2l26 -2l12 1l41 -3q3 -2 2 -5.5t-6 -3.5h-19l-35 1l-8 1l-25 -1l-28 -1q-1 -3 -1 -11t-2 -12q-1 -7 -1 -19q-1 -12 -6 -34q0 -4 -1.5 -11.5t-0.5 -12.5q0 -2 -2 -9t-1 -12q-3 -9 -3 -20q-1 -2 -1 -25q-3 -8 -5 -22q1 -5 0 -13t0 -13q0 -2 -0.5 -7.5
t-0.5 -9.5q-2 -27 -2 -31q-1 -5 -1.5 -16t-2.5 -17l-2 -18q0 -8 -1 -11q1 -6 -0.5 -14.5t-1.5 -11.5q-1 -4 -1 -10.5v-9.5q0 -17 -3 -25q5 -18 0 -32q1 -8 -1 -19.5t-2 -15.5t-0.5 -12t-0.5 -11l-1 -5q0 -5 -2 -7q1 -16 0 -31q0 -9 -1 -14q0 -4 -0.5 -12t-0.5 -13
q0 -6 -1.5 -15t-1.5 -14q1 -7 -2 -19q-1 -6 0 -19.5t-1 -19.5l-1 -3q1 -6 -0.5 -18.5t-1.5 -17.5q-1 -4 -1 -15t-2 -16q0 -11 -3 -23q0 -8 1 -10q-1 -6 -1.5 -17t-2.5 -17q-1 -1 -3 -21l35 2l11 2l43 -3h15q2 0 4 -3t1 -5.5t-4 -2.5l-30 1l-8 1h-26l-36 1l-26 1h-26h-8h-4
q-2 -2 -5 -0.5t-4 5t1 7.5l2 17q2 18 4 26q-1 6 4 21v23t2 20v14q2 5 2.5 15.5t0.5 11.5q0 19 2 24q0 5 1.5 14t1.5 15q2 12 0 26q3 21 3 22l2 10q2 9 0 31l5 35q0 12 -1 15q4 12 4 29l1 9q3 30 3 31q0 6 2 24q1 7 1 19q0 15 3 30v20l4 38q2 6 -2 10q2 7 3.5 20.5t2.5 19.5
q3 18 2 23q0 5 2 15q2 27 3 29q0 11 1 18l2 21q0 6 2.5 18.5t2.5 17.5q2 32 3 35q2 4 3 12.5t2 12.5q0 8 3 19q1 9 17 8h35z" />
    <glyph glyph-name="backslash" unicode="\" horiz-adv-x="250" 
d="M10 652q1 1 -1 2l-1 2q2 9 3 9h3q3 0 5 -5q3 -4 5 -11q3 -10 7.5 -29.5t8.5 -29.5q6 -20 13 -47l13 -47l18 -61q6 -34 40 -135q1 -7 11 -43l26 -81q4 -13 15 -50.5t18 -57.5l28 -90q2 -7 6.5 -21t6.5 -21l4 -14q2 -6 -3 -8q0 -2 -2 0q-1 -2 -2 -1t-2 3t-3 7t-4 9l-46 147
q-6 19 -16.5 56t-14.5 52q-13 32 -18 51l-15 57q-6 14 -23.5 73t-19.5 74q-5 15 -14 47.5t-15 48.5q-4 15 -13 45t-13 46t-5 23z" />
    <glyph glyph-name="bracketright" unicode="]" horiz-adv-x="250" 
d="M79 -172l-23 -2l-26 2l-12 -1l-40 3q-3 2 -2 5.5t6 3.5h19l34 -1l8 -1l25 1l28 1q2 3 2 11t1 12q1 7 1 19q1 12 6 34q0 4 1.5 11.5t0.5 12.5q0 2 2 9t1 12q3 9 3 20q1 2 1 25q3 8 5 22v13v13q0 2 0.5 7.5t0.5 9.5q2 27 2 31q2 6 2.5 16.5t1.5 16.5l2 18q0 8 1 11
q-1 6 0.5 14.5t1.5 11.5v10.5t1 9.5q0 17 3 25q-5 18 0 32q-1 8 1 19.5t2 15.5t0.5 12t0.5 11v5q1 5 3 7q-1 15 0 31q0 9 1 14q0 4 0.5 12t0.5 13q0 6 1.5 15t1.5 14q-1 7 2 19q2 6 1 19t0 20l1 3q-1 6 0.5 18.5t1.5 17.5q2 4 2 15t1 16q0 11 3 23q0 8 -1 10q1 6 2 17.5
t2 16.5q1 1 3 21l-35 -2l-11 -2l-43 3h-15q-2 0 -4 3t-1 5.5t4 2.5l30 -1l8 -1h26l36 -1l26 -1h26h8h4q2 2 5 0.5t4 -5t-1 -7.5l-2 -17q-2 -18 -4 -26q1 -6 -4 -21v-23t-2 -20v-14q-2 -5 -2.5 -15.5t-0.5 -11.5q0 -19 -2 -24q0 -6 -1.5 -15t-1.5 -14q-2 -12 0 -26
q-3 -21 -3 -22l-2 -10q-2 -9 0 -31l-5 -35q0 -12 1 -15q-4 -12 -4 -29l-1 -9q-3 -30 -3 -31q0 -6 -2 -24q-1 -7 -1 -19q0 -15 -3 -30v-20l-4 -38q-2 -6 2 -10q-2 -7 -3.5 -20.5t-2.5 -19.5q-3 -18 -2 -23q0 -5 -2 -15q-2 -27 -3 -29q0 -11 -1 -18l-2 -21q0 -6 -2.5 -18.5
t-2.5 -17.5q-2 -32 -3 -35q-2 -4 -3 -12.5t-2 -12.5q0 -8 -3 -19q-1 -9 -17 -8h-35z" />
    <glyph glyph-name="asciicircum" unicode="^" horiz-adv-x="400" 
d="M204 304l-5 -4l-24 -30t-23 -31q-5 -6 -46 -64l-21 -28q-4 -6 -8 -4q-3 1 -4 4t1 5q4 9 9 15l6 8q24 33 26 36t16 21t20 29q4 7 40 52l5 4q12 10 19 -3q5 -8 15.5 -24t15.5 -24l19 -29q19 -29 29 -43q3 -5 10.5 -13t9.5 -11q3 -7 11 -19q3 -4 -3 -8q-5 -4 -7 1q-2 2 -2 3
q-3 6 -10 14.5t-9 11.5l-55 78l-18 30q-11 18 -17 23z" />
    <glyph glyph-name="underscore" unicode="_" horiz-adv-x="500" 
d="M31 14l20 -2l18 1l21 -1l41 2l60 -2l19 2l117 -2h52q22 0 33 1q8 0 8 -9q0 -6 -5.5 -11t-13.5 -6l-21 -1l-101 2l-19 -2l-21 2h-61h-41l-38 -2l-82 1q-7 0 -7 5q0 7 6.5 14.5t14.5 7.5z" />
    <glyph glyph-name="grave" unicode="`" horiz-adv-x="100" 
d="M307 410q1 -4 1 -10v-9q0 -12 1 -15q0 -2 -0.5 -7t-0.5 -8t0.5 -8t0.5 -9q0 -8 -2 -22v-24q1 -2 -1.5 -2.5t-4.5 2.5q-4 16 -11 37q-3 14 -5 17l-8 24q-3 5 -12 29q-11 17 5 28q1 0 3.5 1t4.5 1.5t4 0.5q8 2 17 -3q8 -6 8 -23z" />
    <glyph glyph-name="a" unicode="a" horiz-adv-x="343" 
d="M181 120l7 19l3 13l10 28q2 4 4.5 12.5t4.5 12.5q2 3 4 10t4 9q7 16 9 18t8 2q19 -6 34 -8q13 -4 13 -6q4 -7 -1 -12q-2 -5 -11 -29l-9 -21q-4 -7 -7 -17l-4 -11q-5 -11 -9 -23q-9 -25 -9 -28q-5 -20 -5 -29v-3v-15q0 -9 3 -12q1 -4 7 -6q7 -4 15 -3l10 3q5 2 27 19
q2 3 8.5 10t8.5 11l16 20q7 8 19 28l10 15q12 22 14 24l18 30q3 5 6 1q1 -1 1 -3q-1 -2 -5 -9.5t-6 -9.5q-26 -44 -51 -83q-2 -4 -7.5 -10t-7.5 -9q-3 -3 -12 -14t-15 -17q-7 -6 -18 -11.5t-14 -7.5q-14 -11 -44 -9q-18 3 -32.5 19.5t-11.5 46.5q-2 -2 -9.5 -11.5
t-11.5 -14.5q-15 -17 -48 -33q-15 -6 -27 -6q-40 0 -62 53q-8 30 -8 56q0 27 2 35q6 35 8 45q0 3 5 15q18 43 29 55q25 34 39 45q29 22 52 32t58 11q55 2 79 -29q11 -17 11 -41q0 -1 -0.5 -8t-2.5 -11q-1 -1 -6 -1q-7 2 -6 6q0 2 3 10.5t2 14.5q-1 31 -37 46q-24 5 -44 -2
q-39 -21 -59 -48q-34 -41 -47 -80l-6 -24q-10 -29 -10 -78q0 -28 6 -44q13 -24 34 -24q19 0 37 21q2 2 25 38q8 22 9 27z" />
    <glyph glyph-name="b" unicode="b" horiz-adv-x="315" 
d="M33 513q0 8 -5 15q-4 7 -16 12q-16 5 -30 2l-9 -3q-22 -13 -31 -32q-6 -18 -6 -31q0 -18 9 -45q3 -8 9 -15q4 -8 13 -15q12 -13 38 -20l9 -2q4 -2 20 -4l9 34q1 4 3.5 10.5t4.5 12t4 10.5q3 6 15 38q2 6 8.5 19t8.5 21q2 4 9.5 17t10.5 19l12 22q1 1 7.5 11t8.5 17
q4 4 18 22l6 6l14 14q5 3 15.5 11t16.5 12q1 1 20 9q10 6 33 6h7q6 -1 23 -8q12 -7 14 -31q2 -18 2 -22q0 -19 -6 -38q-1 -3 -2.5 -10t-3.5 -11q-4 -12 -27 -58q-9 -16 -21 -30q-1 -2 -23 -30q-3 -4 -13.5 -13.5t-14.5 -15.5q-1 -1 -4 -3t-4 -3q-5 -7 -16 -16q-6 -3 -10 -7
q-12 -8 -22 -11q-30 -11 -32 -11l-2 -2q0 -2 -5 -21t-5 -21q-7 -35 -16 -105q-1 -14 -3 -41t-4 -41q-2 -41 -1 -60q2 -72 37 -72h9q28 4 43 18q19 14 26 26q10 14 15 28l8 18q-10 6 -11 7q-11 7 -16 15t-12 22q-5 22 -5 36q0 18 1 27q0 13 6 37q2 14 13 39.5t20 36.5
q1 1 7.5 9.5t11.5 10.5q15 6 28 0q21 -13 27 -45q3 -33 -3 -58v-5q-1 -5 -3 -9q-4 -12 -8.5 -32.5t-8.5 -33.5q-12 -29 -25 -54q3 -1 16 -1q14 0 29 5q11 4 25 14q9 7 24 22q13 15 16 20q4 4 16 24q2 3 4.5 2t2.5 -4t-10 -16l-14 -18q-4 -7 -25 -28q-1 0 -6 -5t-9 -7
q-26 -18 -56 -18q-10 0 -17 1q-9 -15 -18 -28l-22 -26q-6 -9 -33 -27q-26 -14 -42 -14q-14 0 -26 4q-7 2 -15.5 5.5t-13.5 4.5q-20 19 -28.5 33t-14.5 43q-4 14 -6 53q-2 4 0 36.5t2 36.5q3 38 3 40q1 18 17 91q0 7 5 22v4q-12 1 -34 7q-21 6 -38 19q-11 9 -18 22q-3 3 -5 8
q-11 21 -11 52q0 20 4 31q5 12 18 25q12 12 27 17l6 2q9 4 21 2q11 -2 20 -8q10 -6 16 -16q3 -7 3 -15q0 -23 -19 -41q-13 -13 -20 -6q-3 4 -1 8q16 7 18 9q13 13 13 30zM124 427l-14 -34q-1 -6 -5 -15q8 0 12 2q18 3 34 15q14 9 24 20q5 3 15 13q3 5 13 14t14 16
q11 11 20 23q4 6 12 18.5t12 18.5q8 14 14 31q10 28 12 32q4 12 6 46q-1 10 -4 16q-6 10 -12 9q-8 0 -12 -1q-20 -9 -23 -11q-8 -7 -21.5 -22t-18.5 -20q-1 -4 -3.5 -7t-5.5 -8l-6 -10q-3 -2 -5.5 -6t-4.5 -10t-3 -8q-11 -19 -13 -28l-10 -21q-1 -2 -2.5 -6.5t-3.5 -7.5
q-2 -4 -7 -24q-1 -2 -5.5 -15.5t-8.5 -19.5zM179 137q9 -25 30 -33l5 15q3 8 4.5 16.5t2.5 20.5t2 18q2 9 4 41q0 16 -1 25q-2 29 -12 42q-3 5 -9 4q-12 -5 -20 -35l-7 -28q-6 -26 -6 -47q0 -22 7 -39z" />
    <glyph glyph-name="c" unicode="c" horiz-adv-x="260" 
d="M303 182q2 2 4 0t1 -4q-2 -2 -3 -5t-2 -5l-2 -1q-1 -1 -6.5 -10t-15 -24.5t-17.5 -27.5q0 -1 -14 -19l-9 -12q-3 -3 -8.5 -10.5t-9.5 -10.5l-15 -15q-8 -8 -10 -9l-7 -6q-2 -2 -9 -6t-8 -4l-8 -4q-1 -1 -3 -1q-26 -7 -41 -7h-7q-4 0 -14 2q-1 0 -4 0.5t-4 0.5q-3 0 -8 3
l-13 4l-16 9q-6 2 -19 14q-7 6 -21 30q-6 14 -6 18q0 7 -3 16q-4 12 -2 19q-4 14 -2 36l2 11l4 23q1 25 19 56l4 7q15 22 27 35l12 11q5 5 27 19q10 6 35 14q4 3 11 4q14 2 22 2q18 0 36 -11q10 -8 16.5 -18t5.5 -14q10 -27 1 -42l-4 -15l-1 -3q-2 -3 -2 -5q-5 -12 -10 -17
q-6 -8 -16 -12q-3 -2 -16 -2q-4 0 -10 2q-16 7 -14 19v1q-2 4 1 12q2 8 7 13l9 10q4 -1 4 -4q-1 -2 -3 -3l-3 -3t-1 -6t3 -8q4 -3 15 -3q2 0 4 0.5t4 0.5q9 5 18 24q2 4 4 20q2 15 -1 24q-6 14 -16 18q-14 6 -24 6q-6 0 -22 -7q-9 -4 -21 -16q-8 -6 -11 -11l-14 -16
q-10 -16 -14 -25l-4 -10q-5 -12 -6 -19q0 -3 -2 -5q-2 -4 -2.5 -11t-1.5 -12l-2 -11l-1 -18l-2 -17v-12q0 -19 2 -26q0 -4 6 -25l2.5 -5t1.5 -4l3 -6q2 -3 4 -7t3.5 -6.5t4 -5.5t6.5 -6q12 -9 15 -10q2 0 7.5 -2t10.5 -3q17 -2 23 0q11 2 25 8q8 3 16 11l15 15l9 10l21 26
q4 6 11 15t9 13l8 12q6 12 16 25q10 18 16 24z" />
    <glyph glyph-name="d" unicode="d" horiz-adv-x="376" 
d="M249 361q1 4 2.5 8t2.5 6t1.5 4t0.5 3q5 25 10 45l6 20q3 15 8 31q2 4 3 11.5t3 11.5l6 25l8 29l10 33q-33 16 -44 36t-6 53q3 21 16 20q6 -1 6 -7q-1 -2 -7 -8.5t-8 -13.5q-5 -24 9 -44.5t38 -26.5q2 4 5.5 10t7 11.5t7.5 10.5q17 21 29 25q20 12 22 12q5 1 11 3.5t8 3
t7 1.5t8 -1q22 -3 21 -21q-2 -18 -23.5 -39.5t-48.5 -32.5l-7 -23l-13 -52l-11 -48l-3 -21l-8 -35l-8 -39q-1 -4 -3 -12.5t-4 -12.5l-8 -35q0 -3 -3 -12q-2 -4 -3 -9.5t-2 -9.5l-4 -19q-6 -16 -6 -27l-4 -18q-4 -15 -9 -53l-3 -14q-1 -3 -1 -8l-3 -27q-2 -14 -2 -19
q0 -19 1 -31v-6.5t2 -7.5q3 -12 11 -15q7 -1 19 3q6 3 18 11l21 20l24 32q12 18 21 29l9 14l10 18l8 11q2 4 11 19q3 4 5 -2v-2q-4 -10 -8 -15l-12 -21q-10 -17 -35 -54q-22 -34 -38 -46l-26 -23q-4 -4 -14 -9q-15 -9 -33 -11q-14 0 -17 1q-11 4 -18 11q-9 8 -11 18
q-4 8 -8 32q-1 4 -1 16q-9 -22 -26 -39q-15 -17 -46 -32q-15 -7 -36 -7q-28 0 -54 15l-12 8q-17 20 -20 32q-8 40 -8 55q0 26 3 38q3 27 7 41q0 3 5 15q18 43 29 55q25 34 39 45q39 29 100 31q39 0 59 -12l1 7q4 16 6 31zM209 162l1 5q0 5 1 11.5t1 11.5q1 4 2 8.5t1.5 8.5
t0.5 6l9 44l5 24l5 18q0 3 1 6l2 6t1 4q-5 3 -14 6q-24 6 -43 -1q-34 -16 -49 -36q-34 -41 -46 -77l-7 -27q-10 -30 -10 -78q0 -29 7 -47q11 -30 42 -30q23 0 48 22q18 16 28 43q6 18 14 72zM369 588q2 0 29 16q26 24 29 47q0 10 -7 11t-14 -6t-8 -11q-8 -9 -14 -21
q-9 -20 -15 -36z" />
    <glyph glyph-name="e" unicode="e" 
d="M129 2l-20 -2q-3 0 -8 0.5t-9.5 1t-7.5 1.5q-4 1 -13 2.5t-13 3.5q-11 5 -29 21q-6 5 -16 19q-5 6 -6 12q-5 7 -6 15q-7 38 -3 60l3 24q-45 16 -45 60q0 19 10 19q6 -2 6 -5q-6 -14 -6 -19q0 -40 37 -48v1q1 2 2 7t3 7q1 2 3 11.5t4 14.5q11 27 29 49q15 19 33 36
q4 5 28 20l16 8q17 7 43 9q18 0 29 -5q17 -10 19 -13q14 -12 14 -30q1 -12 0 -22q0 -6 -6 -20q-16 -25 -21 -30q-7 -9 -12 -12q-4 -4 -14 -10t-13 -9q-29 -19 -56 -24l-24 -3h-8q-7 -1 -9 -1v-16q-1 -2 2 -25q2 -19 6 -38q2 -5 17 -29q11 -14 23 -14q2 0 7.5 -2t10.5 -2
q20 0 27 3q15 2 28 8q5 1 9.5 4.5t11.5 10t10 8.5q13 12 31 34q9 15 21 28l7 12q1 2 7 11t9 14q4 5 10.5 14t6.5 10q2 2 4.5 0t1.5 -4q-2 -2 -3.5 -5l-2.5 -5l-2 -1q-2 -5 -39 -62q-2 -4 -5 -7.5l-6 -7t-4 -4.5l-10 -12q-4 -4 -9.5 -11.5t-7.5 -9.5l-15 -14l-19 -16l-31 -14
q-26 -7 -30 -7zM72 203q-2 -6 -3 -12.5t-2.5 -15t-2.5 -13.5q2 -2 7 -2q9 0 24 4q21 4 37 16l4 3q3 3 5 4l11 12q8 11 13 25q2 4 3.5 10.5t3.5 8.5q1 3 4 22q3 7 3 22q0 17 -1 20q-1 4 -7 10q-10 6 -25 -5l-26 -25q-1 -1 -3.5 -6.5t-4.5 -7.5q-12 -13 -18 -29q-4 -5 -14 -28
q-6 -8 -8 -13z" />
    <glyph glyph-name="f" unicode="f" horiz-adv-x="233" 
d="M55 510q0 10 -5 15q-5 8 -16 11q-15 4 -31 0q-25 -11 -38 -42q-5 -11 -3 -29q2 -21 14 -44l9 -14q4 -6 15 -14q18 -13 43 -18l8 -1q7 -1 17 -1q4 12 9 30l7 30q8 21 10 30q2 7 8 20.5t8 21.5q0 1 18 40q4 11 7 18.5t6 12t4 6.5l22 38q2 4 6.5 10t5.5 9q16 20 29 28l8 4
t7 5q4 3 36 10h7q10 0 24 -6q14 -8 18 -24q2 -5 4 -24q1 -16 -5 -43q0 -1 -3 -22q-6 -24 -16 -46q-4 -11 -18 -32q-14 -22 -21 -31q-4 -6 -14 -17.5t-11 -13.5q-8 -13 -22 -23q-2 -3 -5.5 -5.5t-4.5 -3.5q-6 -6 -21 -13q-8 -5 -28 -12l-1 -4l-2 -6l-2 -4v-1l-4 -18l-4 -32
q0 -3 -6.5 -33t-6.5 -40q0 -3 -1.5 -8.5t-2.5 -10.5l-4 -21l-2 -14l-11 -37l-5 -24l-9 -35l-5 -25l-7 -28l-3 -26l-12 -65q-3 -10 -3 -14t-2 -14q-2 -9 -5 -32q-3 -17 -3 -52q0 -23 2 -35t5 -19t4 -10q3 -10 17 -15q14 -6 25 -1q2 1 7 3t7 4q1 1 5.5 4t5.5 5q10 13 20 34
q9 19 19 67q10 56 10 93q0 53 -12 89q-7 -3 -17 -3q-36 0 -33 35q2 26 20 30q17 2 23 -8q13 -16 15 -28l3 -12q22 12 33 23q1 1 7.5 8.5t8.5 10.5q14 16 18 25l27 39l13 21l5 -6q-28 -50 -56 -84q-21 -26 -50 -44l-3 -2q8 -34 8 -83q0 -64 -10 -103q-10 -42 -11 -46
q-1 -1 -6 -16.5t-7 -20.5l-6 -13l-11 -22q-5 -11 -12 -20q-8 -11 -21 -18q-24 -22 -67 -9q-21 12 -26 17q-32 42 -32 93q0 19 5 59q1 20 7 49q5 27 14 78t15 80q2 11 5.5 24.5t3.5 16.5q3 7 3 22l4 13q2 6 3.5 14.5t2.5 14.5q1 5 3 18.5t3 19.5q6 35 10 44q0 11 6 29
q2 30 5 39q0 1 2.5 14t3.5 17v4q-17 0 -32 4q-19 4 -39 15q-7 6 -20 21l-6 8q-13 22 -16 50q-1 19 3 31q9 21 15 28q1 1 10.5 8.5t13.5 9.5q17 8 28 6q11 0 21 -6q9 -4 16 -14q5 -6 5 -15q3 -21 -15 -42q-11 -14 -20 -7q-3 3 -2 7q12 5 17 10q12 16 10 31zM148 395l-3 -15
q8 0 11 3q12 3 28 16l21 17q3 3 8 9.5t8 8.5q4 7 13 17.5t10 11.5q11 15 13 20q4 6 5 9q16 30 20 39l6 18l6 26q6 23 6 48q0 14 -3 19q-5 9 -12 8q-7 0 -11 -3q-3 -1 -21 -17q-7 -7 -11.5 -14t-10.5 -14q-3 -4 -17 -29q-2 -2 -20 -39q-9 -20 -11 -28q0 -11 -16 -45
q-6 -24 -10 -33q-6 -16 -9 -33zM142 52q9 0 12 1v2q-8 20 -15 26q-4 4 -11 4q-11 -2 -11 -16q0 -17 25 -17z" />
    <glyph glyph-name="g" unicode="g" horiz-adv-x="351" 
d="M184 75q-10 -20 -34 -44q-19 -17 -48 -25q-12 -4 -39 -4q-45 0 -65 51q-6 23 -6 56q0 22 1 33q1 8 2 17t2 14.5t1 6.5q1 6 9 24q18 42 21 45q34 43 49 53q66 45 116 45q56 0 79 -29q11 -17 11 -41q0 -15 -4 -19q-1 -1 -6 -1q-7 2 -6 6q0 2 3 9t3 16q0 32 -37 46
q-26 5 -49 -5q-43 -22 -72 -59q-17 -17 -29 -45q-5 -13 -8.5 -22t-5 -15t-2.5 -8q-10 -30 -10 -78q0 -35 9 -55q7 -24 32 -24q17 -3 48 22q15 13 28 41q2 4 5 11.5t5.5 13.5t2.5 8q5 14 6 19l4 13q2 6 3.5 14.5t2.5 14.5q2 8 4 29q1 5 1 16q3 13 7 18q2 2 9 2q5 -1 21 -4
t21 -5q13 -4 13 -6q2 -2 -1 -12q-1 -9 -5 -26q-2 -10 -2 -20q0 -5 -3 -17q0 -1 -1.5 -5t-2.5 -6l-5 -27l-8 -28l-6 -32l-2 -14q-2 -14 -3 -14q-1 -1 -1 -4l14 11q28 20 31 23q2 3 10 9.5t10 9.5l22 23l13 15q11 13 17 22q3 4 11.5 15.5t12.5 18.5q2 4 6.5 10.5t6.5 9.5
l2 -10q-17 -31 -51 -74q-30 -38 -61 -64q-30 -22 -36 -25l-10 -7l-3 -12q-3 -9 -6.5 -25.5t-4.5 -20.5l-4 -14q-2 -5 -5 -15.5t-6.5 -20.5t-6.5 -18q-2 -5 -5 -15.5t-5 -14.5q-4 -10 -13.5 -28t-13.5 -28q-3 -11 -13 -27q-5 -11 -17 -28q-13 -19 -38 -37q-17 -13 -29 -17
q-19 -7 -27 -7q-16 0 -28 9q-15 9 -21 32q-5 21 -4 35t7 35t21 45q6 9 21 30q4 5 13.5 15.5t10.5 11.5l17 16q6 5 16 12t15 13q7 6 17.5 13t17.5 13q3 4 11 8l3 8l6 27q1 4 4.5 17t6.5 26t7 25zM139 -91l15 51q-6 -6 -13 -10.5t-13 -9.5q-3 -2 -26 -21l-25 -23
q-5 -6 -13 -14.5t-13 -14.5q-18 -18 -27 -32q-14 -27 -19 -45q-7 -25 -5 -39q0 -14 7 -22t16 -8q20 0 33 11q5 4 26 33q19 36 22 45q2 6 8 19.5t8 21.5q4 10 10 29.5t9 28.5z" />
    <glyph glyph-name="h" unicode="h" horiz-adv-x="354" 
d="M171 475l-21 -72q-2 -13 -6 -26h1l7 7q7 7 17.5 19.5t14.5 16.5q9 11 26 28q4 6 12.5 17t9.5 13q10 12 25 40q12 19 18 32q15 29 23 53q6 24 5 42q0 6 -1 8q-4 16 -20 10q-20 -9 -29 -17q-13 -11 -25 -27q-8 -16 -13 -24q-2 -4 -9 -22q-3 -9 -9 -22.5t-7 -17.5
q-3 -9 -9 -28.5t-10 -29.5zM272 9q-23 -13 -58 -9q-48 5 -48 51q2 32 6 48q3 7 7.5 24.5t9.5 27.5q5 13 14.5 41t15.5 43q6 14 8 40v19q-2 15 -19 20t-32 -1q-22 -8 -43 -34q-16 -20 -22 -34q-5 -9 -6 -14q-1 -14 -6 -28q-2 -4 -3 -11t-2 -11q-3 -14 -5.5 -28.5t-4.5 -24.5
l-10 -45q-2 -7 -3 -20.5t-3 -19.5t-4 -18l-3 -18q-1 -10 -12 -10h-54q-4 1 -4 6l2 18q1 6 3 17.5t4 17.5q2 4 2.5 11t1.5 10l8 38l10 49l3 17q1 4 2 12.5t3 13.5q2 9 5.5 23l4.5 18l4 20l13 58q12 46 14 55l8 30q1 4 3 9.5t3 9.5l3 14q3 17 16 53q11 29 11 30q4 10 12 29
t12 28l12 27q4 5 10 16t9 17t7 10q7 12 23 25l29 16q4 1 15.5 1.5t15.5 2.5q0 1 3 0.5t4 -0.5q13 3 26 -8q12 -7 15 -25q4 -16 2 -38q-1 -14 -6 -31q-3 -10 -22 -51q-4 -6 -10.5 -18t-8.5 -15q-13 -24 -16 -27q-2 -4 -6.5 -9t-6.5 -9q-6 -9 -18.5 -23.5t-15.5 -18.5l-36 -42
q-10 -10 -21 -18q-5 -3 -5 -8q-7 -38 -16 -60q-2 -4 -5 -16.5t-4 -16.5q15 22 28 36q10 12 26 21q18 9 29 11q29 7 58 -4q33 -14 41 -40q2 -38 -2 -47q-2 -6 -6.5 -21.5t-5.5 -22.5q-3 -10 -12 -29q-1 -2 -12 -35q-11 -26 -15 -48q-6 -18 -7 -40q-1 -14 3 -18q5 -8 25 -8
q5 0 11 3t9.5 5.5t11.5 9t10 8.5q6 5 14.5 17.5t10.5 15.5l21 29q2 5 8 13q12 19 16 28q14 19 22 33l2 5l2 -8l-1 -4q-1 -2 -10 -18l-7 -11q-7 -11 -20.5 -32.5t-25.5 -39.5q-22 -29 -32 -39q-4 -3 -8.5 -6t-7.5 -7q-1 -1 -6.5 -4.5t-10.5 -8.5z" />
    <glyph glyph-name="i" unicode="i" horiz-adv-x="173" 
d="M130 458q22 0 22 -15q0 -24 -23 -42q-7 -7 -21 -2q-6 1 -12 6q-3 7 -3 16q0 16 10 23l10 9q7 5 17 5zM2 102q-2 8 -2 9l2 23l2 22q2 4 2 12t2 12q2 16 5 23q6 29 13 51q7 19 15 53l6 18q0 3 3 5q3 3 7 3q4 -2 10 -1t8 -1l28 -2q2 -2 6 -1t6 -1q4 0 2 -5v-7l-15 -45
q-4 -13 -9 -28q-7 -25 -7 -26q-5 -11 -6 -20l-2 -15q-1 -4 -3.5 -14.5t-4.5 -17.5q0 -10 -1 -17q-4 -12 -2 -31q0 -3 -1 -8t-1 -9t0.5 -9.5t0.5 -7.5q1 -4 2.5 -11t1.5 -10q6 -17 19 -17q12 0 18 6q9 5 20 18q2 3 7 9.5t8 8.5q4 3 9 11t8 11q5 6 6 10q14 18 17 25
q14 20 22 36q8 14 10 16q6 6 6 1v-3q-41 -69 -47 -77q-33 -50 -47 -63q-16 -17 -32 -27q-10 -6 -22 -8q-5 -1 -8 -1.5t-4 -0.5h-9q-7 1 -21 9q-9 9 -15 21q-3 4 -3.5 8t-2.5 8q-2 3 -2.5 9t-1.5 9q0 11 -3 18q-2 3 -1 9.5t1 9.5z" />
    <glyph glyph-name="j" unicode="j" horiz-adv-x="191" 
d="M90 14l-14 -9l-4 -22q0 -1 -1 -5t-2 -7.5t-1 -7.5l-4 -14q-5 -31 -14 -53q-1 -4 -4 -14.5t-6 -16.5l-21 -58q-3 -5 -6.5 -14.5t-5.5 -12.5q-7 -17 -18 -34q-2 -6 -6 -10q-10 -16 -22 -25q-19 -15 -27 -17q-6 -3 -32 -3q-6 0 -12 2q-18 5 -22 8q-15 11 -18 22q-7 21 -7 36
q0 13 8 42q2 11 12 28t12 20q9 14 22 30q21 24 23 26q2 3 8 8t9 8q6 5 16 12.5t15 12.5t9.5 8.5t10 7t8.5 5.5l5 22q1 4 3 12.5t2 12.5l2 8q0 2 1.5 6.5t1.5 5.5q8 44 14 60q0 4 2 11t3 12l5 23q2 20 5 28q2 4 4 23l13 75q4 21 5 24q1 6 2.5 18.5t3.5 18.5q1 7 2 10t3 3.5
l6 1.5q6 0 26.5 -2.5t29.5 -1.5q4 -1 4 -5q0 -9 -4 -18q-2 -20 -10 -51q0 -2 -3.5 -25t-3.5 -26q-3 -23 -4 -25q-3 -21 -9 -41l-3 -21q-6 -42 -12 -58l-10 -49l16 12l16 12t15 12t11 9t10 9q18 18 21 23l13 15q14 16 17 22q4 6 12 17t12 17l13 20l2 -9q-21 -35 -51 -75
q-30 -38 -61 -64q-27 -19 -36 -25zM-145 -255q0 -3 3 -12q3 -8 15 -8q17 0 34 17q20 25 23 29l13 24l8 21l15 41l17 59l9 38l-7 -6q-19 -12 -25 -19l-26 -25l-26 -28q-22 -22 -26 -31q-20 -38 -23 -46q-6 -23 -4 -54zM141 486h3q3 -1 6 -2.5t4 -4.5v-1l1 -2q0 -1 1 -2
q2 -10 3 -21q3 -6 -5 -21t-20 -17q-14 -3 -19.5 5t-8.5 24q-4 15 5.5 26.5t29.5 15.5z" />
    <glyph glyph-name="k" unicode="k" horiz-adv-x="330" 
d="M31 553q-5 7 -12 10q-8 5 -20 3q-14 -3 -27 -13l-6 -8q-12 -21 -11 -43l10 -30q6 -10 30 -34q8 -5 16 -9q7 -5 18 -6q14 -5 31 -3l1 1q0 1 0.5 2.5t0.5 3.5q6 17 9 44q8 29 11 36q1 4 2.5 10.5t3.5 10.5q2 10 2 12q2 9 17 35l10 20q5 12 15 24q3 6 11 14q4 1 4 5
q2 3 9 10t8 9q16 14 22 17q2 2 6 4q2 2 4 3h2q3 0 5 2q7 2 14 6t13 4q2 0 9 1.5t11 1.5h8q14 0 26 -4q10 -6 17 -21q1 -3 4 -24v-15q0 -17 -3 -24q-1 -4 -2 -11.5t-3 -10.5q-15 -41 -20 -48q-7 -12 -19 -26q-4 -5 -11.5 -14.5t-8.5 -11.5l-11 -11t-15 -13l-1 -1l-6 -7
q-6 -7 -16 -13l-10 -8q-4 -3 -20 -12l-31 -8q-1 0 -3 -2v-8q-1 -3 -2 -9t-2 -10q-2 -6 -2.5 -11t-2.5 -11q-1 -4 -2.5 -12.5t-3.5 -12.5l-8 -35q0 -5 -2 -9q-4 -11 -9 -27l-4 -19q0 -3 -2.5 -10.5t-2.5 -11.5l-3 -18q-1 -5 -2 -14t-3 -14v-11t-2 -14v-10.5t-2 -13.5
q0 -6 -2 -20q-1 -1 -1 -5l-3 -26l-3 -28q0 -3 0.5 -14t-0.5 -19t-5 -12q-2 -4 -30 -8q-13 0 -18.5 5t-6 9.5t-0.5 17.5q0 2 2 16t2 16q0 14 3 24v27q0 13 1 20l3 20q2 18 2 25q0 2 1 6t1 6q1 3 4 23l6 44q5 12 7 26q1 3 2.5 8.5t1.5 9.5l7 31q3 11 5 29q1 5 2.5 14.5
t3.5 14.5l3 21q-15 -1 -30 2q-16 3 -26 10q-2 1 -4.5 2t-4.5 3q-19 10 -35 39q-9 15 -12 29q-2 15 3 31q8 21 15 28l4 4q4 8 17 13q11 3 21 3q12 0 22 -6q8 -7 10 -12q13 -22 4 -45q-4 -15 -10 -15q-2 -1 -4 0q-5 2 -5 7q11 13 11 16q4 20 -3 33zM209 360q-23 0 -38 -15
q-3 -3 -9 -17q-4 -2 -8 1q-9 10 8 23q12 11 45 16q18 4 40 -3q39 -18 40 -48q2 -24 -11 -47t-35 -35q-11 -7 -23.5 -11.5t-20 -5.5t-21 -3t-15.5 -2h1q11 -7 19 -21q9 -14 12 -26q0 -1 1.5 -8.5t1.5 -11.5l2 -18q1 -6 3 -16t2 -14q0 -10 4 -21q6 -25 14 -37q7 -13 21 -13
t38 19q6 5 15 18t11 15l21 29l8 13q12 19 16 28l21 31q5 8 5 -1l-1 -4l-10 -18l-7 -11q-7 -11 -20.5 -32.5t-26.5 -39.5q-16 -23 -32 -39q-6 -5 -16 -13l-10 -6q-7 -5 -14 -8q-4 -2 -11.5 -4t-10.5 -3t-12 -1h-7q-3 0 -12 3q-3 1 -6.5 3.5t-7.5 4.5q-8 6 -18 29l-5 12
q-8 21 -8 41l-1 11q-3 16 -3 31q0 17 -5 32q0 6 -1 7q-1 4 -10 20l-4 5q-1 4 -6 7q-4 2 -8 5l2 2q14 2 17 4q7 2 32 11q22 10 33 20q16 10 21 15l17 19q2 2 5 8.5t4 7.5q3 4 4 9t2 7q4 9 -1 23q-8 23 -31 23zM131 437q0 -4 -2 -14q4 -1 13 2q22 5 33 16q9 5 24 20q5 3 14 12
l7 7t8 9q8 6 12 12q2 4 8.5 11.5t8.5 11.5q1 1 5 7.5t6 8.5l8 16q5 8 6 14q2 2 3 6.5t2 6.5q4 13 6 27q2 17 1 26q-2 14 -6 21q-9 9 -18 7l-10 -2l-25 -14q-19 -17 -30 -31q-3 -4 -5 -8l-8 -14q-6 -6 -6 -9q-8 -8 -11 -23q-5 -9 -11 -25q0 -4 -2 -9t-3 -9l-7 -14
q0 -7 -5 -22q-1 -4 -2.5 -7t-3.5 -10q-5 -10 -10 -30z" />
    <glyph glyph-name="l" unicode="l" horiz-adv-x="218" 
d="M81 231q-1 -3 -1 -10.5v-11.5l12 17q5 6 17.5 22t19.5 27q3 5 11 16.5t12 18.5q6 9 16 28.5t16 28.5q10 16 15 29q25 47 31 68q3 9 15 36.5t19.5 49t9.5 38.5q7 39 4 50q-2 12 -12 12q-4 0 -22 -10q-14 -10 -22 -19q-12 -13 -29 -44q-4 -8 -16 -34.5t-19 -37.5
q-5 -8 -12 -27q-12 -26 -13 -31q-1 -1 -4.5 -10t-5.5 -14q-4 -10 -6 -22q-3 -8 -12 -43q-1 -4 -2.5 -9t-2.5 -8q-2 -4 -10 -35q-3 -12 -5 -31q0 -2 -2 -15t-2 -29zM134 8l-16 -8q-5 -2 -21 -2q-7 0 -17 2q-15 5 -24 13q-20 14 -30 37q-7 16 -13 52q-4 20 -4 60q-1 8 -1 25v2
q0 3 7 57q2 14 5 21q0 9 5 24q0 11 7 37q17 62 17 63q1 3 9 32q3 13 11 28q2 13 6 21q2 5 9 17q7 11 8 20q3 5 7 16.5t5 14.5q4 5 7 12t7 16.5t6 14.5q1 1 16 28t17 28q13 18 20 22q6 3 11.5 7t9.5 6.5t9 4.5q2 1 15 4q18 6 36 0q15 -6 17 -10q8 -8 12 -20q3 -15 3 -33
q-1 -15 -10 -51q-5 -24 -24.5 -68.5t-23.5 -54.5q-3 -9 -27 -59q-2 -4 -6 -11.5t-7.5 -14t-7.5 -13.5q-31 -54 -37 -64q-4 -7 -37 -51q-11 -15 -17 -22q-2 -2 -7.5 -11t-7.5 -11l-1 -11q-1 -6 -1 -16.5v-14.5q-4 -25 -2 -60q2 -22 6 -33q1 -1 4 -11q8 -17 22 -23q6 -2 14 -2
t18 5q2 1 5.5 3.5t7 5.5t6.5 6q6 6 19 20q2 3 25 34q15 24 20 30q1 1 4 6t5 7q6 12 10 18l7 11q1 4 3 7t4.5 6t3.5 5q3 4 5 -2v-2q-3 -7 -9 -15l-10 -20q-5 -9 -34 -54q-26 -42 -38 -50q-23 -23 -38 -31z" />
    <glyph glyph-name="m" unicode="m" horiz-adv-x="549" 
d="M466 9q-21 -13 -57 -9q-48 5 -48 51q2 32 5 48q3 8 8 25t9 27q5 13 14.5 41t15.5 43q3 5 9 40q1 3 -1 19q-2 15 -19 20t-32 -1q-23 -8 -42 -34q-15 -17 -23 -34q-3 -4 -5 -14q-2 -15 -8 -28q-2 -4 -3.5 -11.5t-2.5 -10.5q-4 -12 -7.5 -26.5t-7.5 -26.5q-2 -7 -7 -22
t-7 -23q-3 -10 -10 -40l-9 -36q-3 -10 -14 -10h-53q-5 2 -5 6q2 3 3 9t2 9l9 35q2 4 3 11t3 10l12 38q1 5 6 22.5t7 26.5l6 17l7 23q0 8 3 15q8 26 11 39q3 18 2 30q0 26 -30 28q-15 0 -29 -8q-22 -12 -41 -41l-11 -18q-3 -7 -15 -27v-4l-4 -15q-1 -3 -1 -15l-4 -22
q0 -1 -2 -11q-2 -14 -4 -19q-1 -6 -7 -30l-9 -28q-2 -7 -8 -20.5t-8 -18.5q-1 -1 -2 -5t-2 -5l-9 -18q0 -2 -4 -9q-4 1 -27 1q-3 0 -13.5 -1.5t-13.5 0.5h-11l-2 6q2 15 6 19l5 11q2 2 3 6t3 6q4 7 7 18.5t5 15.5t6 13.5t5 12.5q4 13 5 14q0 6 2 10l6 24q0 7 2 13
q0 2 1.5 4.5t1.5 3.5l2 9l5 26q2 7 2 33q0 9 2 27l2 27v20q19 3 32 -6q6 -4 10 -13q2 -4 6 -13t5 -13q7 -16 4 -23q0 -2 1.5 -7.5t1.5 -6.5q3 8 10 19l9 16q14 20 36 40l8 6q29 19 68 17q18 -2 27 -7t20 -20q5 -5 10 -18v-9q1 -9 3 -13v-6q1 0 1 0.5t1 0.5q15 22 28 36
q14 15 27 21q18 9 28 11q30 6 58 -4q33 -14 42 -40q0 -41 -2 -47q-2 -7 -7 -22t-6 -22l-12 -29q-2 -5 -5 -16t-7 -19q-8 -18 -15 -48q-6 -18 -7 -40q-1 -12 3 -16q5 -8 22 -8q6 0 10.5 1.5t10 4.5t7.5 4.5t9 7t8 6.5q5 4 9 9.5t9 13l7 10.5q5 5 11.5 15.5t9.5 13.5l8 13
q11 14 16 28q14 19 22 33l2 5l3 -8l-1 -4l-11 -18l-6 -11q-7 -11 -20.5 -32.5t-26.5 -39.5q-13 -21 -32 -39q-3 -3 -8 -6t-8 -7q-1 -1 -6.5 -4.5t-10.5 -8.5z" />
    <glyph glyph-name="n" unicode="n" horiz-adv-x="365" 
d="M411 187l1 -8l-2 -6l-15 -26q-16 -29 -37 -58q-36 -47 -63 -66l-4 -3q-3 -2 -19 -12l-15 -5q-7 -3 -17 -3q-11 0 -18 4q-12 5 -17 18q0 2 -4 9q-1 1 -8 33q-3 17 2 43l8 36q1 3 3 10t4 11q7 17 17 55q8 26 11 39q3 18 2 30q0 26 -30 28q-15 0 -29 -8q-22 -12 -41 -41
l-11 -18q-3 -7 -15 -27v-4l-4 -15q-1 -3 -1 -15l-4 -22q0 -1 -2 -11q-2 -14 -4 -19q-1 -6 -7 -30l-9 -28q-2 -7 -8 -20.5t-8 -18.5q-1 -1 -2 -5t-2 -5l-9 -18q0 -2 -4 -9q-4 1 -27 1q-3 0 -13.5 -1.5t-13.5 0.5h-11l-2 6q2 15 6 19l5 11q2 2 3 6t3 6q4 7 7 18.5t5 15.5
t6 13.5t5 12.5q4 13 5 14q0 6 2 10l6 24q0 7 2 13q0 2 1.5 4.5t1.5 3.5l2 9l5 26q2 7 2 33q0 9 2 27l2 27v20q19 3 32 -6q6 -4 10 -13q2 -4 6 -13t5 -13q7 -16 4 -23q0 -2 1.5 -7.5t1.5 -6.5q3 8 10 19l9 16q14 20 36 40l8 6q29 19 68 17q18 -2 27 -7t20 -20q5 -5 10 -18
l4 -22q3 -19 -2 -49l-7 -27l-3 -12l-3 -12q-2 -8 -13 -34q-2 -4 -5 -13t-4 -11q-1 -6 -2.5 -13.5t-2.5 -13.5l-3 -15l-1 -12q-1 -7 -1 -15q0 -19 14 -19t27 13l25 23q7 7 26 33q11 17 21 30l8 12l16 28z" />
    <glyph glyph-name="o" unicode="o" horiz-adv-x="317" 
d="M242 101v-1q-21 -42 -53 -71q-24 -21 -56 -25q-32 -5 -66 5q-23 8 -47 42q-22 28 -24 69q-1 13 0 26q0 6 1.5 17.5t1.5 13.5q5 11 6 26q9 34 30 64l14 15q12 12 30 25q48 34 114 26q39 -7 60 -43q9 -17 15 -49q1 -11 1 -32q-3 -32 -4 -36l-9 -36q-1 -5 -3 -9.5
t-4.5 -10.5t-3.5 -10q3 0 9 -0.5t9 -0.5q12 0 23 4q13 5 22 10q3 1 12 8q8 8 11 12l4 5l11 18l12 18l6 -3q-3 -3 -4 -6l-1 -2q-1 -1 -5 -8t-7 -13q-7 -12 -12 -17q-4 -4 -14 -12q-25 -21 -63 -21q-2 0 -16 2zM205 69q1 1 3.5 7t6 14.5t6.5 13.5q-16 5 -36 16
q-27 19 -36.5 57t3.5 90q11 34 36 47q-12 2 -19 -2q-22 -9 -40 -27q-4 -3 -8.5 -8.5t-5.5 -6.5q0 -1 -1 -2t-2 -2.5t-1 -2.5q-12 -20 -23 -45q-15 -37 -19 -74v-11q-2 -5 -2 -25q2 -12 6 -22q7 -26 9 -29q15 -23 22 -29q15 -13 36 -11q2 1 9.5 3t12.5 4q12 7 17 12t26 33z
M199 125q5 -6 25 -13q1 4 2 7.5t2.5 9t2.5 9.5q19 83 -9 140q-8 15 -19 19q-6 2 -11 0q-3 -1 -9 -7q-5 -5 -11 -28q-8 -22 -8 -59q0 -10 2 -24q3 -12 3 -17q8 -23 30 -37z" />
    <glyph glyph-name="p" unicode="p" horiz-adv-x="330" 
d="M350 150l20 33q5 7 7 -3q-3 -9 -20 -35l-10 -14q-13 -16 -35 -40q-16 -16 -34 -23q-21 -9 -32 -6q-9 -16 -21 -31q-26 -32 -59 -32q-14 0 -22 4q-14 6 -19.5 20.5t-0.5 31.5q2 6 6 11.5t7 9t8.5 6t9 4t9 2t9 0.5t9.5 -0.5t8 -1t8 -1.5l5 -1q7 -2 15 -5t10 -3q10 26 16 88
q2 10 2 28.5v21.5q1 4 -0.5 13t-1.5 12q-6 31 -17 42q-13 11 -25 13q-9 1 -15 0q-3 0 -15 -5q-22 -10 -41 -36q-4 -6 -11 -14.5t-10 -13.5l-3 -15l-5 -36q-1 -4 -4 -25q0 -6 -2 -20l-3 -18t-4 -18l-7 -45q-2 -6 -3 -18.5t-3 -18.5q-2 -7 -3 -16t-2 -16q-2 -10 -5.5 -26.5
t-4.5 -26.5l-10 -43q-2 -7 -4 -17.5t-4.5 -19.5t-5.5 -17l-15 -48l-12 -34q-10 -23 -24 -39q-8 -10 -24 -15q-2 -1 -6 -2q-14 -2 -19 0l-6 3t-5 2q-22 14 -27 47q-5 35 -2 61q3 33 19 87l22 59l28 60q3 5 10 18.5t11 19.5q2 3 5.5 11t8.5 14q1 2 3.5 6t4.5 7q1 2 3 3.5
t2 3.5l4 43q2 8 3 22t2 22q0 6 2 20q0 29 7 52q0 6 4 30.5t4 28.5q2 21 10 39q1 2 4.5 4t4.5 3q4 1 9.5 4.5t9.5 5.5h2q9 4 17.5 8t15.5 7q10 3 14 3t4 -14q0 -19 -4 -35l-3 -22q0 -1 -3 -18l-3 -16q-1 -3 -6 -38q20 34 44 54q29 26 34 29q21 11 30 14q8 3 28 0q10 0 22 -12
q36 -33 24 -125q-5 -44 -43 -132q11 -2 27 7q18 9 28 19q22 22 33 38q9 11 11 16zM13 77l-7 -11q-3 -3 -24 -44q-2 -6 -8 -16t-9 -16q-2 -4 -5.5 -12.5t-5.5 -13.5l-20 -49q-2 -10 -8.5 -26t-9.5 -26q-11 -54 -12 -60q-3 -35 6 -72q8 -24 24 -28q8 -1 15 1q7 4 12 16t10 39
l9 52q2 7 4 25t3 25l8 64q2 6 4 32l3 19q1 7 2 20t3 20q1 10 2.5 30.5t3.5 30.5zM220 55q1 3 2 5l1.5 3t1 2.5t0.5 2.5q-16 6 -23 7q-8 3 -28 3q-13 0 -25 -6q-10 -5 -14 -14q-5 -12 -5 -19q0 -12 3 -17q3 -8 7 -9q8 -6 19 -6q15 0 31 10q19 14 30 38z" />
    <glyph glyph-name="q" unicode="q" horiz-adv-x="360" 
d="M307 2q2 10 -1 53q-12 -5 -16 -5q-25 0 -21 32q2 21 17 25q10 3 17 -6q10 -16 12 -27v-3q13 12 24 24l14 17l19 25q21 31 22 32l8 14q3 0 5 -2q1 -1 1 -3q-11 -19 -39 -57q-35 -44 -52 -58q3 -11 3 -35q0 -23 -4.5 -51.5t-11.5 -61t-8 -35.5q-7 -30 -17 -54q-1 -3 -4 -11
t-5 -13l-6 -14l-6 -12q-3 -8 -8 -15q-2 -4 -6 -10t-6 -10q-10 -19 -25 -29q-27 -17 -57 -8q-14 9 -20 16q-19 25 -15 56q7 60 11 75q2 13 11 45q33 152 40 176q-4 -9 -16.5 -24t-16.5 -17q-17 -15 -47 -26q-15 -5 -34 -5q-25 0 -43.5 14.5t-23.5 37.5q-10 38 -10 57
q0 13 1.5 22.5t1.5 15.5q7 43 12 57q6 19 16 37q17 31 47 56q8 8 25 19q15 13 49 24t67 11q56 0 79 -29q10 -16 10 -34q0 -28 -8 -36q-2 -2 -7 -2q-8 5 -5 9q1 2 4 6.5t5 10.5t2 14q0 16 -11 29t-28 18q-38 3 -59 -7q-42 -23 -53 -33l-8.5 -8.5t-9.5 -9t-7.5 -8t-5.5 -8.5
q-16 -22 -23 -38q-5 -12 -16 -45q0 -3 -3 -13.5t-3 -16.5q0 -7 -2.5 -23.5t-2.5 -24.5t2 -24q3 -19 8 -31q8 -23 32 -25q19 0 28 6q11 7 21 17q12 11 28 39l6 15t6 17q4 10 6 22l3 13q2 6 3 13.5t2 13.5q0 2 1.5 13t1.5 17l2 14q1 4 1 10t2 8q1 5 7 5q5 0 23 -2.5t24 -3.5
q1 0 4.5 -0.5t6 -1t2.5 -1.5q1 -2 1 -4.5t-0.5 -5.5t-0.5 -6q0 -8 -4 -25l-3 -23l-7 -28l-4 -20l-7 -35l-6 -32l-2 -14q-2 -14 -3 -14l-6 -26l-17 -70q-4 -15 -13 -58q-1 -5 -2.5 -15.5t-3.5 -15.5q-7 -30 -7 -56q0 -10 5 -22q1 -2 4 -4t5 -3q8 -5 18 0l10 8l7 9
q15 27 19 39q9 19 21 57q17 58 24 130zM290 60q7 0 14 4l-8 16q-5 5 -10 5q-9 -1 -9 -12q0 -13 13 -13z" />
    <glyph glyph-name="r" unicode="r" horiz-adv-x="271" 
d="M75 280q2 10 2 12l-6 4q-11 4 -22 16q-8 8 -11 17q-6 22 -6 31q0 16 7 27q3 7 8 9q12 7 15 7q15 0 23 -20l2 -7q3 -11 3 -41h3q4 -2 13 -3t14 -2q7 -1 21 -1q4 0 15.5 -0.5t15.5 1.5q6 2 16.5 2t16.5 2q12 5 18 5q4 0 9 -5q7 -7 0 -16l-10 -20l-11 -19q-9 -17 -14 -27
q-7 -12 -12 -26q-13 -38 -15 -43q-3 -10 -4 -15l-4 -13l-8 -35q0 -2 -0.5 -4t-0.5 -3q-3 -18 -3 -33q0 -16 4 -24q5 -8 11 -14q7 -7 22 -7q8 0 20 5q13 8 19 14l12 13q5 6 10.5 14t7.5 11l20 30l8 12l16 29q10 16 11 18q4 7 7 0q0 -3 -1 -4l-3 -6l-15 -26q-11 -20 -36 -58
q-32 -47 -58 -65q-28 -22 -60 -22q-20 0 -30 10t-12 13q-7 8 -10 24q-3 11 -3 23q0 23 5 55q1 8 6 23q7 28 16 51l3 12l14 34q3 9 9 21.5t7 15.5h-22q-20 0 -25 2l-11 3q-2 0 -3 0.5t-3 0.5q0 -2 -2 -12q-2 -12 -6 -25l-7 -24q-4 -13 -14 -39l-10 -23q-2 -5 -8 -17t-9 -19
t-19 -33q-1 -2 -5 -8t-6 -10q-1 -2 -16 -23l-12 -16l-26 -26q-16 -13 -28 -13q-15 0 -15 13t8 13q1 0 5.5 -0.5t8.5 -0.5q2 0 10 2l10 5q2 1 7 6t9 8q3 2 8 8.5t8 9.5t5.5 6.5t5 8t4.5 6.5l6 9q3 5 6.5 11t8 13.5t6.5 11.5l5 10q10 17 18 38q10 24 14 36q2 4 12 38q2 4 4 14
t3 14zM71 344l10 -5v15q-2 17 -3 18q-5 14 -14 14t-10 -13q-1 -5 4 -16q9 -12 13 -13z" />
    <glyph glyph-name="s" unicode="s" horiz-adv-x="254" 
d="M176 60q-4 -4 -8.5 -11.5t-6.5 -9.5l-7 -9q-2 -1 -8.5 -8.5t-12.5 -9.5l-9 -7l-6 -3q-6 -4 -13.5 -7.5t-14.5 -3.5l-8 -4q-4 -2 -9.5 -3t-8.5 -2q-2 0 -3 -1q-5 -2 -8 -1h-8q-21 0 -35 7q-10 5 -18 12q-13 15 -10 35q2 23 15 38q9 11 29 18q18 5 28 5q23 0 29 -2l11 -3
l19 -4l13 -4q0 2 -1 3v1v9v22l-4 10q0 11 -4 11l-5 12l-2 6l-5 12q-2 4 -3 10t-2 10q-7 7 -12 25l-6 12q0 2 -2.5 11.5t-2.5 15.5v13q0 13 4 25q-52 13 -52 61q0 18 10 18q6 -2 6 -4q-6 -14 -6 -19q0 -20 12 -33.5t32 -15.5l3 14q13 24 27 36l20 13l9 4.5l8 4t7 1.5
q20 0 21 -13q-2 -17 -14.5 -38t-26.5 -29l-4 -4v-17l4 -14q0 -8 10 -21l8 -20l11 -20q11 -25 14 -33q5 -20 5 -31q0 -2 -1 -6v-5q0 -2 1 -4t1 -15q0 -20 -6 -31q43 7 76 56l10 12q4 6 14 22.5t17 27.5l4 -7q-7 -16 -28 -47l-11 -13q-22 -29 -40 -43t-46 -17zM112 36l10 24
q2 6 2 11v2q-2 1 -10 4t-16 5h-2l-2 1q-11 3 -34 3q-11 0 -28 -5l-6 -3q-5 -2 -16 -13q-1 -1 -3 -7q-9 -13 -9 -26q-1 -11 4 -23l3 -4.5t1.5 -2.5t1.5 -2q4 -4 6 -5q24 -6 26 -6q19 0 33 8l9 6q20 13 30 33zM133 304v-4q3 1 3 2q30 30 29 52q-1 7 -6 7q-10 0 -17 -21
q0 -2 -2 -4q0 -17 -7 -32z" />
    <glyph glyph-name="t" unicode="t" horiz-adv-x="199" 
d="M107 20q16 0 39 23q5 5 10 11t10.5 13.5t8.5 11.5l21 29q2 5 8 13q12 19 16 28q3 4 10.5 15t11.5 18l1 3q0 1 1 0q2 -2 2 -6l-1 -4q-1 -2 -10 -18l-7 -11q-7 -11 -20.5 -32.5t-26.5 -39.5q-15 -24 -32 -39l-14 -13q-1 -1 -3 -2.5t-3.5 -2t-3 -2l-2.5 -2.5q-6 -5 -28 -13
q-15 -5 -30 -5q-13 1 -23 10q-12 11 -16 19q-6 13 -7 28l-3 25q-2 22 -2 28l2 24l2 21q1 2 4 29q2 40 5 55q3 20 4 24q8 42 14 65q4 14 4 15h-3q-1 0 -4 0.5t-5 0.5q-4 0 -10.5 0.5t-7.5 0.5q-4 0 -9.5 -0.5t-7.5 -0.5q-3 -1 -7 -1t-4 7q0 6 4 6q2 -1 6 -1h9q19 0 26 -2h11
q3 0 4 1q2 6 5 16t5 17l9 32q5 18 12 35q7 29 12 39q1 3 3 8t4 7q3 15 9 22q3 3 8 3q23 -5 41 -6q16 -4 17 -7q3 -7 -1 -14l-11 -33l-8 -22q-3 -6 -6.5 -19t-4.5 -16q-2 -6 -6.5 -16t-5.5 -14q0 -2 -2.5 -8t-2.5 -7q-2 -12 -6 -22q3 -2 14 -2h20q2 0 9.5 -0.5t9.5 -0.5h21
q5 0 5 -4q0 -9 -5 -9l-7 2l-16 2h-10h-9.5h-5.5q-3 0 -12 1t-16 1q-3 -7 -8.5 -27t-7.5 -25q-10 -50 -14 -77q-4 -19 -5 -38q-3 -10 -4 -25q0 -5 -1.5 -15t-2 -15t0.5 -16q0 -3 0.5 -8.5t0.5 -9.5t0.5 -9.5t0.5 -7.5q2 -14 5 -21q5 -20 22 -20z" />
    <glyph glyph-name="u" unicode="u" horiz-adv-x="367" 
d="M406 179l3 4q4 4 5 -2q0 -3 -1 -4q0 -1 -1 -2q-22 -37 -39 -64q-13 -22 -36 -53l-22 -22q-20 -20 -41 -29q-3 -3 -10 -5q-13 -5 -25 -6q-20 0 -37 13q-5 3 -11 16q-6 11 -9 33q-3 3 -5 -3q-15 -22 -28 -35q-24 -20 -52 -24q-5 -2 -21 -2q-10 0 -21 3q-14 3 -32 17
q-17 12 -24 41q-2 6 -4 35v6q0 13 2 27q2 24 5 41q1 4 2 11.5t3 11.5q2 5 5 16t5 17q1 2 4.5 16t5.5 18l14 35q2 7 7.5 17.5t7.5 15.5l8 21q1 3 8 3q8 0 33 -4q22 -3 33 -8q-5 -16 -11 -27t-6 -12l-11 -25q-2 -6 -8 -18.5t-8 -17.5q-4 -12 -6 -26q-14 -45 -17 -59
q0 -4 -2.5 -12.5t-3.5 -14.5q-4 -44 -4 -48q0 -26 8 -42q6 -16 30 -16h6h1q9 -1 20 5q17 9 26 20q27 32 30 56q0 2 1.5 7.5t2.5 9.5q8 32 10 42q1 5 2.5 15.5t3.5 14.5l8 25q8 35 13 49q9 35 10 36q13 29 14 30q4 4 22 4q4 0 10 -0.5t9 -0.5q1 0 30 -9q-8 -17 -10 -26
l-9 -30q-3 -5 -9 -28q0 -1 -3.5 -12t-5.5 -16q0 -3 -3.5 -13t-6.5 -25q-6 -25 -11 -37l-6 -21q-6 -26 -6 -53q1 -3 2 -10t2.5 -11t4.5 -6q7 -7 16 -7q8 -1 25 9l18 17q14 14 21 23q6 7 16 22t13 19q3 8 22 36l11 15z" />
    <glyph glyph-name="v" unicode="v" horiz-adv-x="292" 
d="M254 206q-11 -36 -28 -70l-2 -4q7 -4 30 -4q20 0 33 6l6 3t6 4q8 6 13 12l15 20l7 11q2 2 3.5 0t1.5 -4l-6 -10l-5 -7q-6 -10 -13 -17l-10 -9q-10 -9 -33 -15q-8 -2 -24 -2q-14 0 -27 5q-2 -2 -4.5 -6.5t-4.5 -8.5q-3 -5 -7 -13t-8 -13q-3 -5 -37 -47q-6 -8 -30 -25
t-49 -10q-19 6 -24 13q-1 1 -5 5.5t-6 6.5l-2 2q-2 3 -5 8t-4 7q-6 11 -8 26q-1 14 -6 30v13q-2 18 -2 27q0 10 -2 32q-1 4 -1 18q-1 0 -0.5 9.5t0.5 10.5q0 4 2 21v18v21q0 16 1 25q3 24 4 27t6 3l30 8q5 1 9 1.5t7.5 0t9.5 0.5q1 0 2 0.5t2 0.5q3 1 11 -2l-2 -8
q-2 -3 -1 -8t1 -7t-1 -5l-1 -2q3 -13 -3 -41q-3 -33 -4 -39q0 -6 0.5 -15t0.5 -15q0 -24 -1 -36q0 -27 -1 -39v-48q0 -1 0.5 -5t0.5 -6q7 -20 12 -24q13 -15 32 -7l14 10q22 23 26 28q5 7 8 11.5t6 9.5t5 9q6 10 10 21l6 13q-4 1 -10 7q-4 2 -10 11.5t-8 12.5q-7 18 -7 21
q0 1 -0.5 2t-0.5 2q-4 27 1 57q0 2 1 8t1 7l4 16l3 10q3 10 13 27q6 11 19 20q11 6 24 5q10 0 16 -7q7 -8 14 -33q2 -17 1 -26q-1 -10 -5 -31q-4 -16 -10 -34zM195 152q10 -13 16 -14q6 18 6 22q1 5 2 12t3 12q2 10 7 41q4 40 3 47q-4 31 -15 34q-7 1 -17 -10
q-8 -10 -11 -20q-4 -9 -5.5 -18.5t-2.5 -11.5l-2 -16q-1 -1 -1 -4v-5v-7v-7q4 -31 5 -34q2 -7 12 -21z" />
    <glyph glyph-name="w" unicode="w" horiz-adv-x="441" 
d="M408 206q-7 -34 -23 -68q-3 -9 -6 -13l-4 -8l-9 -17q3 -1 15 -1q11 0 20.5 2.5t13.5 4.5t11 7t8 6q7 5 18 20q2 3 6 7.5t6 7.5l14 20q3 7 6 10q2 2 4 -0.5t2 -3.5q-2 -2 -3 -5t-3 -4l-4 -7q-6 -10 -14 -18q-2 -2 -10.5 -13.5t-9.5 -12.5q-21 -21 -45 -27q-16 -4 -24 -4
q-12 0 -16 1q-2 -2 -2 -3q-4 -8 -34 -48q-10 -14 -27 -26q-22 -19 -49 -11q-23 8 -26 11l-3.5 3.5t-4 4.5t-3.5 3q-2 2 -4.5 6t-4.5 8.5t-3 5.5q-8 18 -13 41q-1 8 -1 18l-1 1q-1 -2 -5.5 -10.5t-10.5 -16.5q-3 -4 -9.5 -15t-10.5 -15q-14 -16 -36 -33q-8 -6 -22 -11
q-13 -4 -32 0l-7 2q-16 7 -18 9l-16 14q-2 2 -3 5t-3 4q0 1 -1 2q-9 15 -11 34q0 3 0.5 9t0.5 9q0 5 0.5 10t1.5 11t1 10q3 29 3 30l6 29l5 15q13 40 15 43q6 14 7 21l9 22l8 23q3 6 7 12.5t6 10.5q3 8 11 8h10q1 0 3 0.5t4 0.5h3q9 -1 22 0t20 1h17q4 0 3 -4
q-1 -2 -2.5 -6.5t-3.5 -6.5l-13 -23q-9 -15 -11 -24l-9 -17q-2 -4 -5 -11t-5 -11l-13 -31q-1 -3 -6.5 -18.5t-8.5 -21.5l-2 -12q-9 -27 -10 -44l-3 -28q-2 -17 3 -30q2 -8 5 -13q8 -14 21 -11q12 1 27 14q1 1 8 7.5t10 10.5q7 10 15 21.5t12 17.5q3 3 4.5 6t3 7t2.5 7
q2 2 4 25q0 4 1.5 11t1.5 12q1 10 8 47q1 3 2.5 9t3.5 8q9 14 17 12q5 -2 10.5 -2.5t6.5 -0.5q9 0 11 1l21 -3q2 0 11 -7l-3 -10q-6 -13 -7 -23q-1 -3 -2.5 -9.5t-3.5 -10.5q0 -2 -2 -12q-1 -2 -2 -6q-2 -5 -3 -14t-2 -14q-2 -4 -2 -10v-8q-6 -29 0 -50q7 -20 14 -27
q5 -6 15 -7.5t17 1.5q7 5 13 10q10 10 22 29q11 17 15 26q-1 2 -4 3t-5 3q-1 0 -17 19q-9 20 -9 26q0 1 -0.5 2t-0.5 2q-4 16 -2 51q0 2 1 10.5t1 9.5q1 4 3 15t4 15q5 26 10 37l11 25q8 13 18 20q11 6 24 5q10 0 16 -7q10 -10 16 -33q3 -9 3 -26q0 -16 -3 -31
q-1 -17 -7 -34zM343 109q3 -5 9 -6l7 16l6 19q5 15 5 24l4 24l6 45q0 35 -1 39q-6 31 -17 34q-8 2 -14 -8q-6 -8 -15 -35q-7 -16 -12 -59l-2 -16v-9q1 -2 1 -7v-7q4 -27 8 -34q3 -8 15 -20z" />
    <glyph glyph-name="x" unicode="x" horiz-adv-x="334" 
d="M148 53q-6 15 -7 31l-3 33q0 3 -0.5 10t-0.5 10v1l-37 -46l-27 -38q-6 -7 -12 -16l-8 -12l-7 -11q-5 -7 -9 -14.5t-6 -11.5t-3 -4q-8 0 -8 7q0 3 12 19l3 5q20 31 40 56l21 30q14 20 42 52q1 3 1 12l1 14q1 6 1 53q0 37 -4 53q-2 8 -6 12q-9 5 -17 -1l-7 -7l-8 -11
q-6 -8 -14 -26q-23 -49 -31 -62l-11 -19q0 -1 -6.5 -12t-9.5 -13q-4 -1 -5 3q1 6 7 13l19 34q18 32 20 39q10 25 23 45q9 16 17 24q10 9 20 17q13 11 36 11q11 0 18 -3q11 -4 21 -21q7 -16 7 -36l-3 -33l-3 -19l11 11q23 23 42 39l41 33q5 4 13.5 11t12.5 10l6 4q2 2 5 0
t3 -7q0 -3 -5 -7t-15 -10t-16 -11l-13 -10q-3 -2 -5 -3.5t-6 -5t-10 -8.5q-11 -8 -33 -30l-19 -19l-14 -14q-1 -3 -1 -12q0 -6 -2 -20.5t-2 -24.5q0 -36 3 -57l8 -33l5 -12q8 -15 19 -19q12 -5 23 -1l12 6q7 5 19 17l12 14q4 5 7.5 9.5t7 10t6.5 9.5q18 29 20 31l9 14
q8 15 10 17l7 11q1 4 3 6.5l4 5t3 4.5q3 3 4.5 2t1.5 -4q-1 -2 -3 -5t-3.5 -5.5t-2.5 -4.5l-10 -20l-34 -54q-26 -42 -38 -50q-23 -23 -38 -31l-20 -10q-11 -3 -21 -3q-2 0 -14 3q-8 3 -18 11q-19 13 -31 44z" />
    <glyph glyph-name="y" unicode="y" horiz-adv-x="357" 
d="M255 14l-11 -6l-2 -13q-3 -8 -6.5 -23t-5.5 -23l-3 -14q-16 -49 -18 -53q-1 -2 -4.5 -13.5t-6.5 -17.5q-4 -10 -13.5 -29t-12.5 -27q-10 -21 -13 -27l-17 -27q-14 -24 -34 -38q-8 -7 -28 -17q-4 -1 -12.5 -3t-12.5 -4h-7q-16 -1 -28 9q-16 12 -21 32q-6 24 -5 36
q1 14 7 35q2 9 22 44q6 11 21 31l24 26q1 2 4 4.5t6.5 5.5t6.5 6q6 6 15.5 13t15.5 12t16.5 12.5t17.5 13.5q2 2 12 8l2 9l7 26q2 8 4 17.5t3 14.5l9 33q-17 -25 -28 -37q-10 -12 -26 -21q-14 -7 -29 -10q-30 -6 -58 4q-15 5 -28 18.5t-15 25.5q-4 24 -3 46q0 30 7 54l11 45
q1 3 3 11t4 12q4 24 20 58q8 21 20 49l7 17q0 3 3 5q3 3 7 3q6 0 46 -8h4q9 -1 10 -3t0 -3q1 -3 -2 -8l-17 -45l-13 -31q-3 -5 -5.5 -13t-4.5 -12q-9 -18 -15 -42l-12 -41q-5 -13 -7 -31l-3 -33q0 -8 1 -16q-2 -17 6 -27q8 -14 25 -17.5t29 2.5q23 8 42 34q10 12 20 33
q6 14 6 15q2 9 7 25t7 24q2 11 4.5 26t5.5 28l10 45q2 6 3 17t3 17l9 39q2 11 12 10q6 0 24.5 -3t26.5 -3q4 -1 4 -5q-2 -17 -3 -18q-2 -29 -9 -54q-1 -6 -6 -18.5t-7 -19.5q-2 -8 -3 -21.5t-2 -21.5l-4 -18l-4 -25q-3 -15 -11 -41l-3 -20l-9 -40q-1 -1 -1 -3l14 9
q19 12 34 25l18 16q1 1 22 25l13 15q3 4 8.5 11t8.5 11q4 7 12 18t11 16q2 3 5.5 8t4.5 7q4 3 5 -4q-19 -31 -50 -75q-28 -35 -62 -64q-17 -14 -35 -25zM144 -96l15 51q-14 -9 -26 -20q-6 -4 -27 -21l-24 -23q-5 -4 -27 -28q-25 -30 -25 -31q-22 -41 -23 -46q-4 -15 -2 -45
q0 -2 4 -14q4 -11 24 -11q15 0 28 11q11 11 25 33q16 24 23 45q3 9 9 24t7 17z" />
    <glyph glyph-name="z" unicode="z" horiz-adv-x="283" 
d="M253 260q0 -21 -5 -39q-14 -36 -22 -52l-4 -7q-4 -7 -10.5 -16.5t-13.5 -16.5q-1 -2 -7 -7.5t-8 -8.5l-15 -15q-15 -15 -36 -27q11 -16 21 -43q0 -1 1.5 -4.5t4 -9.5t4.5 -12q42 31 89 83l11 12q19 22 30 39q26 36 31 45q2 3 4 1.5t2 -4.5l-5 -9q-1 -1 -7.5 -10
t-16 -22.5t-16.5 -23.5q-13 -19 -38 -44l-31 -31q-2 -1 -16.5 -15.5t-33.5 -28.5q6 -22 6 -37q0 -1 -0.5 -3t-0.5 -4q0 -4 1 -12t1 -9l-2 -8q0 -1 0.5 -3t0.5 -4q0 -7 -1.5 -16l-2.5 -15l-2 -6q0 -10 -4 -25q-16 -54 -24 -71l-5 -10l-19 -35q-3 -3 -9.5 -11t-12 -13
t-14.5 -11l-2 -1q-2 -1 -8 -3.5t-13 -3.5q-15 -3 -23 -3q0 -1 -3 -0.5t-4 0.5q-16 0 -28 5q-21 9 -33 27q-11 18 -11 30q0 21 1 25q1 10 3.5 15.5t6.5 13t6 11.5q11 17 39 51l3 4q10 12 48 47q4 3 19 16.5t26 22.5v3q0 1 1 4t1 4q0 2 -1 7t-1 7v15q-1 2 -1 6.5v6.5
q0 1 -0.5 4t-0.5 4q0 5 -7 35h-1q-26 -8 -45 -8q-10 0 -21.5 7.5t-11.5 21.5q0 9 4 14l3 4q11 16 37 16q20 0 40 -10q5 -1 7 -4l6 -5l15 21q2 4 7 9t7 9q0 1 1 2l3 6q2 2 4 8t3 8q11 25 14 35l6 22q6 26 6 37q0 2 -0.5 4t-0.5 4v9q0 23 -6 32q-11 14 -28 14q-15 0 -30 -16
l-8 -8q-4 -5 -10 -15.5t-8 -13.5q-13 -20 -28 -52q-21 -44 -24 -45q-2 -6 -6 -2q-3 3 -1 5q4 5 9 14.5t6 11.5q1 3 8 16t14 29q2 3 11 21t16 27q5 9 24 31q16 14 31 21q18 6 36 6q22 0 34 -6q5 -1 8 -4q7 -5 11.5 -11t6.5 -10.5t3 -5.5q0 -1 1 -5t2.5 -14t1.5 -24zM101 -80
l1 4q0 5 1 12t1 14q-25 -21 -68 -64q-1 0 -7 -6.5t-15 -17t-16 -20.5q-2 -3 -8 -9.5t-11.5 -15.5t-10.5 -21q-6 -14 -6 -33q2 -17 10 -25q6 -6 22 -6q27 0 51 22q17 17 23 37q9 17 19 60l3 11l10 48q0 2 0.5 5t0.5 5zM77 60q2 1 14 8l-7 13q-6 10 -11 11q-8 8 -21 8
q-11 0 -19 -7q-8 -8 -8 -17t6 -14l3 -2q8 -5 18 -5q13 0 25 5z" />
    <glyph glyph-name="braceleft" unicode="{" horiz-adv-x="250" 
d="M21 256q-6 2 -6 7q-4 13 8 13q2 0 5.5 -1.5t7.5 -1.5q12 0 27 9.5t22 30.5l1 16q1 23 -4 59l-4 18v14q-1 11 -3 35.5t-3 39t-0.5 34.5t3.5 35l9 33q15 42 51 72q6 4 18.5 7t19.5 6l10 2h10q5 0 14.5 -1t13.5 -1q19 -3 33.5 -10.5t15.5 -12.5v-3q-1 -2 -3 -2l-5 2
q-5 3 -13 6.5t-15 4.5h-8q-14 0 -28 -5q-28 -19 -40.5 -46t-18.5 -75l-5 -61q0 -24 4 -41v-5q3 -13 3 -23l2 -8q0 -6 2 -20l2 -8q0 -48 -14 -76l-8 -10q-22 -25 -59 -36q0 -2 11 -10t26.5 -21t23.5 -25l6 -9q2 -4 3.5 -11t2.5 -11l1 -8q1 -4 -1 -13t0 -15l-10 -76l-11 -44
l-4 -29q-5 -50 0 -74q5 -28 20.5 -51t42.5 -23q9 0 15 2q1 0 4 -1q6 0 14 5q1 1 4 3.5t5 3.5l2 1q2 0 4 -5q0 -2 -2 -4l-1 -3q-26 -15 -53 -15l-23 3q-85 21 -101 101q-6 43 3 94l8 24l3 16q7 20 8 27l8 30q0 3 1 7t1 6l4 26q0 4 1.5 13t0.5 13l-1 7v5q-7 27 -22 40l-24 17
q-13 6 -15 7z" />
    <glyph glyph-name="bar" unicode="|" horiz-adv-x="200" 
d="M108 699q2 -14 2 -23q0 -15 -0.5 -47t0.5 -48v-49t-1 -51q1 -19 1 -44.5t-1 -65t-1 -43.5q0 -7 1 -27.5t0 -31.5q0 -8 -0.5 -16.5t-1.5 -19.5t-1 -18v-113l-4 -154q-2 -4 -2 -9.5v-7.5q-2 -5 -3 -3q-2 -2 -2 -1q-5 2 -6 7v15q0 7 0.5 22t0.5 22l3 94q1 39 1 113l3 85
q0 29 -1 44q0 9 0.5 71t0.5 70l1 64l-1 49v48q0 7 -1 28t0 33q0 4 2 12q0 6 3 7h3q2 1 3 -3q0 -1 0.5 -2t1.5 -2q1 0 0 -2t-1 -3z" />
    <glyph glyph-name="braceright" unicode="}" horiz-adv-x="250" 
d="M228 238q6 -2 6 -7q4 -13 -8 -13q-2 0 -5.5 1.5t-7.5 1.5q-12 0 -27 -9.5t-22 -30.5l-1 -16q-1 -23 4 -59l4 -18v-14q1 -11 3 -35.5t3 -39t0.5 -34.5t-3.5 -35l-9 -33q-15 -42 -51 -72q-6 -4 -18.5 -7t-19.5 -6l-10 -2h-10q-5 0 -14.5 1t-13.5 1q-19 3 -33 10.5t-15 12.5
v3q1 2 3 2l5 -2q6 -3 13.5 -6.5t13.5 -4.5h8q13 0 28 5q28 19 40.5 46t18.5 75l5 61q0 24 -4 41v5q-3 13 -3 23l-2 8q0 6 -2 20l-2 8q0 48 14 76l8 10q22 25 59 36q0 1 -11 9t-26.5 21t-23.5 26l-6 9q-2 4 -3.5 11t-2.5 11l-1 8q-1 4 1 13t0 15l10 76l11 44l4 29q5 50 0 74
q-5 28 -20.5 51t-42.5 23q-9 0 -15 -2q-1 0 -2 0.5t-2 0.5q-6 0 -14 -5q-1 -1 -4 -3.5t-5 -3.5l-2 -1q-2 0 -4 5q0 2 2 4l1 3q26 15 53 15l23 -3q85 -21 101 -101q6 -43 -3 -94l-8 -24l-3 -16q-7 -20 -8 -27l-8 -30q0 -3 -1 -7t-1 -6l-4 -26q0 -4 -1.5 -13t-0.5 -13l1 -7v-5
q7 -27 22 -40l24 -17q13 -5 15 -7z" />
    <glyph glyph-name="asciitilde" unicode="~" horiz-adv-x="400" 
d="M266 212q-14 -2 -20 -2q-26 0 -38 7q-2 0 -41 16.5t-49 16.5q-13 0 -23 -10t-15.5 -19.5t-7.5 -9.5q-5 0 -5 3q0 2 1 3q22 46 58 49q26 0 59 -15q52 -22 80 -22q7 0 10 1q12 2 22.5 13t16.5 21t8 10q3 0 3 -4q-17 -50 -59 -58z" />
    <glyph glyph-name="nbspace" unicode="&#xa0;" horiz-adv-x="220" 
 />
    <glyph glyph-name="exclamdown" unicode="&#xa1;" horiz-adv-x="240" 
d="M153 327q-1 -10 -5.5 -46t-7.5 -53q-5 -51 -24.5 -147.5t-24.5 -124.5q-9 -57 -9 -58v-4q0 -3 -1.5 -8t-1.5 -6q0 -12 -6 -41.5t-16 -29.5q-1 0 -3 1q-2 0 -5 -1.5t-5 -1.5q-8 0 -18.5 6.5t-10.5 17.5q0 17 11 35q13 60 16 67q11 32 37 133l36 150q29 121 34 121
q1 0 1.5 -2t1 -4.5t1.5 -3.5zM152 374q-12 2 -15.5 6t-6.5 18q0 14 9 23.5t17 12t12 2.5q9 0 18 -6.5t9 -15.5q0 -14 -12 -27t-31 -13z" />
    <glyph glyph-name="cent" unicode="&#xa2;" horiz-adv-x="290" 
d="M244 343l7 5l2 -2q0 -3 -2.5 -6.5t-5.5 -6.5l-5.5 -5.5t-5.5 -4.5l-2 -2l-20 -9q-16 -8 -41 -8h-8l-4 -17l-4 -16l-4 -17q-2 -14 -2 -17v-7q0 -5 -8 -3q-5 2 -5 5l2 6l2 9q1 5 6 25l2 14q0 5 1 6l3 15q-2 0 -5 1h-3l-27 14q-7 0 -18.5 11.5t-17.5 25.5q-15 19 -10 70
q1 23 8 44q7 30 16.5 47.5t32.5 41.5q5 5 10.5 9t14 9.5t13.5 9.5l34 14q4 0 13 2t15 2h3l8 34q4 16 4 19q4 16 4 20q0 6 5 4q8 0 8 -6l-3 -7q-4 -10 -5 -15l-10 -43q0 -1 -2 -7q23 -5 33.5 -22t9.5 -35q-1 -29 -13 -41l-7 -16q-2 -2 -6.5 -5t-7.5 -4l-3 -2q-3 -3 -14 -3
l-8 3q-11 2 -11 16v13q7 17 13 17h1q1 -1 2 -1q0 -2 -1 -3l-2 -6q-3 -13 6 -13q8 0 11 2l4 2q12 11 17 18.5t6.5 14.5t3.5 10q2 44 -36 44q-10 0 -30 -10t-31 -28l-11 -15l-12 -22l-6 -8l-6 -9q-7 -17 -10 -31l-2 -14l-4 -38q0 -2 -1 -6t-1 -8q-2 -16 10 -43q8 -22 23 -27
l10 -8q12 -6 34 -6q21 0 43 20z" />
    <glyph glyph-name="sterling" unicode="&#xa3;" horiz-adv-x="315" 
d="M102 415q-4 4 0 8q50 2 67 0l2 5q1 3 2 7.5t2 8.5l3 14l1 2q1 1 1 2l-3 -1q-10 0 -15 -3h-18q-26 0 -34 15l-8 10q-3 3 -3.5 8t-2.5 9q0 27 16.5 46.5t39.5 19.5q3 0 9 -2q10 -4 10 -12q0 -15 -18 -16q-2 2 -2 3q0 3 3 3l7 6q1 1 1 3q0 6 -10 6q-13 0 -29 -10l-9 -11
q-7 -9 -9 -35q0 -2 1 -4v-5l5 -6q12 -20 36 -20h16q4 0 10 2.5t9 2.5q5 25 12 41q7 23 13 37l10 23l11 18q10 19 34 25h18q14 0 22 -10t8 -22q0 -16 -6 -28l-8 -17q-3 -3 -8 -11.5t-11 -16t-14 -12.5l-16 -11q-8 -6 -17 -10v1q-3 -3 -5 -4t-3 -2l-4 -14q0 -3 -3 -10t-3 -9
l-6 -18q47 -2 65 0q6 -6 1 -9q-33 -2 -69 0l-11 -26l-7 -12l-5 -8q-1 -3 -5.5 -8t-4.5 -9l-1 -1l17 -15q2 -3 3 -3l22 -18l15 -10q9 -7 21 -7q4 0 6 0.5t3 0.5q6 0 13.5 3.5t7.5 8.5q0 1 -1 3t-1 3q-1 2 0 3q0 3 4 3q2 -1 5 -3l2 -12q-8 -17 -31 -17h-11q-20 5 -29 12
l-14 10l-33 29l-5 3l-11 -12q-7 -7 -15.5 -13.5t-10.5 -8.5l-8 -6q-13 -13 -41 -13q-11 0 -26.5 6t-15.5 19q0 19 6.5 29.5t26.5 19.5l15 3q12 4 33 4q14 0 26 -7v1q0 2 7 11q0 2 5.5 14t8.5 15l4 11q-33 2 -65 0zM231 501l-6 -18l17 9l9 7q3 3 10.5 8.5t11.5 10.5l7 9
l12 20l7 19q2 6 2 15v4l1 3q0 2 -0.5 3t-2 3t-5 3.5t-8.5 2.5q-17 -10 -27 -23l1 1q-6 -8 -10 -21l-2 -6q-1 -1 -6 -17q-3 -10 -5 -16t-3 -8v-1l-3 -9v1zM137 358l-10 3q-2 0 -7 0.5t-9 0.5q-8 0 -10 -1h1q-12 -3 -17 -3l-18 -5q-1 0 -2.5 -1t-4.5 -2.5t-6 -3.5
q-11 -16 -11 -24q0 -7 2 -13l4 -6l4 -2q4 -4 12 -4q5 0 8 1t8 1l11 7q2 2 4 3l2 1l16 16l7 9l6 7q10 11 10 16z" />
    <glyph glyph-name="currency" unicode="&#xa4;" horiz-adv-x="375" 
d="M137 474q0 -30 4 -39l6 -26q1 -3 2 -9t3 -8l8 -10l27 -27q3 -3 15.5 -7.5t20.5 -4.5q23 2 42 25l15 15q3 2 6.5 6.5t5.5 6.5l7 11q0 1 3 5.5t5 8.5l9 17l4 23q1 7 1 19l1 13v1q1 2 1 4q0 13 -1 20l-16 39q-7 12 -26 21t-37 9q-30 0 -40 -10l-21 -10q-12 -9 -21 -20
l-7 -10q0 -2 -1 -3l-1 -2l-6 -15q-1 0 -2.5 -7t-4 -17.5t-2.5 -18.5zM125 336l2 3q-1 2 -11 12l-12 11q-3 3 -7 13l-11 16q-4 6 -7 18l-5 15q0 4 -0.5 11t-0.5 11q0 6 2 20l4 17l3 9l3 10q4 14 14 27l19 32l-12 20l-25 36q-16 25 -16 32q0 2 4.5 6.5t6.5 4.5l3 -8l5 -9
l17 -30q8 -15 33 -38l29 19q1 1 4 2q21 10 49 10q11 0 16 -1l16 -3l11 -4q3 -2 10.5 -4.5t10.5 -4.5l7 -4q1 -1 4 -2t5 -3l5 -3l23 23l34 39q6 7 12 12l3 3q9 7 10 7q8 -5 8 -10l-1 -1q-1 -2 -3 -4.5t-4 -5.5l-20 -19l-27 -29l-22 -27l5 -6l7 -12q1 -2 3 -8t4 -9l5 -15
q-1 -3 0.5 -11t1.5 -11q0 -10 -2 -24l-4 -19l-4 -10q0 -2 -1 -4l-1 -2l-9 -16q-1 -1 -1 -3q-1 -1 -1 -2l-18 -31q-1 -3 -8 -12l-27 -29l2 -8l7 -11l27 -53q5 -12 5 -13q-1 -6 -10 -6q-4 0 -12 18l-13 27l-24 43q-15 -15 -45 -15q-10 0 -17 1h-8h1q-9 0 -14 1q-16 2 -21 6
l-27 -28l-23 -26q0 -1 -2 -2t-2 -2l-2 -3q-5 -5 -9 -5q-1 0 -2.5 1.5t-3 4t-2.5 3.5l5 7l10 13l8 8l20 19z" />
    <glyph glyph-name="yen" unicode="&#xa5;" horiz-adv-x="303" 
d="M67 362q-1 -4 -4 -5q-7 -12 -9 -24q-1 -15 13 -25q5 -4 19 -2q19 5 32 19q1 1 14 19l3.5 7t4.5 7l10 16q0 1 2 3q1 1 1 3l2 4t3 4h-5h-26h-5q-3 0 -3 4q-2 5 5 5h34q5 0 6 4l10 17q-4 4 -9 13t-8 13q-13 0 -20 -1q-12 0 -15 -1q-4 0 -5.5 3t0.5 5h1l2 1q1 1 7 1
q18 0 26 1q-2 12 -4 16q-9 29 -6 57q0 13 6 37q2 9 2 39q0 2 -1.5 4.5t-1.5 3.5q-3 4 -9 3q-11 -3 -17 -13q-5 -5 -6 -8q-5 -5 -8 -5q-4 4 -1 10q4 6 6 11q15 19 35 14q6 0 9 -7q3 -10 2 -13q0 -4 0.5 -10t0.5 -10q0 -18 -4 -30q-5 -27 -5 -46q0 -15 7 -30q2 -4 3.5 -11.5
t3.5 -11.5q4 -10 13 -23q0 2 1 2.5t2 2.5l2 8q2 4 9 29q2 10 6 17q0 1 2 9l8 22q0 2 2 6t2 8q0 2 1 2l9 22q13 27 23 41q15 18 26 23q7 5 20 7q2 0 4 1q3 0 6 -3q1 -5 -1 -7q-3 -3 -7 -3q-6 0 -8 -1l-4 -4q-6 -5 -22 -35l-1 -1q-6 -21 -9 -30q-2 -4 -3.5 -12t-3.5 -12
t-3.5 -12t-2.5 -11l-3 -9q-4 -12 -10 -36h16q7 1 22 1q4 0 5.5 -2.5t-0.5 -4.5t-3 -2q-3 -1 -9 -1h-31h-4q0 -4 -1 -5q-2 -4 -4 -11t-3 -11l-4 -8q-2 -2 -4 -12h4h44h3q0 -1 1 -1h1q1 -4 0 -7q-1 0 -2 -1h-32h-22q-2 0 -3 -3l-8 -16q-6 -15 -15 -26q-26 -29 -35 -34l-19 -11
q-1 0 -3.5 -1.5t-4.5 -1.5l-20 -3q-14 -3 -25 1q-5 2 -16 13q-6 7 -6 21q1 3 1 13q0 13 9 23q3 4 7 1q3 -1 5 -3z" />
    <glyph glyph-name="brokenbar" unicode="&#xa6;" horiz-adv-x="200" 
d="M100 -71q-4 -3 -6.5 0.5t-3.5 13.5v17v18v22v19q0 14 1.5 87t1.5 89l2 74q0 22 6 22t6 -22q0 -23 -2 -110t-2 -110v-62q-2 -34 -2 -51q0 -2 -1 -4v-3zM107 373q-7 3 -9 14v17v59q0 15 1.5 75.5t1.5 76.5q0 12 0.5 37t0.5 37q0 22 6 22t6 -22t-1.5 -97.5t-1.5 -98.5
q-1 -10 -1 -31v-31q0 -9 -0.5 -26t-0.5 -25q0 -2 -1 -4t-1 -3z" />
    <glyph glyph-name="section" unicode="&#xa7;" horiz-adv-x="300" 
d="M254 551q26 11 26 35v2q-1 1 -1.5 3.5t-0.5 4.5q-2 9 -9 15l-14 7q-1 0 -5 0.5t-8 -0.5q-1 -1 -5 -1q-23 -9 -30 -28q0 -1 0.5 -2.5t-1.5 -1.5q0 -18 -5 -29l2 -16l1 -15l5 -13q0 -6 12 -18l9 -17l11 -17l16 -28q1 -4 4 -13.5t4 -13.5q0 -2 -1 -6v-4q0 -2 1 -3
q1 -2 3 -14q2 -19 -4 -29l-3 -8q-4 -4 -6.5 -11t-4.5 -9l-6 -9q-2 -1 -8 -8t-12 -9l-8 -8q-1 0 -6 -3.5t-12.5 -7t-14.5 -4.5l-8 -5q-4 -2 -17 -5l-3 -2q-5 -2 -8 -1q-5 0 -8 -1h-15l2 -4l6 -11q10 -9 19 -38l4 -11l3 -10q4 -9 5 -14l1 -11q0 -32 -5 -44q-14 -27 -23 -33
q-5 -5 -19 -13q-3 -1 -8.5 -5t-9.5 -5l-4 -2q-2 -2 -6 -2q-9 -4 -19 -4q-6 -1 -12 0q-10 0 -17 3q-7 2 -15 6q-14 14 -17 22q-5 11 -2 22q6 15 15 16q7 2 15.5 -1.5t11.5 -12.5l1 -2q1 -7 -2.5 -13t-9.5 -6q-5 0 -6 1q-2 2 -2 5t5 3q2 -2 4 0l1.5 1.5t1.5 0.5q2 5 0 8
q0 4 -4 7l-5 2q-9 2 -14 -3q-7 -8 -6 -18q5 -17 23 -28q10 -6 29 -6q13 0 20 3q16 8 22 25q1 1 1 4q6 21 1 45l-1 15l-5 13q0 8 -10 18l-9 17l-11 17l-16 28q-1 4 -4 13.5t-4 13.5q0 6 -1.5 14t-1.5 13q-2 19 4 29l3 8q4 4 6.5 11t4.5 9l6 9q1 1 9 9.5t19 15.5q1 0 6 3.5
t12.5 7t14.5 4.5l8 5q4 2 17 5l3 2q1 1 8 1q5 0 8 1h14q-1 1 -1 4l-6 11q-2 2 -3 4.5t-2 6t-2 6.5q-6 4 -12 21l-6 11l-3 9q-4 10 -5 15l-1 11q0 4 2 13.5t2 15.5l2 14q14 27 24 34q5 5 19 13q3 1 8.5 5t9.5 5l4 2q2 2 7 2q19 5 30 4q11 -2 13 -3q12 -6 18 -26q0 -1 1 -4.5
t0 -5.5q-1 -28 -32 -40q-3 -1 -14 1q-1 1 -2 1l-4 3q-5 3 -6 9.5t4 11.5q0 3 5 3q5 2 5 -2q1 -3 -2 -6q-4 -1 -2 -6q0 -4 6 -6q7 -2 8 -3zM196 406l-2 3h-13q-18 -1 -32 -9l-9 -6q-16 -14 -27 -33l-6 -22q-2 -8 -1 -12v-12l2 -27q7 -19 10 -19l2 -3q4 -1 13 0q18 1 32 9l9 6
q16 13 27 33l6 22q3 6 1 11v1l2 9q-2 2 -2 3l-2 27l-5 9q0 2 -2 6t-3 4z" />
    <glyph glyph-name="dieresis" unicode="&#xa8;" horiz-adv-x="100" 
d="M221 421q10 0 16 -6q12 -5 12 -18q0 -14 -14 -28q-7 -6 -12 -6q-10 -4 -23 1q-26 9 -11 37q7 14 32 20zM298 349q-2 0 -18 7q-10 4 -10 17q0 14 14 28q8 6 12 6q10 4 23 -1q26 -9 11 -37q-7 -14 -32 -20z" />
    <glyph glyph-name="copyright" unicode="&#xa9;" horiz-adv-x="437" 
d="M299 352q4 4 5 4q2 0 2 -3q0 -4 -7 -11l-7 -4l-6 -3l-10 -5q-12 -5 -29 -5q-4 0 -10 2q-5 0 -9 1h-1l-18 10q-5 0 -13 7.5t-13 18.5q-10 14 -10 58l5 20q0 32 31 63q10 9 27 18l23 10q2 0 8.5 1.5t10.5 1.5q21 0 31 -13t10 -28q0 -21 -7 -28l-6 -12l-11 -8q-2 -2 -11 -2
l-6 2q-9 2 -9 12v10l6 12q3 3 8 -1q0 -1 -1 -2q-2 -2 -2 -5q0 -7 4 -7q3 0 12 3q7 6 9.5 11t3 10t1.5 7q0 28 -24 28q-6 0 -18.5 -7t-19.5 -18l-6 -6l-9 -19q-3 -3 -7 -9q-6 -14 -6 -24v-8l-3 -28q0 -1 -1 -4.5t-1 -7t2.5 -11t8.5 -16.5q2 -3 4 -6.5t2.5 -5t2.5 -3t5 -2.5
l6 -5q7 -4 21 -4q21 0 32 11zM388 433q7 50 -2 89q-18 34 -22 39q-14 25 -45 33q-12 3 -20 3q-14 3 -25 0q-20 0 -31 -3q-38 -14 -53 -26q-20 -15 -33 -33q-12 -11 -28 -39q-13 -21 -14 -24q-6 -26 -11 -67q-4 -29 8 -67l4 -9q12 -15 42 -42q14 -10 32 -17q3 -1 13 -5.5
t17 -5.5t16 0q33 0 50 8q32 17 39 24q14 14 27 32q5 7 12 23q1 2 4.5 11t5.5 14q9 30 14 62zM402 483q0 -54 -4 -67q-3 -8 -6.5 -24.5t-7.5 -30t-11 -23.5q-11 -26 -38 -55q-15 -13 -31 -23q-22 -15 -56 -17q-6 0 -17 -1t-17 -1q-19 3 -38 9q-7 3 -13.5 6.5t-14 8t-11.5 6.5
q-19 9 -34 29q-16 22 -23 35q-4 10 -5 15l-9 45q-1 5 1 39q0 6 1.5 12t4 14t3.5 12q3 11 7 15q4 7 14.5 27t17.5 31q22 28 47 44q13 8 36 19q11 4 23 5.5t28 2.5t24 2q13 3 31 -3l22 -9q2 -1 9.5 -4.5t13.5 -7t11 -8.5q21 -22 30 -44q12 -16 12 -59z" />
    <glyph glyph-name="ordfeminine" unicode="&#xaa;" horiz-adv-x="270" 
d="M174 427l7 21l6 15q2 6 2 10q6 18 8 22q1 4 3 10.5t4 9.5q1 2 2.5 7.5t3.5 7.5q1 2 3 6.5t4 7.5q1 1 6 1q11 -4 26 -6q11 -4 11 -5q4 -6 -1 -9q-2 -4 -4.5 -11.5t-4.5 -11.5q-2 -9 -6 -16q-2 -2 -3 -6.5t-3 -6.5l-3 -10q-2 -4 -3 -6.5l-2 -5t-2 -5.5q-7 -21 -7 -22
q-4 -12 -4 -22v-3v-11q0 -7 3 -10q3 -4 5 -4q6 -5 11 -3l9 3q9 4 20 15l13 15q2 5 5.5 2.5t0.5 -6.5q-5 -9 -21 -25q-5 -4 -25 -15q-13 -8 -34 -6q-14 1 -26 14t-9 37q-1 -1 -6.5 -8.5t-9.5 -11.5q-14 -14 -37 -25q-12 -5 -22 -5q-33 0 -47 41q-7 18 -7 44q0 21 2 27
q1 8 3 19t2 16q0 4 5 12q16 36 23 43q19 26 30 34q43 33 86 34q42 1 61 -22q9 -13 9 -32l-2 -15q-1 -1 -5 -1q-6 2 -5 5q0 3 2.5 9t1.5 10q-1 21 -29 36q-17 5 -34 -1q-36 -25 -46 -38q-25 -30 -37 -62q-2 -7 -4 -19q-9 -29 -9 -61q0 -19 5 -34q9 -19 27 -19q13 0 29 17
q3 4 19 29z" />
    <glyph glyph-name="guillemotleft" unicode="&#xab;" horiz-adv-x="290" 
d="M168 237l-3 -2q0 -1 1 -2l6 -3q7 -2 19.5 -7.5t17.5 -7.5q10 -3 33 -18q9 -3 7 -11l-3.5 -10.5t-4.5 -11.5q-5 -8 -13 -5q-25 11 -33 16l-44 22l-5 4q-6 5 -6 17t6 17q20 15 31 21q12 6 58 31q7 4 10 0q2 -5 -4 -9q-8 -4 -25 -13zM68 227l-3 -2q0 -1 1 -2l6 -3
q7 -2 19.5 -7.5t17.5 -7.5q10 -3 33 -18q9 -3 7 -11l-3.5 -10.5t-4.5 -11.5q-5 -8 -13 -5q-25 11 -33 16l-44 22l-5 4q-6 5 -6 17t6 17q20 15 31 21q12 6 58 31q7 4 10 0q2 -5 -4 -9q-8 -4 -25 -13z" />
    <glyph glyph-name="registered" unicode="&#xae;" horiz-adv-x="329" 
d="M185 478q0 -3 1 -9t3 -14.5t6.5 -15t11.5 -6.5q2 0 6 0.5t6 0.5q-7 -13 -23 -13q-21 0 -26 24q0 12 -1.5 20.5t-3.5 12.5t-2 5t3 3q28 19 28 39q0 18 -12 18q-4 0 -10.5 -2t-9.5 -2v-4q0 -9 -3 -18q-2 -10 -3 -27t-3 -28q0 -44 -15 -44q-3 0 -9 3.5t-6 8.5q0 17 1 28
q0 10 1.5 28t7.5 40t15 24q14 0 21 1t8 1q45 0 45 -32q-3 -22 -37 -42zM271 498q0 49 -25 68q-30 30 -58 30q-23 0 -61 -14q-25 -9 -39.5 -40.5t-14.5 -57.5q0 -4 2 -18l1 -3q0 -3 1 -8.5t2 -12t3.5 -13.5t5.5 -13.5t7.5 -12t9.5 -8.5q3 -4 18.5 -10t30.5 -6q37 0 74 26
q15 11 29 39.5t14 53.5zM279 500q-1 -67 -46 -106q-29 -28 -75 -28q-24 0 -42 8q-49 17 -57 63q-4 10 -5 15q-4 11 -4 27q0 58 32.5 90t78.5 39q23 0 35 -5q83 -16 83 -103z" />
    <glyph glyph-name="macron" unicode="&#xaf;" horiz-adv-x="195" 
d="M465 366l-23 -26q-4 -5 -37 -2q-5 0 -57.5 4t-83.5 7q-12 1 -12 2t3 5l25 26q8 8 21 5q67 -9 154 -15q10 -3 10 -6z" />
    <glyph glyph-name="degree" unicode="&#xb0;" horiz-adv-x="200" 
d="M164 551l2 12q0 30 -28 38q-26 0 -39.5 -18t-13.5 -43q0 -49 38 -49q16 0 28.5 15t12.5 45zM176 558v-9q-2 -29 -18 -49.5t-42 -20.5q-27 0 -34 11l-2 2q-3 2 -7.5 6t-8.5 10t-6.5 16t-2.5 21q0 34 20 52.5t47 18.5q28 0 41 -17t13 -41z" />
    <glyph glyph-name="plusminus" unicode="&#xb1;" horiz-adv-x="400" 
d="M317 257h-4h-40q-2 0 -5.5 0.5t-4.5 0.5h-61v-105v-9q-5 -9 -10 -9q-7 1 -7 10l2 41v63v9h-104h-9q-9 2 -9 10t10 8l56 -1l46 -1h10v43q0 43 1 66v4q0 5 4 7t7.5 0t3.5 -7v-4v-18q0 -3 -0.5 -33.5t-0.5 -31.5v-26h44q44 0 67 -1h4q5 0 7 -4t0 -8t-7 -4zM319 51h-4h-40
q-2 0 -5.5 0.5t-4.5 0.5h-180h-9q-9 2 -9 10t10 8l56 -1l46 -1h69q44 0 67 -1h4q5 0 7 -4t0 -8t-7 -4z" />
    <glyph glyph-name="twosuperior" unicode="&#xb2;" horiz-adv-x="215" 
d="M80 523l1 11q1 18 25 51l2 2l10 9q11 8 23 13t29 5q2 0 4 -0.5t3 -0.5h4q10 0 17 -4l3 -1q11 -6 17 -14t7.5 -14t3 -17.5t2.5 -16.5v-1q-3 -42 -37 -78l-3 -2q-10 -12 -16 -15q-13 -13 -36.5 -26.5t-38.5 -25.5l-4 -2q-1 -1 -3 -2t-3 -3q-1 -1 -8 -4t-12 -6.5t-5 -6.5h1
l3 2q13 2 17 1q13 0 40 -14.5t36 -14.5q6 0 11.5 1.5t8.5 4t5 5t3 3.5l1 2q3 0 4 -3q-7 -17 -26 -31h-1q-13 -15 -29 -13q-4 0 -5 1v-1q-13 1 -37 10.5t-34 12.5h-5q-6 2 -12 2q-10 0 -19 -9q-2 2 -2 5q1 2 3 7.5t7.5 13t17.5 18.5q5 2 7 5l3 1q15 15 38 30l2 2q1 1 8.5 7.5
t19 16t19.5 16.5l3 3l6 8q8 6 20.5 30.5t14.5 52.5l1 4q0 3 -1 4v1q1 10 -3 17v4q-1 1 -3 4.5t-3.5 5.5t-4.5 5t-6.5 4.5t-8.5 1.5h-3l-2 -1q-38 0 -63 -46l-1 -3q0 -1 -3 -5t-4 -13q-2 -17 4.5 -25.5t16.5 -8.5q22 0 33 15l8 13q7 9 9 31q0 7 -4 11q5 2 7 -1.5t5 -15.5
q0 -25 -16 -43l-1 -1q-20 -20 -36 -19q-13 0 -25 8t-10 27z" />
    <glyph glyph-name="threesuperior" unicode="&#xb3;" horiz-adv-x="215" 
d="M84 533q0 8 1 11v4q11 25 25 38l3 3q26 26 58 26q12 0 27 -7q-1 0 1.5 -1t7.5 -5t10 -9t8 -15t2 -22q0 -35 -30 -65l-6 -6l-2 -1q-2 -2 -3 -4l-1 -1l-15 -12q19 -12 25 -25t4 -34v-5q-2 -14 -7 -21l-11 -15q-1 -1 -5.5 -7t-11 -11.5t-16.5 -10.5l-26 -9q-2 0 -9 -1.5
t-13 -1.5q-44 0 -60 22l-1 1q-5 5 -5 23q0 9 6.5 16t17.5 7l8 -1q11 -6 9 -17q-1 -10 -7.5 -15t-13 -6t-6.5 0q5 -12 17 -17h-1q1 0 4.5 -1.5t7.5 -1.5q2 0 6 -0.5t6 -0.5h7q2 0 7.5 2t14 7t14.5 12l11 13q10 9 12 18v1q1 0 2 2t1 5q0 4 4 15t4 17q0 25 -2 29l-2 2l-2 1
q-24 -13 -42 -13q-23 0 -23 16q5 17 34 17q6 0 13.5 -1.5t10.5 -1.5h1l2 2q7 3 20 23.5t15 40.5l2 16q0 19 -5 27l-3 5q-4 6 -13 10l-8 3q-8 0 -16 -2l-4 -2h1q-2 -1 -7.5 -3.5t-8.5 -4.5l-11 -8q-9 -8 -16.5 -23.5t-7.5 -23.5v-13l1 -4q6 -10 17 -12q38 0 41 59v7
q15 0 12 -26v-1q-1 -1 -1 -3l-1 -5l-12 -17l-4 -6q-14 -15 -31 -15q-31 0 -31 33zM104 461q0 -6 7 -6q8 0 13 2l3 1q5 2 14 11q-14 2 -15 2q-19 0 -22 -10zM111 455h1h-1z" />
    <glyph glyph-name="acute" unicode="&#xb4;" horiz-adv-x="100" 
d="M330 375l-18 -11l-14 -9q-2 -1 -7 -4t-7 -4q-4 -1 -8 -5t-8 -5l-23 -11l-23 -13q-3 -3 -5 1q-1 2 1 4q5 4 10 9t11 11.5t10 10.5l14 14q14 14 18 21q4 6 11 14t10 13q12 19 30 10q9 -5 10 -8q5 -8 5 -17q0 -10 -17 -21z" />
    <glyph glyph-name="paragraph" unicode="&#xb6;" horiz-adv-x="310" 
d="M160 7l1 8q0 16 6.5 47t7.5 42q6 22 15.5 83.5t19.5 101.5q0 7 2 17.5t5 23t4 17.5q8 38 10 47q5 36 10 64q-17 -5 -32 -5q-20 -122 -25 -143q0 -1 -8 -43q-6 -30 -10 -45q-5 -32 -17 -92l-25 -121q-1 -2 -2 -5t-2 -5.5t-2 -4.5t-3 -2h-1q-1 0 -2 -1q-5 0 -5 7t4 24.5
t5 24.5l17 73q13 57 17 87l15 69q3 12 5 36q2 18 16 80q-1 0 -2 -1l-7 -6q-7 -6 -16 -9.5t-18 -5t-11 -2.5q-3 1 -13 1q-36 0 -57 24t-21 54q2 20 4.5 34t4 19.5t5.5 14.5t6 13l4 7q17 29 49 52q55 39 109 39q11 0 26 -3q18 -5 26 -9l2 8q1 1 3.5 8t5.5 9q1 0 2 1h1
q5 0 5 -7q0 -12 -4 -27q7 -5 11.5 -10t7 -12t3.5 -11t2 -13.5t1 -12.5q-5 -40 -31 -66l-4 -4q-8 -8 -24 -14q-7 -25 -11 -53l-13 -70q-7 -30 -8 -42q-19 -82 -19 -108l-15 -89q-1 -2 -4.5 -29.5t-8.5 -49.5t-10 -22h-3q-4 0 -4 7zM148 387h1q31 0 41 30l2 9l4 27
q-44 10 -44 32q0 14 5 21q1 -1 5.5 -15t9.5 -18l7 -7q11 -6 18 -6l10 55q0 9 6.5 46t11.5 50h-16q-32 -8 -68.5 -36t-43.5 -68q-8 -35 -8 -52q0 -29 16.5 -48.5t42.5 -19.5zM237 609l-1 -8q-2 -17 -9 -47.5t-9 -41.5q-2 -9 -4.5 -28t-3.5 -24q19 0 34 9q1 4 2.5 9.5t1.5 7.5
l24 111q-11 10 -35 13v-1zM285 576q-1 1 -1 3l-20 -83l-4 -16q10 4 18 18l5 8q9 16 9 28q0 4 -0.5 11t-0.5 9l-1 8q-2 8 -5 14z" />
    <glyph glyph-name="periodcentered" unicode="&#xb7;" horiz-adv-x="150" 
d="M93 262q12 -2 15.5 -6t6.5 -18q0 -14 -9 -23.5t-17 -12t-12 -2.5q-9 0 -18 6.5t-9 15.5q0 14 12 27t31 13z" />
    <glyph glyph-name="cedilla" unicode="&#xb8;" horiz-adv-x="61" 
d="M34 1l-13 -6q-9 -4 -13 -8q-6 -5 -6 -9q0 -2 5 -5l11 -8q8 -6 11 -9l7 -9q8 -11 8 -28q0 -15 -8 -33q-2 -1 -3 -4t-2 -5q-5 -7 -15 -17q-26 -23 -58 -23q-13 0 -20 4q-8 3 -12 9q-3 2 -5 8q-3 6 -3 13q0 12 7 22t18 10q7 0 15 -5q5 -5 5 -12q0 -6 -5 -11.5t-13 -5.5
q-2 0 -2.5 2t1.5 2q13 0 13 13q0 4 -4 8q-2 2 -8 2q-7 0 -12 -5q-3 -3 -4 -6q-3 -7 -3 -15q0 -14 9 -21q3 -3 9 -5q3 -1 13 -1q14 0 27 9q6 4 11 12q8 12 10 28q1 2 1 10q0 10 -3 18q-2 7 -6 11q-1 3 -3 5l-5 5l-12 11l-8 6t-6 4l-2 2q0 5 17 16l20 11l20 10q7 4 14 4
q4 0 4 -2z" />
    <glyph glyph-name="onesuperior" unicode="&#xb9;" horiz-adv-x="185" 
d="M189 615l4 2q5 -3 5 -6l-5 -11l1 1q-1 -1 -1 -2t-1 -1l-2 -4q-1 -1 -12 -28l-7 -15q0 -5 -9.5 -24.5t-12.5 -38.5l-11 -36q-6 -18 -6 -21v-1q0 -1 -2 -9l-6 -16v-5l-1 -2v-4q-1 -10 -5.5 -27.5t-4.5 -18.5v-5q0 -10 -8 -10h-34q-6 0 -6 5q0 30 25 96l3 10l10 25v-1l1 1v2
l3 7q1 2 3 5.5t3.5 6.5t1.5 7l9 19q3 8 5 11l7 15q1 3 8.5 15.5t9.5 18.5q-11 -11 -17 -12l-9 -5h1q-21 -13 -29 -13q-2 0 -2 3q0 6 11 9l5 2h-1q18 8 35 22l31 24z" />
    <glyph glyph-name="ordmasculine" unicode="&#xba;" horiz-adv-x="270" 
d="M234 437v-1q-14 -32 -44 -58q-20 -16 -46 -20q-25 -4 -52 4q-17 8 -36 34q-16 25 -16 56q0 16 2 21q0 11 3 25q5 8 6 21q11 29 27 52l11 12l25 20q38 28 91 21q32 -5 46 -35q8 -13 10 -39q0 -17 -1 -26q-3 -26 -4 -29l-9 -29l-10 -25h14q10 0 19 3q4 2 4 0q0 -6 -25 -9
h-2t-2.5 0.5t-4.5 1t-6 0.5zM203 411q1 0 3.5 4.5t6 12t6.5 11.5q-2 0 -31 13q-20 15 -26 45.5t7 73.5q11 27 32 38q-12 0 -17 -2q-17 -8 -34 -22q-1 -1 -5 -5.5t-6 -6.5q0 -1 -5 -6q-4 -6 -10.5 -19.5t-8.5 -16.5q-17 -41 -20 -60v-9q-3 -9 -3 -20q0 -1 1.5 -7.5t2.5 -10.5
q1 -3 2.5 -10.5t4.5 -12.5q8 -16 17 -23q11 -11 28 -9q9 1 18 5q12 7 15 10q9 9 22 27zM202 456q6 -6 19 -11q4 14 7 21q17 67 -2 114q-4 12 -14 15q-4 1 -9 0q-6 -2 -7 -6q-4 -3 -11 -22q-7 -27 -8 -48q0 -14 1 -19q2 -8 2 -14q7 -20 22 -30z" />
    <glyph glyph-name="guillemotright" unicode="&#xbb;" horiz-adv-x="290" 
d="M125 235l-3 2l-48 28q-17 9 -25 13q-6 4 -4 9t10 0q46 -25 58 -31q11 -6 31 -21q6 -5 6 -17t-6 -17l-5 -4l-44 -22q-8 -5 -33 -16q-8 -3 -13 5q-2 4 -4.5 11.5l-3.5 10.5q-2 8 7 11q23 15 33 18q5 2 17.5 7.5t19.5 7.5l6 3q0 1 1 2zM225 225l-3 2l-48 28q-17 9 -25 13
q-6 4 -4 9t10 0q46 -25 58 -31q11 -6 31 -21q6 -5 6 -17t-6 -17l-5 -4l-44 -22q-8 -5 -33 -16q-8 -3 -13 5q-2 4 -4.5 11.5l-3.5 10.5q-2 8 7 11q23 15 33 18q5 2 17.5 7.5t19.5 7.5l6 3q0 1 1 2z" />
    <glyph glyph-name="onequarter" unicode="&#xbc;" horiz-adv-x="460" 
d="M390 289q4 0 4 -5q0 -9 -7 -32l-2 -3q-2 -6 -5 -20.5t-6.5 -27t-6.5 -21.5v-2q0 -3 -2 -8t-2 -6l-1 -4q-1 -4 -3.5 -16t-4.5 -19v-4q-1 -4 -3.5 -17.5t-4.5 -17.5l21 1l17 -1q3 0 3 -2q0 -6 -3 -9l-24 1l-10 -1l-7 1q0 -25 -8 -44q0 -9 -1.5 -16.5t-3 -11t-2.5 -3.5
q-20 0 -27 1h-4h-7l-3 1q-3 0 -3 6l4 16l3 7l2 12l7 31h-9h-35h-28q-11 1 -22 1h-15q-6 0 -6 2l-1 5l2 2q5 7 25.5 28t33.5 36q5 6 21.5 21.5t48.5 50.5q2 2 32 28.5t43 39.5zM358 245l-9 -9l-4 -3l-19 -19q-4 -3 -37 -36l-1 -1q-1 -2 -5 -7t-9.5 -10.5t-14.5 -12.5l-2 -2
l-9 -9t-7 -9q-9 -7 -23 -23t-16 -18h20l19 -1l14 1l19 -1l26 1q4 0 4 3l1 3q1 4 5 17t7 24l1 4q4 11 4 13l2 3q0 2 6 15.5t6 22.5l2 3q1 2 3 8t4 10q0 -1 1 2v2q7 23 12 29zM201 615l4 2q5 -3 5 -6l-5 -11l1 1q-1 -1 -1 -2t-1 -1l-2 -4q-1 -1 -12 -28l-7 -15
q0 -5 -9.5 -24.5t-12.5 -38.5l-11 -36q-6 -18 -6 -21v-1q0 -1 -2 -9l-6 -16v-5l-1 -2v-4q-1 -10 -5.5 -27.5t-4.5 -18.5v-5q0 -10 -8 -10h-34q-6 0 -6 5q0 30 25 96l3 10l10 25v-1l1 1v2l3 7q1 2 3 5.5t3.5 6.5t1.5 7l9 19q3 8 5 11l7 15q1 3 8.5 15.5t9.5 18.5
q-11 -11 -17 -12l-9 -5h1q-21 -13 -29 -13q-2 0 -2 3q0 6 11 9l5 2h-1q18 8 35 22l31 24zM429 416l-13 -11q-12 -6 -34 -19.5t-28 -16.5q-10 -6 -31 -18.5t-33 -19.5l-41 -23q-5 -3 -18.5 -11t-20.5 -12q-2 -1 -35 -20q-41 -27 -72 -44q-10 -6 -30.5 -16t-29.5 -15
q-11 -3 -13 -4t-3 -0.5t0 2.5q-3 1 2 6l5 2.5t4 1.5q21 13 29 17q2 1 9 5.5t11 6.5q48 26 73 41q7 5 26 15.5t29 17.5q11 5 29 17q2 1 31 20q29 15 41 24l30 20l31 19l41 22q3 3 8 4q6 1 7 -2l-2 -6l-1 -1q-1 0 -1 -2z" />
    <glyph glyph-name="onehalf" unicode="&#xbd;" horiz-adv-x="460" 
d="M201 615l4 2q5 -3 5 -6l-5 -11l1 1q-1 -1 -1 -2t-1 -1l-2 -4q-1 -1 -12 -28l-7 -15q0 -5 -9.5 -24.5t-12.5 -38.5l-11 -36q-6 -18 -6 -21v-1q0 -1 -2 -9l-6 -16v-5l-1 -2v-4q-1 -10 -5.5 -27.5t-4.5 -18.5v-5q0 -10 -8 -10h-34q-6 0 -6 5q0 30 25 96l3 10l10 25v-1l1 1v2
l3 7q1 2 3 5.5t3.5 6.5t1.5 7l9 19q3 8 5 11l7 15q1 3 8.5 15.5t9.5 18.5q-11 -11 -17 -12l-9 -5h1q-21 -13 -29 -13q-2 0 -2 3q0 6 11 9l5 2h-1q18 8 35 22l31 24zM262 193l1 11q1 18 25 51l2 2l10 9q11 8 23 13t29 5q2 0 4 -0.5t3 -0.5h4q10 0 17 -4l3 -1q11 -6 17 -14
t7.5 -14t3 -17.5t2.5 -16.5v-1q-3 -42 -37 -78l-3 -2q-10 -12 -16 -15q-13 -13 -36.5 -26.5t-38.5 -25.5l-4 -2q-1 -1 -3 -2t-3 -3q-1 -1 -8 -4t-12 -6.5t-5 -6.5h1l3 2q13 2 17 1q13 0 40 -14.5t36 -14.5q6 0 11.5 1.5t8.5 4t5 5t3 3.5l1 2q3 0 4 -3q-7 -17 -26 -31h-1
q-13 -15 -29 -13q-4 0 -5 1v-1q-13 1 -37 10.5t-34 12.5h-5q-6 2 -12 2q-10 0 -19 -9q-2 2 -2 5q1 2 3 7.5t7.5 13t17.5 18.5q5 2 7 5l3 1q15 15 38 30l2 2q1 1 8.5 7.5t19 16t19.5 16.5l3 3l6 8q8 6 20.5 30.5t14.5 52.5l1 4q0 3 -1 4v1q1 10 -3 17v4q-1 1 -3 4.5t-3.5 5.5
t-4.5 5t-6.5 4.5t-8.5 1.5h-3l-2 -1q-38 0 -63 -46l-1 -3q0 -1 -3 -5t-4 -13q-2 -17 4.5 -25.5t16.5 -8.5q22 0 33 15l8 13q7 9 9 31q0 7 -4 11q5 2 7 -1.5t5 -15.5q0 -25 -16 -43l-1 -1q-20 -20 -36 -19q-13 0 -25 8t-10 27zM429 426l-13 -11q-12 -6 -34 -19.5t-28 -16.5
q-10 -6 -31 -18.5t-33 -19.5l-41 -23q-5 -3 -18.5 -11t-20.5 -12q-2 -1 -35 -20q-41 -27 -72 -44q-10 -6 -30.5 -16t-29.5 -15q-11 -3 -13 -4t-3 -0.5t0 2.5q-3 1 2 6l5 2.5t4 1.5q21 13 29 17q2 1 9 5.5t11 6.5q48 26 73 41q7 5 26 15.5t29 17.5q11 5 29 17q2 2 31 20
q29 15 41 24l30 20l31 19l41 22q3 3 8 4q6 1 7 -2l-2 -6l-1 -1q-1 0 -1 -2z" />
    <glyph glyph-name="threequarters" unicode="&#xbe;" horiz-adv-x="460" 
d="M390 289q4 0 4 -5q0 -9 -7 -32l-2 -3q-2 -6 -5 -20.5t-6.5 -27t-6.5 -21.5v-2q0 -3 -2 -8t-2 -6l-1 -4q-1 -4 -3.5 -16t-4.5 -19v-4q-1 -4 -3.5 -17.5t-4.5 -17.5l21 1l17 -1q3 0 3 -2q0 -6 -3 -9l-24 1l-10 -1l-7 1q0 -25 -8 -44q0 -9 -1.5 -16.5t-3 -11t-2.5 -3.5
q-20 0 -27 1h-4h-7l-3 1q-3 0 -3 6l4 16l3 7l2 12l7 31h-9h-35h-28q-11 1 -22 1h-15q-6 0 -6 2l-1 5l2 2q5 7 25.5 28t33.5 36q5 6 21.5 21.5t48.5 50.5q2 2 32 28.5t43 39.5zM358 245l-9 -9l-4 -3l-19 -19q-4 -3 -37 -36l-1 -1q-1 -2 -5 -7t-9.5 -10.5t-14.5 -12.5l-2 -2
l-9 -9t-7 -9q-9 -7 -23 -23t-16 -18h20l19 -1l14 1l19 -1l26 1q4 0 4 3l1 3q1 4 5 17t7 24l1 4q4 11 4 13l2 3q0 2 6 15.5t6 22.5l2 3q1 2 3 8t4 10q0 -1 1 2v2q7 23 12 29zM429 406l-13 -11q-12 -6 -34 -19.5t-28 -16.5q-10 -6 -31 -18.5t-33 -19.5l-41 -23
q-5 -3 -18.5 -11t-20.5 -12q-2 -1 -35 -20q-41 -27 -72 -44q-10 -6 -30.5 -16t-29.5 -15q-11 -3 -13 -4t-3 -0.5t0 2.5q-3 1 2 6l5 2.5t4 1.5q21 13 29 17q2 1 9 5.5t11 6.5q48 26 73 41q7 5 26 15.5t29 17.5q11 5 29 17q2 2 31 20q29 15 41 24l30 20l31 19l41 22q3 3 8 4
q6 1 7 -2l-2 -6l-1 -1q-1 0 -1 -2zM84 533q0 8 1 11v4q11 25 25 38l3 3q26 26 58 26q12 0 27 -7q-1 0 1.5 -1t7.5 -5t10 -9t8 -15t2 -22q0 -35 -30 -65l-6 -6l-2 -1q-2 -2 -3 -4l-1 -1l-15 -12q19 -12 25 -25t4 -34v-5q-2 -14 -7 -21l-11 -15q-1 -1 -5.5 -7t-11 -11.5
t-16.5 -10.5l-26 -9q-2 0 -9 -1.5t-13 -1.5q-44 0 -60 22l-1 1q-5 5 -5 23q0 9 6.5 16t17.5 7l8 -1q11 -6 9 -17q-1 -10 -7.5 -15t-13 -6t-6.5 0q5 -12 17 -17h-1q1 0 4.5 -1.5t7.5 -1.5q2 0 6 -0.5t6 -0.5h7q2 0 7.5 2t14 7t14.5 12l11 13q10 9 12 18v1q1 0 2 2t1 5
q0 4 4 15t4 17q0 25 -2 29l-2 2l-2 1q-24 -13 -42 -13q-23 0 -23 16q5 17 34 17q6 0 13.5 -1.5t10.5 -1.5h1l2 2q7 3 20 23.5t15 40.5l2 16q0 19 -5 27l-3 5q-4 6 -13 10l-8 3q-8 0 -16 -2l-4 -2h1q-2 -1 -7.5 -3.5t-8.5 -4.5l-11 -8q-9 -8 -16.5 -23.5t-7.5 -23.5v-13l1 -4
q6 -10 17 -12q38 0 41 59v7q15 0 12 -26v-1q-1 -1 -1 -3l-1 -5l-12 -17l-4 -6q-14 -15 -31 -15q-31 0 -31 33zM104 461q0 -6 7 -6q8 0 13 2l3 1q5 2 14 11q-14 2 -15 2q-19 0 -22 -10z" />
    <glyph glyph-name="questiondown" unicode="&#xbf;" horiz-adv-x="375" 
d="M130 -182l1 1h-8q-44 0 -79 23q-21 13 -41 43q-1 1 -4.5 6t-5.5 8.5t-5 10.5t-5 13.5t-3.5 17t-1.5 21.5q0 2 0.5 7t0.5 7q0 7 -1 9q10 62 29 87q3 10 21.5 29t48.5 38q1 0 14 8.5t30 13.5q4 3 26.5 16.5t47.5 33.5q7 5 18.5 22.5t24.5 28.5q24 48 29 52q4 4 6 -2
q-4 -17 -8 -28.5t-11 -26t-11 -24.5q-31 -47 -51 -63q-11 -8 -23 -21t-21 -20q-9 -15 -28 -26q-1 -1 -50 -57q-37 -59 -37 -105t26 -79.5t79 -33.5q8 0 43 7q1 1 22 10q2 2 2 4q2 2 6.5 7.5t7.5 7.5q16 18 19 29q1 3 2.5 6.5t2.5 6t2 4.5q0 4 1 5q4 14 4 18q0 1 1.5 6.5
t1.5 7.5q2 7 2 32q0 4 -1.5 8.5t-1.5 7.5q-6 10 -21 10q-12 -7 -9 -13q1 -7 9 -7q4 2 5 1q3 2 3 -1l-1 -3q-9 -3 -13 -2q-9 7 -12 17q0 5 -1 6q0 11 7 18q6 6 9 6q10 8 23 4q22 -6 32 -18q2 -2 3.5 -7t3.5 -8q9 -23 5 -42q0 -5 -6 -19q-7 -19 -8 -23q-8 -13 -8 -14l-10 -12
l-14 -20q-6 -6 -19.5 -15.5t-41.5 -22t-54 -12.5h-4zM298 443l-1 1q8 -2 9.5 -2t5.5 -2.5t5 -7l3 -13.5q0 -9 -4 -16.5t-9 -11t-10.5 -6t-9.5 -3.5l-4 -2q-1 0 -3 1q-23 8 -26 22q0 19 14.5 29t29.5 11z" />
    <glyph glyph-name="Agrave" unicode="&#xc0;" horiz-adv-x="453" 
d="M493 181q2 3 4.5 2.5t2.5 -4.5q-4 -5 -5 -9q-1 -1 -1 -3q-24 -43 -52 -81q-22 -30 -32 -40q-23 -23 -32 -29l-19 -12q-22 -10 -38 1q-9 5 -18 17q-11 15 -17 32q-1 1 -2 4l-3 12q-2 8 -2 11l-3 26q-2 -2 -3 -5q-4 -4 -8.5 -12.5t-8.5 -12.5q-2 -4 -7.5 -9.5t-8.5 -9.5
q-23 -23 -53 -41q-10 -7 -39 -14q-21 -5 -37 2q-4 1 -11 2t-11 3q-12 4 -34 14l-7 7l-10 9q-8 6 -12 10q-10 11 -16 28l-4 11q-7 11 -10 27q-1 5 -3 16t-3 16l-2 21q-2 18 -2 25v22q0 2 2 16q2 9 1 10q0 17 4 32q1 5 2.5 13.5t3.5 13.5l3 10q1 3 5.5 20.5t8.5 26.5
q9 26 16 36l4 10q4 15 15 32q1 2 2.5 5.5t3.5 5.5l-2 3q-8 6 -19 17q-14 14 -20 34q-3 7 -1 17q1 4 2 7.5t1 5.5l8 24q2 4 9 16q12 16 30 27q4 3 12 4q10 1 21 -5q12 -5 6 -18q-3 -9 -9 -18q-2 -3 -12 -11q-2 2 -1 4l4 3q1 1 9 14v2l1 2v4q3 8 -5 11q-15 6 -24 2
q-13 -7 -22 -19q-12 -14 -20 -36q-1 -4 -2 -13t-3 -13q0 -6 1 -8q8 -21 10 -23q1 -2 8 -9q5 -6 11 -11l9 -7q1 1 5 6t6 8l16 20l3 3q6 6 9 11l4 5l21 23q9 8 19 13l20 14q3 3 33 20q2 1 6.5 4t8 5t6.5 3q18 9 24 11q2 2 7.5 3t7.5 2q1 1 3 2q1 1 3 2l23 8q34 9 38 10
q11 3 32 5h33q2 0 17 -3q24 -6 33 -14q13 -13 13 -28q1 -16 -9 -46q-7 -14 -16 -23q-1 -2 -4 -4t-5 -3q-22 -17 -38 -24l-20 -10q-13 -9 -32 -15l-36 -15q-1 0 -6.5 -2t-9.5 -3q-11 -6 -21 -8q-9 -2 -25 -6.5t-19 -5.5l-16 -3q-17 -4 -45 -4q-4 0 -11.5 0.5t-12.5 0.5
q-1 1 -6 -1q-1 -3 -4 -8t-5 -9.5t-3 -9.5l-3.5 -10.5t-4.5 -11.5t-5 -12t-5 -12l-3 -11l-3 -9q-2 -3 -3 -8.5t-2 -9.5q-6 -18 -7 -30q-1 -8 -2 -23t-3 -23q0 -4 0.5 -12.5t0.5 -12.5q0 -20 -1 -31q0 -15 1 -23q2 -5 4 -25q0 -10 1 -13q2 -19 4 -23l1 -2q2 -2 2 -3l9 -21
l3 -4q4 -6 12.5 -14.5t12.5 -13.5q11 -11 33 -11q8 0 16 2q22 7 30 12l1 1h1q4 4 15 11q4 3 11.5 8.5t10.5 9.5q8 8 22 26q1 3 18 29q2 8 2 10q0 3 0.5 11t0.5 12q-1 16 5 42v2q-1 9 4 21l15 63q5 13 6 17q4 10 4 13q4 14 7 21l4 14q1 4 3 11.5t4 11.5l3 6q3 13 4 15
q1 3 11 31q6 12 16 18q15 9 35 14h1q6 3 25 3q5 -2 5 -5q3 -5 0 -11l-15 -33l-14 -28q-2 -4 -7 -15.5t-7 -17.5q-1 -8 -5 -17l-9 -27l-15 -55q-1 -4 -2.5 -13t-3.5 -13q-2 -10 -13 -43q0 -2 -1 -4v-3l-8 -34q0 -6 -1 -9q0 -2 -2 -16q0 -1 -1 -3.5t-1 -4.5q-2 -16 -2 -24
q-2 -15 0 -29q1 -10 5 -19q1 -5 6 -10t11 -5q10 0 19 4q11 3 18 10l33 31q3 4 11 14t12 16q12 18 25 38t19 30l6 10q0 3 7 13zM150 468l-13 -20l-13 -23q2 -1 7 -1q3 -1 15 -1q19 -1 45 4q17 3 41 9q14 4 31 10q13 3 30 11l4 2q5 1 9.5 3t10.5 4.5t10 3.5q2 1 7 4t9 4l26 13
q2 1 6 2t6 3q4 3 13 9t14 10l14 10q17 22 20 52q2 18 -5 26q-4 6 -10 10q-10 7 -23 7q-18 0 -30 -4q-2 0 -5.5 -1.5t-6.5 -2.5q-9 -4 -25 -8.5t-19 -5.5q-6 -2 -12 -5t-12.5 -6t-10.5 -5q-3 -2 -10 -5.5l-11 -5.5l-37 -25l-10 -8l-4 -4l-12 -9q-2 -2 -7 -6.5t-9 -8.5t-7 -8
q-5 -5 -15 -19q-5 -5 -10 -13q0 -1 -1 -2zM415 767q1 -4 1 -9.5v-9.5q0 -12 1 -15q0 -3 -0.5 -8t-0.5 -7q0 -4 0.5 -9t0.5 -8q0 -8 -2 -22v-24q1 -2 -1.5 -2.5t-4.5 2.5q-4 16 -11 37q-3 14 -5 17q-1 3 -2.5 8t-2.5 9t-3 7q-3 5 -12 29q-11 17 5 28q1 0 3.5 1t4.5 1.5t4 0.5
q8 2 17 -3q8 -6 8 -23z" />
    <glyph glyph-name="Aacute" unicode="&#xc1;" horiz-adv-x="453" 
d="M493 181q2 3 4.5 2.5t2.5 -4.5q-4 -5 -5 -9q-1 -1 -1 -3q-24 -43 -52 -81q-22 -30 -32 -40q-23 -23 -32 -29l-19 -12q-22 -10 -38 1q-9 5 -18 17q-11 15 -17 32q-1 1 -2 4l-3 12q-2 8 -2 11l-3 26q-2 -2 -3 -5q-4 -4 -8.5 -12.5t-8.5 -12.5q-2 -4 -7.5 -9.5t-8.5 -9.5
q-23 -23 -53 -41q-10 -7 -39 -14q-21 -5 -37 2q-4 1 -11 2t-11 3q-12 4 -34 14l-7 7l-10 9q-8 6 -12 10q-10 11 -16 28l-4 11q-7 11 -10 27q-1 5 -3 16t-3 16l-2 21q-2 18 -2 25v22q0 2 2 16q2 9 1 10q0 17 4 32q1 5 2.5 13.5t3.5 13.5l3 10q1 3 5.5 20.5t8.5 26.5
q9 26 16 36l4 10q4 15 15 32q1 2 2.5 5.5t3.5 5.5l-2 3q-8 6 -19 17q-14 14 -20 34q-3 7 -1 17q1 4 2 7.5t1 5.5l8 24q2 4 9 16q12 16 30 27q4 3 12 4q10 1 21 -5q12 -5 6 -18q-3 -9 -9 -18q-2 -3 -12 -11q-2 2 -1 4l4 3q1 1 9 14v2l1 2v4q3 8 -5 11q-15 6 -24 2
q-13 -7 -22 -19q-12 -14 -20 -36q-1 -4 -2 -13t-3 -13q0 -6 1 -8q8 -21 10 -23q1 -2 8 -9q5 -6 11 -11l9 -7q1 1 5 6t6 8l16 20l3 3q6 6 9 11l4 5l21 23q9 8 19 13l20 14q3 3 33 20q2 1 6.5 4t8 5t6.5 3q18 9 24 11q2 2 7.5 3t7.5 2q1 1 3 2q1 1 3 2l23 8q34 9 38 10
q11 3 32 5h33q2 0 17 -3q24 -6 33 -14q13 -13 13 -28q1 -16 -9 -46q-7 -14 -16 -23q-1 -2 -4 -4t-5 -3q-22 -17 -38 -24l-20 -10q-13 -9 -32 -15l-36 -15q-1 0 -6.5 -2t-9.5 -3q-11 -6 -21 -8q-9 -2 -25 -6.5t-19 -5.5l-16 -3q-17 -4 -45 -4q-4 0 -11.5 0.5t-12.5 0.5
q-1 1 -6 -1q-1 -3 -4 -8t-5 -9.5t-3 -9.5l-3.5 -10.5t-4.5 -11.5t-5 -12t-5 -12l-3 -11l-3 -9q-2 -3 -3 -8.5t-2 -9.5q-6 -18 -7 -30q-1 -8 -2 -23t-3 -23q0 -4 0.5 -12.5t0.5 -12.5q0 -20 -1 -31q0 -15 1 -23q2 -5 4 -25q0 -10 1 -13q2 -19 4 -23l1 -2q2 -2 2 -3l9 -21
l3 -4q4 -6 12.5 -14.5t12.5 -13.5q11 -11 33 -11q8 0 16 2q22 7 30 12l1 1h1q4 4 15 11q4 3 11.5 8.5t10.5 9.5q8 8 22 26q1 3 18 29q2 8 2 10q0 3 0.5 11t0.5 12q-1 16 5 42v2q-1 9 4 21l15 63q5 13 6 17q4 10 4 13q4 14 7 21l4 14q1 4 3 11.5t4 11.5l3 6q3 13 4 15
q1 3 11 31q6 12 16 18q15 9 35 14h1q6 3 25 3q5 -2 5 -5q3 -5 0 -11l-15 -33l-14 -28q-2 -4 -7 -15.5t-7 -17.5q-1 -8 -5 -17l-9 -27l-15 -55q-1 -4 -2.5 -13t-3.5 -13q-2 -10 -13 -43q0 -2 -1 -4v-3l-8 -34q0 -6 -1 -9q0 -2 -2 -16q0 -1 -1 -3.5t-1 -4.5q-2 -16 -2 -24
q-2 -15 0 -29q1 -10 5 -19q1 -5 6 -10t11 -5q10 0 19 4q11 3 18 10l33 31q3 4 11 14t12 16q12 18 25 38t19 30l6 10q0 3 7 13zM150 468l-13 -20l-13 -23q2 -1 7 -1q3 -1 15 -1q19 -1 45 4q17 3 41 9q14 4 31 10q13 3 30 11l4 2q5 1 9.5 3t10.5 4.5t10 3.5q2 1 7 4t9 4l26 13
q2 1 6 2t6 3q4 3 13 9t14 10l14 10q17 22 20 52q2 18 -5 26q-4 6 -10 10q-10 7 -23 7q-18 0 -30 -4q-2 0 -5.5 -1.5t-6.5 -2.5q-9 -4 -25 -8.5t-19 -5.5q-6 -2 -12 -5t-12.5 -6t-10.5 -5q-3 -2 -10 -5.5l-11 -5.5l-37 -25l-10 -8l-4 -4l-12 -9q-2 -2 -7 -6.5t-9 -8.5t-7 -8
q-5 -5 -15 -19q-5 -5 -10 -13q0 -1 -1 -2zM492 724l-18 -11l-14 -9q-2 -2 -7 -4.5l-7 -3.5l-7.5 -5t-8.5 -5l-23 -11l-23 -13q-3 -3 -5 1l1 4q5 4 10 9t11 11.5t10 10.5l14 14q14 14 18 21q4 6 11 14t10 13q12 19 30 10q9 -6 10 -8q5 -8 5 -17q0 -10 -17 -21z" />
    <glyph glyph-name="Acircumflex" unicode="&#xc2;" horiz-adv-x="453" 
d="M493 181q2 3 4.5 2.5t2.5 -4.5q-4 -5 -5 -9q-1 -1 -1 -3q-24 -43 -52 -81q-22 -30 -32 -40q-23 -23 -32 -29l-19 -12q-22 -10 -38 1q-9 5 -18 17q-11 15 -17 32q-1 1 -2 4l-3 12q-2 8 -2 11l-3 26q-2 -2 -3 -5q-4 -4 -8.5 -12.5t-8.5 -12.5q-2 -4 -7.5 -9.5t-8.5 -9.5
q-23 -23 -53 -41q-10 -7 -39 -14q-21 -5 -37 2q-4 1 -11 2t-11 3q-12 4 -34 14l-7 7l-10 9q-8 6 -12 10q-10 11 -16 28l-4 11q-7 11 -10 27q-1 5 -3 16t-3 16l-2 21q-2 18 -2 25v22q0 2 2 16q2 9 1 10q0 17 4 32q1 5 2.5 13.5t3.5 13.5l3 10q1 3 5.5 20.5t8.5 26.5
q9 26 16 36l4 10q4 15 15 32q1 2 2.5 5.5t3.5 5.5l-2 3q-8 6 -19 17q-14 14 -20 34q-3 7 -1 17q1 4 2 7.5t1 5.5l8 24q2 4 9 16q12 16 30 27q4 3 12 4q10 1 21 -5q12 -5 6 -18q-3 -9 -9 -18q-2 -3 -12 -11q-2 2 -1 4l4 3q1 1 9 14v2l1 2v4q3 8 -5 11q-15 6 -24 2
q-13 -7 -22 -19q-12 -14 -20 -36q-1 -4 -2 -13t-3 -13q0 -6 1 -8q8 -21 10 -23q1 -2 8 -9q5 -6 11 -11l9 -7q1 1 5 6t6 8l16 20l3 3q6 6 9 11l4 5l21 23q9 8 19 13l20 14q3 3 33 20q2 1 6.5 4t8 5t6.5 3q18 9 24 11q2 2 7.5 3t7.5 2q1 1 3 2q1 1 3 2l23 8q34 9 38 10
q11 3 32 5h33q2 0 17 -3q24 -6 33 -14q13 -13 13 -28q1 -16 -9 -46q-7 -14 -16 -23q-1 -2 -4 -4t-5 -3q-22 -17 -38 -24l-20 -10q-13 -9 -32 -15l-36 -15q-1 0 -6.5 -2t-9.5 -3q-11 -6 -21 -8q-9 -2 -25 -6.5t-19 -5.5l-16 -3q-17 -4 -45 -4q-4 0 -11.5 0.5t-12.5 0.5
q-1 1 -6 -1q-1 -3 -4 -8t-5 -9.5t-3 -9.5l-3.5 -10.5t-4.5 -11.5t-5 -12t-5 -12l-3 -11l-3 -9q-2 -3 -3 -8.5t-2 -9.5q-6 -18 -7 -30q-1 -8 -2 -23t-3 -23q0 -4 0.5 -12.5t0.5 -12.5q0 -20 -1 -31q0 -15 1 -23q2 -5 4 -25q0 -10 1 -13q2 -19 4 -23l1 -2q2 -2 2 -3l9 -21
l3 -4q4 -6 12.5 -14.5t12.5 -13.5q11 -11 33 -11q8 0 16 2q22 7 30 12l1 1h1q4 4 15 11q4 3 11.5 8.5t10.5 9.5q8 8 22 26q1 3 18 29q2 8 2 10q0 3 0.5 11t0.5 12q-1 16 5 42v2q-1 9 4 21l15 63q5 13 6 17q4 10 4 13q4 14 7 21l4 14q1 4 3 11.5t4 11.5l3 6q3 13 4 15
q1 3 11 31q6 12 16 18q15 9 35 14h1q6 3 25 3q5 -2 5 -5q3 -5 0 -11l-15 -33l-14 -28q-2 -4 -7 -15.5t-7 -17.5q-1 -8 -5 -17l-9 -27l-15 -55q-1 -4 -2.5 -13t-3.5 -13q-2 -10 -13 -43q0 -2 -1 -4v-3l-8 -34q0 -6 -1 -9q0 -2 -2 -16q0 -1 -1 -3.5t-1 -4.5q-2 -16 -2 -24
q-2 -15 0 -29q1 -10 5 -19q1 -5 6 -10t11 -5q10 0 19 4q11 3 18 10l33 31q3 4 11 14t12 16q12 18 25 38t19 30l6 10q0 3 7 13zM150 468l-13 -20l-13 -23q2 -1 7 -1q3 -1 15 -1q19 -1 45 4q17 3 41 9q14 4 31 10q13 3 30 11l4 2q5 1 9.5 3t10.5 4.5t10 3.5q2 1 7 4t9 4l26 13
q2 1 6 2t6 3q4 3 13 9t14 10l14 10q17 22 20 52q2 18 -5 26q-4 6 -10 10q-10 7 -23 7q-18 0 -30 -4q-2 0 -5.5 -1.5t-6.5 -2.5q-9 -4 -25 -8.5t-19 -5.5q-6 -2 -12 -5t-12.5 -6t-10.5 -5q-3 -2 -10 -5.5l-11 -5.5l-37 -25l-10 -8l-4 -4l-12 -9q-2 -2 -7 -6.5t-9 -8.5t-7 -8
q-5 -5 -15 -19q-5 -5 -10 -13q0 -1 -1 -2zM322 674l-8 -4q-4 -2 -6 0q-1 1 -1 3q0 1 2 3q11 8 16 13l13 10l12 9q2 0 2.5 2t2.5 2q9 9 27 23l10 8l2 3q2 0 2 2q2 2 3 2l8 8t9 7l6 5l5 6l10 8l11 11q2 2 4.5 6.5t4.5 6.5l7 7q4 4 6.5 3.5t1.5 -5.5q0 -14 1 -16v-17
q1 -2 1 -20q0 -3 -0.5 -7.5t-0.5 -6.5q1 -1 3 -18l4 -23q0 -9 1 -13q0 -2 1 -4q2 -2 2 -3l2 -10q0 -3 -3 -5q-4 -2 -5 2l-4 9l-3 6q-4 2 -5 6l-4 9l-4 9q-1 2 -3.5 5.5t-2.5 4.5l-2 7q-1 1 -1 7q-1 2 -1 8q-4 -1 -9 -6q-1 -1 -3 -2l-4 -2t-5 -2t-4 -2q-1 -2 -3.5 -3.5
t-4.5 -2.5q-1 -1 -4 -2t-4 -3q-2 -2 -5 -3t-5 -3q-1 -2 -5 -3t-5 -2q-2 -1 -5 -2t-4 -3l-8 -4q-2 -1 -5 -2t-5 -3l-7 -3q-2 -2 -5 -3.5l-5 -2.5l-8 -4l-6 -3z" />
    <glyph glyph-name="Atilde" unicode="&#xc3;" horiz-adv-x="453" 
d="M493 181q2 3 4.5 2.5t2.5 -4.5q-4 -5 -5 -9q-1 -1 -1 -3q-24 -43 -52 -81q-22 -30 -32 -40q-23 -23 -32 -29l-19 -12q-22 -10 -38 1q-9 5 -18 17q-11 15 -17 32q-1 1 -2 4l-3 12q-2 8 -2 11l-3 26q-2 -2 -3 -5q-4 -4 -8.5 -12.5t-8.5 -12.5q-2 -4 -7.5 -9.5t-8.5 -9.5
q-23 -23 -53 -41q-10 -7 -39 -14q-21 -5 -37 2q-4 1 -11 2t-11 3q-12 4 -34 14l-7 7l-10 9q-8 6 -12 10q-10 11 -16 28l-4 11q-7 11 -10 27q-1 5 -3 16t-3 16l-2 21q-2 18 -2 25v22q0 2 2 16q2 9 1 10q0 17 4 32q1 5 2.5 13.5t3.5 13.5l3 10q1 3 5.5 20.5t8.5 26.5
q9 26 16 36l4 10q4 15 15 32q1 2 2.5 5.5t3.5 5.5l-2 3q-8 6 -19 17q-14 14 -20 34q-3 7 -1 17q1 4 2 7.5t1 5.5l8 24q2 4 9 16q12 16 30 27q4 3 12 4q10 1 21 -5q12 -5 6 -18q-3 -9 -9 -18q-2 -3 -12 -11q-2 2 -1 4l4 3q1 1 9 14v2l1 2v4q3 8 -5 11q-15 6 -24 2
q-13 -7 -22 -19q-12 -14 -20 -36q-1 -4 -2 -13t-3 -13q0 -6 1 -8q8 -21 10 -23q1 -2 8 -9q5 -6 11 -11l9 -7q1 1 5 6t6 8l16 20l3 3q6 6 9 11l4 5l21 23q9 8 19 13l20 14q3 3 33 20q2 1 6.5 4t8 5t6.5 3q18 9 24 11q2 2 7.5 3t7.5 2q1 1 3 2q1 1 3 2l23 8q34 9 38 10
q11 3 32 5h33q2 0 17 -3q24 -6 33 -14q13 -13 13 -28q1 -16 -9 -46q-7 -14 -16 -23q-1 -2 -4 -4t-5 -3q-22 -17 -38 -24l-20 -10q-13 -9 -32 -15l-36 -15q-1 0 -6.5 -2t-9.5 -3q-11 -6 -21 -8q-9 -2 -25 -6.5t-19 -5.5l-16 -3q-17 -4 -45 -4q-4 0 -11.5 0.5t-12.5 0.5
q-1 1 -6 -1q-1 -3 -4 -8t-5 -9.5t-3 -9.5l-3.5 -10.5t-4.5 -11.5t-5 -12t-5 -12l-3 -11l-3 -9q-2 -3 -3 -8.5t-2 -9.5q-6 -18 -7 -30q-1 -8 -2 -23t-3 -23q0 -4 0.5 -12.5t0.5 -12.5q0 -20 -1 -31q0 -15 1 -23q2 -5 4 -25q0 -10 1 -13q2 -19 4 -23l1 -2q2 -2 2 -3l9 -21
l3 -4q4 -6 12.5 -14.5t12.5 -13.5q11 -11 33 -11q8 0 16 2q22 7 30 12l1 1h1q4 4 15 11q4 3 11.5 8.5t10.5 9.5q8 8 22 26q1 3 18 29q2 8 2 10q0 3 0.5 11t0.5 12q-1 16 5 42v2q-1 9 4 21l15 63q5 13 6 17q4 10 4 13q4 14 7 21l4 14q1 4 3 11.5t4 11.5l3 6q3 13 4 15
q1 3 11 31q6 12 16 18q15 9 35 14h1q6 3 25 3q5 -2 5 -5q3 -5 0 -11l-15 -33l-14 -28q-2 -4 -7 -15.5t-7 -17.5q-1 -8 -5 -17l-9 -27l-15 -55q-1 -4 -2.5 -13t-3.5 -13q-2 -10 -13 -43q0 -2 -1 -4v-3l-8 -34q0 -6 -1 -9q0 -2 -2 -16q0 -1 -1 -3.5t-1 -4.5q-2 -16 -2 -24
q-2 -15 0 -29q1 -10 5 -19q1 -5 6 -10t11 -5q10 0 19 4q11 3 18 10l33 31q3 4 11 14t12 16q12 18 25 38t19 30l6 10q0 3 7 13zM150 468l-13 -20l-13 -23q2 -1 7 -1q3 -1 15 -1q19 -1 45 4q17 3 41 9q14 4 31 10q13 3 30 11l4 2q5 1 9.5 3t10.5 4.5t10 3.5q2 1 7 4t9 4l26 13
q2 1 6 2t6 3q4 3 13 9t14 10l14 10q17 22 20 52q2 18 -5 26q-4 6 -10 10q-10 7 -23 7q-18 0 -30 -4q-2 0 -5.5 -1.5t-6.5 -2.5q-9 -4 -25 -8.5t-19 -5.5q-6 -2 -12 -5t-12.5 -6t-10.5 -5q-3 -2 -10 -5.5l-11 -5.5l-37 -25l-10 -8l-4 -4l-12 -9q-2 -2 -7 -6.5t-9 -8.5t-7 -8
q-5 -5 -15 -19q-5 -5 -10 -13q0 -1 -1 -2zM315 689l-8 -9q-1 -1 -3 -1q-1 0 -2 1q-2 2 0 4q4 8 11 14l9 9q4 2 7 5l4 4q9 7 12 8q2 2 8 4l9 4q11 3 19 3q3 0 13 -2l13 -2l12 -4q7 -4 16 -4q4 0 12 -2q1 0 2 -0.5t2 -0.5q7 -1 18 -1h10q7 1 12 6l5 6q2 1 3 4t2 4q3 3 5 0
q2 -2 0 -5l-5 -10l-2 -4t-2 -3t-3 -5t-4 -5q-2 -3 -3 -4q-2 -2 -4 -4.5t-3 -3.5l-2 -2l-8 -7q-2 0 -2 -2q-2 0 -3 -1q-2 -2 -4 -2q-13 -5 -22 -5q-15 0 -24 4l-18 7q-14 6 -20 6q-9 4 -17 5h-9.5t-11.5 2q-3 -1 -8 -2.5t-8 -3.5q-5 -2 -8 -5z" />
    <glyph glyph-name="Adieresis" unicode="&#xc4;" horiz-adv-x="453" 
d="M493 181q2 3 4.5 2.5t2.5 -4.5q-4 -5 -5 -9q-1 -1 -1 -3q-24 -43 -52 -81q-22 -30 -32 -40q-23 -23 -32 -29l-19 -12q-22 -10 -38 1q-9 5 -18 17q-11 15 -17 32q-1 1 -2 4l-3 12q-2 8 -2 11l-3 26q-2 -2 -3 -5q-4 -4 -8.5 -12.5t-8.5 -12.5q-2 -4 -7.5 -9.5t-8.5 -9.5
q-23 -23 -53 -41q-10 -7 -39 -14q-21 -5 -37 2q-4 1 -11 2t-11 3q-12 4 -34 14l-7 7l-10 9q-8 6 -12 10q-10 11 -16 28l-4 11q-7 11 -10 27q-1 5 -3 16t-3 16l-2 21q-2 18 -2 25v22q0 2 2 16q2 9 1 10q0 17 4 32q1 5 2.5 13.5t3.5 13.5l3 10q1 3 5.5 20.5t8.5 26.5
q9 26 16 36l4 10q4 15 15 32q1 2 2.5 5.5t3.5 5.5l-2 3q-8 6 -19 17q-14 14 -20 34q-3 7 -1 17q1 4 2 7.5t1 5.5l8 24q2 4 9 16q12 16 30 27q4 3 12 4q10 1 21 -5q12 -5 6 -18q-3 -9 -9 -18q-2 -3 -12 -11q-2 2 -1 4l4 3q1 1 9 14v2l1 2v4q3 8 -5 11q-15 6 -24 2
q-13 -7 -22 -19q-12 -14 -20 -36q-1 -4 -2 -13t-3 -13q0 -6 1 -8q8 -21 10 -23q1 -2 8 -9q5 -6 11 -11l9 -7q1 1 5 6t6 8l16 20l3 3q6 6 9 11l4 5l21 23q9 8 19 13l20 14q3 3 33 20q2 1 6.5 4t8 5t6.5 3q18 9 24 11q2 2 7.5 3t7.5 2q1 1 3 2q1 1 3 2l23 8q34 9 38 10
q11 3 32 5h33q2 0 17 -3q24 -6 33 -14q13 -13 13 -28q1 -16 -9 -46q-7 -14 -16 -23q-1 -2 -4 -4t-5 -3q-22 -17 -38 -24l-20 -10q-13 -9 -32 -15l-36 -15q-1 0 -6.5 -2t-9.5 -3q-11 -6 -21 -8q-9 -2 -25 -6.5t-19 -5.5l-16 -3q-17 -4 -45 -4q-4 0 -11.5 0.5t-12.5 0.5
q-1 1 -6 -1q-1 -3 -4 -8t-5 -9.5t-3 -9.5l-3.5 -10.5t-4.5 -11.5t-5 -12t-5 -12l-3 -11l-3 -9q-2 -3 -3 -8.5t-2 -9.5q-6 -18 -7 -30q-1 -8 -2 -23t-3 -23q0 -4 0.5 -12.5t0.5 -12.5q0 -20 -1 -31q0 -15 1 -23q2 -5 4 -25q0 -10 1 -13q2 -19 4 -23l1 -2q2 -2 2 -3l9 -21
l3 -4q4 -6 12.5 -14.5t12.5 -13.5q11 -11 33 -11q8 0 16 2q22 7 30 12l1 1h1q4 4 15 11q4 3 11.5 8.5t10.5 9.5q8 8 22 26q1 3 18 29q2 8 2 10q0 3 0.5 11t0.5 12q-1 16 5 42v2q-1 9 4 21l15 63q5 13 6 17q4 10 4 13q4 14 7 21l4 14q1 4 3 11.5t4 11.5l3 6q3 13 4 15
q1 3 11 31q6 12 16 18q15 9 35 14h1q6 3 25 3q5 -2 5 -5q3 -5 0 -11l-15 -33l-14 -28q-2 -4 -7 -15.5t-7 -17.5q-1 -8 -5 -17l-9 -27l-15 -55q-1 -4 -2.5 -13t-3.5 -13q-2 -10 -13 -43q0 -2 -1 -4v-3l-8 -34q0 -6 -1 -9q0 -2 -2 -16q0 -1 -1 -3.5t-1 -4.5q-2 -16 -2 -24
q-2 -15 0 -29q1 -10 5 -19q1 -5 6 -10t11 -5q10 0 19 4q11 3 18 10l33 31q3 4 11 14t12 16q12 18 25 38t19 30l6 10q0 3 7 13zM150 468l-13 -20l-13 -23q2 -1 7 -1q3 -1 15 -1q19 -1 45 4q17 3 41 9q14 4 31 10q13 3 30 11l4 2q5 1 9.5 3t10.5 4.5t10 3.5q2 1 7 4t9 4l26 13
q2 1 6 2t6 3q4 3 13 9t14 10l14 10q17 22 20 52q2 18 -5 26q-4 6 -10 10q-10 7 -23 7q-18 0 -30 -4q-2 0 -5.5 -1.5t-6.5 -2.5q-9 -4 -25 -8.5t-19 -5.5q-6 -2 -12 -5t-12.5 -6t-10.5 -5q-3 -2 -10 -5.5l-11 -5.5l-37 -25l-10 -8l-4 -4l-12 -9q-2 -2 -7 -6.5t-9 -8.5t-7 -8
q-5 -5 -15 -19q-5 -5 -10 -13q0 -1 -1 -2zM361 741q10 0 16 -6q12 -5 12 -18q0 -14 -14 -28q-7 -6 -12 -6q-10 -4 -23 1q-26 9 -11 37q7 14 32 20zM438 669q-2 0 -18 7q-10 4 -10 17q0 14 14 28q8 6 12 6q10 4 23 -1q26 -9 11 -37q-7 -14 -32 -20z" />
    <glyph glyph-name="Aring" unicode="&#xc5;" horiz-adv-x="453" 
d="M493 181q2 3 4.5 2.5t2.5 -4.5q-4 -5 -5 -9q-1 -1 -1 -3q-24 -43 -52 -81q-22 -30 -32 -40q-23 -23 -32 -29l-19 -12q-22 -10 -38 1q-9 5 -18 17q-11 15 -17 32q-1 1 -2 4l-3 12q-2 8 -2 11l-3 26q-2 -2 -3 -5q-4 -4 -8.5 -12.5t-8.5 -12.5q-2 -4 -7.5 -9.5t-8.5 -9.5
q-23 -23 -53 -41q-10 -7 -39 -14q-21 -5 -37 2q-4 1 -11 2t-11 3q-12 4 -34 14l-7 7l-10 9q-8 6 -12 10q-10 11 -16 28l-4 11q-7 11 -10 27q-1 5 -3 16t-3 16l-2 21q-2 18 -2 25v22q0 2 2 16q2 9 1 10q0 17 4 32q1 5 2.5 13.5t3.5 13.5l3 10q1 3 5.5 20.5t8.5 26.5
q9 26 16 36l4 10q4 15 15 32q1 2 2.5 5.5t3.5 5.5l-2 3q-8 6 -19 17q-14 14 -20 34q-3 7 -1 17q1 4 2 7.5t1 5.5l8 24q2 4 9 16q12 16 30 27q4 3 12 4q10 1 21 -5q12 -5 6 -18q-3 -9 -9 -18q-2 -3 -12 -11q-2 2 -1 4l4 3q1 1 9 14v2l1 2v4q3 8 -5 11q-15 6 -24 2
q-13 -7 -22 -19q-12 -14 -20 -36q-1 -4 -2 -13t-3 -13q0 -6 1 -8q8 -21 10 -23q1 -2 8 -9q5 -6 11 -11l9 -7q1 1 5 6t6 8l16 20l3 3q6 6 9 11l4 5l21 23q9 8 19 13l20 14q3 3 33 20q2 1 6.5 4t8 5t6.5 3q18 9 24 11q2 2 7.5 3t7.5 2q1 1 3 2q1 1 3 2l23 8q34 9 38 10
q11 3 32 5h33q2 0 17 -3q24 -6 33 -14q13 -13 13 -28q1 -16 -9 -46q-7 -14 -16 -23q-1 -2 -4 -4t-5 -3q-22 -17 -38 -24l-20 -10q-13 -9 -32 -15l-36 -15q-1 0 -6.5 -2t-9.5 -3q-11 -6 -21 -8q-9 -2 -25 -6.5t-19 -5.5l-16 -3q-17 -4 -45 -4q-4 0 -11.5 0.5t-12.5 0.5
q-1 1 -6 -1q-1 -3 -4 -8t-5 -9.5t-3 -9.5l-3.5 -10.5t-4.5 -11.5t-5 -12t-5 -12l-3 -11l-3 -9q-2 -3 -3 -8.5t-2 -9.5q-6 -18 -7 -30q-1 -8 -2 -23t-3 -23q0 -4 0.5 -12.5t0.5 -12.5q0 -20 -1 -31q0 -15 1 -23q2 -5 4 -25q0 -10 1 -13q2 -19 4 -23l1 -2q2 -2 2 -3l9 -21
l3 -4q4 -6 12.5 -14.5t12.5 -13.5q11 -11 33 -11q8 0 16 2q22 7 30 12l1 1h1q4 4 15 11q4 3 11.5 8.5t10.5 9.5q8 8 22 26q1 3 18 29q2 8 2 10q0 3 0.5 11t0.5 12q-1 16 5 42v2q-1 9 4 21l15 63q5 13 6 17q4 10 4 13q4 14 7 21l4 14q1 4 3 11.5t4 11.5l3 6q3 13 4 15
q1 3 11 31q6 12 16 18q15 9 35 14h1q6 3 25 3q5 -2 5 -5q3 -5 0 -11l-15 -33l-14 -28q-2 -4 -7 -15.5t-7 -17.5q-1 -8 -5 -17l-9 -27l-15 -55q-1 -4 -2.5 -13t-3.5 -13q-2 -10 -13 -43q0 -2 -1 -4v-3l-8 -34q0 -6 -1 -9q0 -2 -2 -16q0 -1 -1 -3.5t-1 -4.5q-2 -16 -2 -24
q-2 -15 0 -29q1 -10 5 -19q1 -5 6 -10t11 -5q10 0 19 4q11 3 18 10l33 31q3 4 11 14t12 16q12 18 25 38t19 30l6 10q0 3 7 13zM150 468l-13 -20l-13 -23q2 -1 7 -1q3 -1 15 -1q19 -1 45 4q17 3 41 9q14 4 31 10q13 3 30 11l4 2q5 1 9.5 3t10.5 4.5t10 3.5q2 1 7 4t9 4l26 13
q2 1 6 2t6 3q4 3 13 9t14 10l14 10q17 22 20 52q2 18 -5 26q-4 6 -10 10q-10 7 -23 7q-18 0 -30 -4q-2 0 -5.5 -1.5t-6.5 -2.5q-9 -4 -25 -8.5t-19 -5.5q-6 -2 -12 -5t-12.5 -6t-10.5 -5q-3 -2 -10 -5.5l-11 -5.5l-37 -25l-10 -8l-4 -4l-12 -9q-2 -2 -7 -6.5t-9 -8.5t-7 -8
q-5 -5 -15 -19q-5 -5 -10 -13q0 -1 -1 -2zM416 705q12 17 12 35q0 26 -20 26q-13 0 -27.5 -9t-22.5 -25q-4 -17 -4 -26q0 -23 25 -23q22 0 37 22zM429 708q-24 -37 -55 -37q-35 4 -40 39q0 7 1 15v4q0 3 3 6q18 47 61 47q11 0 23.5 -10t15.5 -23q0 -25 -9 -41z" />
    <glyph glyph-name="AE" unicode="&#xc6;" horiz-adv-x="768" 
d="M345 2q-34 0 -51.5 32t-17.5 74q-2 -2 -3 -5l-17 -25q-2 -4 -7.5 -9.5t-8.5 -9.5q-23 -23 -53 -41q-10 -7 -39 -14q-21 -5 -37 2l-22 5q-12 4 -34 14l-7 7l-10 9q-8 6 -12 10q-10 11 -16 28l-4 11q-7 11 -10 27q-1 5 -3 16t-3 16l-2 21q-2 18 -2 25v22q0 2 2 16q2 9 1 10
q0 17 4 32l6 27l3 10q1 3 5.5 20.5t8.5 26.5q9 26 16 36l4 10q4 15 15 32q1 2 2.5 5.5t3.5 5.5l-5 3q-16 12 -18 14q-11 11 -17 30q-4 9 -2 24l3 15l8 22q2 4 9 16q12 16 30 27q4 3 12 4q14 2 21 -4q12 -5 6 -19q-3 -9 -9 -18q-2 -3 -12 -11q-2 2 -1 4l4 3q1 1 9 14v2l1 2v4
q4 10 -6 15q-9 4 -23 -2q-13 -7 -22 -19q-12 -15 -20 -35q-4 -12 -5 -27q0 -9 1 -12q2 -11 8 -20l8 -10q2 -2 12 -10q2 -1 5.5 -2.5t4.5 -3.5q1 1 5 6t6 8l16 20l3 3q6 6 9 11l4 5l21 23q9 8 19 13l20 14q3 3 33 20q2 1 6.5 4t8 5t6.5 3q18 9 24 11q2 2 7.5 3t7.5 2l6 4
l23 8q34 9 38 10q2 1 18 2h33q2 0 17 -3q27 -7 35 -14q18 -18 9 -60q5 2 22 2q5 -2 5 -5q3 -5 0 -11q-2 -4 -5 -10.5t-5.5 -12t-4.5 -10.5l-14 -28q-2 -4 -7 -15.5t-7 -17.5q-1 -8 -5 -17l-9 -27q-2 -10 -7 -33t-8 -32q-1 -3 -11.5 -25.5t-11.5 -26.5q-8 -38 -21 -73
q0 -1 -4.5 -20t-4.5 -21l-9 -34q0 -6 -1 -9q0 -2 -1.5 -10.5t-3 -23.5t-1.5 -32q0 -24 7.5 -34.5t27.5 -10.5q25 0 51 18q-9 7 -13 17q-2 0 -4 5l-6 11q-1 2 -2.5 4.5t-3 7.5t-3.5 9q0 1 -2 9t-4.5 22.5t-2.5 31.5q0 44 9 72q10 29 11 31q3 4 8 13t8 14q7 12 11 15l15 24
l13 12q0 1 1 1t2 1q5 4 12 12.5t15 14.5q22 16 26 19q0 1 -1 2q-17 21 -23 62l-2 14q-2 14 -2 20q0 55 36.5 93.5t84.5 50.5l10 2q20 5 35 5q123 -11 123 -90q0 -9 -3.5 -21t-19 -25t-39.5 -13q-10 0 -28 5t-26 17l-9 17q-1 1 -1 3q0 3 5 3q2 0 3 -1.5t3 -1.5q14 -33 54 -33
q11 0 35 14l3 3q13 21 13 31q0 26 -21 39q-4 1 -11.5 6t-13.5 5l-16 3q-7 1 -24 1h-12l-34 -10q-5 0 -12 -6l-13 -7q-26 -15 -47 -49l-3 -6q-17 -25 -17 -49q0 -1 0.5 -2t0.5 -3q-1 -4 -1 -13q0 -3 2 -17q2 -29 9 -41q16 4 33 4q18 0 33.5 -8t15.5 -22q0 -20 -33 -20
q-29 0 -51 15q-1 0 -2 1q-3 0 -9 -8l-6 -6q-7 -7 -14 -19l-3 -5l-5 -5l-6 -10q-21 -29 -21 -36l-8 -25q-2 -5 -6 -17t-6.5 -20t-2.5 -11l-3 -14q-4 -17 -4 -37q0 -31 4 -42q0 -8 4 -19q0 -2 6 -18q26 19 31 24q10 10 22 19q6 5 18 13.5t18 14.5t50 32q6 3 19 9q14 5 32 10
q15 3 30 3q17 0 41 -11q10 -5 16 -22q5 -11 5 -26q0 -26 -7 -38q-3 -3 -4 -8l-9 -15l-10 -15q-27 -31 -38 -37l-7 -3q-51 -23 -105 -23q-52 0 -65 5q-15 5 -16 5l-12 5q-5 2 -14 5t-16 6t-12 8q-1 0 -2 1q-38 -25 -70 -25zM361 467l3 6q0 1 0.5 3t0.5 4l-7 -3
q-13 -9 -32 -15l-36 -15q-1 0 -6.5 -2t-9.5 -3q-11 -6 -21 -8q-9 -2 -25 -6.5t-19 -5.5l-16 -3q-17 -4 -45 -4q-4 0 -11.5 0.5t-12.5 0.5q-1 1 -6 -1q-1 -3 -4 -8t-5 -9.5t-3 -9.5l-3.5 -10.5t-4.5 -11.5t-5 -12t-5 -12l-3 -11l-3 -9l-5 -18q-6 -18 -7 -30l-5 -46
q0 -4 0.5 -12.5t0.5 -12.5q0 -20 -1 -31q0 -15 1 -23q2 -5 4 -25q0 -10 1 -13q2 -19 4 -23l3 -5l9 -21l3 -4q4 -6 12.5 -14.5t12.5 -13.5q11 -11 33 -11q8 0 16 2q22 7 30 12l1 1h1q4 4 15 11q4 3 11.5 8.5t10.5 9.5q8 8 22 26q1 3 18 29q2 8 2 10q0 7 2 23q1 23 6 42v2
q0 5 9 46t11 45q3 11 15.5 46.5t14.5 46.5q5 13 6 17l4 13l7 21l4 14zM555 2q23 0 30 2q13 2 18 4q11 2 24 8l19 9q1 1 3 1.5t3.5 1.5t3 1.5t3 2l2.5 2.5q2 2 4.5 3.5t3.5 2.5q19 16 27 28q2 2 3 4.5t2 3.5q3 5 9 19q3 7 5 21v15q0 5 -2 13q-1 2 -3 5t-2 4q-2 5 -6 9l-8 6
q-2 0 -2 2q-2 1 -3 2t-13 3q-10 2 -16 2q-19 0 -24 -2q-9 -1 -20 -6l-23 -10q-34 -20 -35 -21q-2 -2 -7 -5t-6 -4l-33 -27l-28 -24q-4 -3 -13.5 -10.5t-15.5 -11.5q3 -10 9 -18l8 -9q3 -3 11 -9q2 -2 5.5 -3t5.5 -3q4 -2 13 -4.5t11 -3.5q10 -3 21 -3q4 0 9 -0.5t7 -0.5z
M137 448l-13 -23q2 -1 7 -1q3 -1 15 -1q19 -1 45 4q17 3 41 9q14 4 31 10q13 3 30 11l4 2q5 1 9.5 3t10.5 4.5t10 3.5q2 1 7 4t9 4q5 2 14.5 7t10.5 6q2 8 11 28q6 12 16 18q17 9 30 13q9 35 -2 50q-4 6 -10 10q-10 7 -23 7q-18 0 -30 -4q-2 0 -5.5 -1.5t-6.5 -2.5
q-11 -4 -30 -11q-6 -2 -12 -5t-12.5 -6t-10.5 -5q-3 -2 -10 -5.5l-11 -5.5l-37 -25l-10 -8l-4 -4l-12 -9q-2 -2 -7 -6.5t-9 -8.5t-7 -8q-5 -5 -15 -19q-5 -5 -10 -13q0 -1 -1 -2zM540 364l3 -2q16 -10 38 -10q24 0 24 10q0 7 -7 11.5t-14 4.5q-33 0 -44 -14z" />
    <glyph glyph-name="Ccedilla" unicode="&#xc7;" horiz-adv-x="384" 
d="M431 179q-2 -3 -4 -8t-4 -7l-3 -5q-11 -19 -13 -22q-11 -21 -34 -53q-28 -40 -50 -58q-27 -21 -50 -31q-4 -1 -12.5 -3t-13.5 -3l-8 -4q-9 -4 -13 -8q-6 -5 -6 -9q0 -2 5 -5l11 -8q8 -6 11 -9l7 -9q8 -11 8 -28q0 -15 -8 -33l-5 -9q-5 -7 -15 -17q-26 -23 -58 -23
q-13 0 -20 4q-8 3 -12 9q-3 2 -5 8q-3 6 -3 13q0 12 7 22t18 10q7 0 15 -5q5 -5 5 -12q0 -6 -5 -11.5t-13 -5.5q-2 0 -2.5 2t1.5 2q13 0 13 13q0 4 -4 8q-2 2 -8 2q-7 0 -12 -5q-3 -3 -4 -6q-3 -7 -3 -15q0 -14 9 -21q3 -3 9 -5q3 -1 13 -1q14 0 27 9q6 4 11 12q8 12 10 28
q1 2 1 10q0 10 -3 18q-2 7 -6 11l-3 5l-5 5l-12 11l-8 6t-6 4l-2 2q0 5 17 16l20 11l12 6q-17 0 -49 2q-48 4 -89 30q-9 5 -20 16q-2 2 -7.5 6t-6.5 5q-5 6 -11 11l-18 22q-13 15 -20 46l-9 28q-4 9 -11 43q0 2 -3 75q-1 15 8 61l9 27q0 1 1 3q3 19 14 43l16 34q11 24 23 41
l10 18q2 5 5 9t7.5 9t7.5 9q2 3 33 31q5 5 11 7q1 0 4 3l12 9l19 12l20 10q25 11 27 12q24 8 32 10q1 0 5.5 0.5t6.5 0.5q1 1 13 3h4q6 0 18 0.5t17 0.5q16 0 25 -1q10 0 17 -1q20 -2 34 -13l16 -14q8 -10 11 -18q7 -15 10 -32q6 -23 -9 -42q-16 -21 -26 -29l-24 -28
l-33 -31q-15 -15 -17 -16q-13 -10 -14 -11q-5 -4 -14.5 -10.5t-14.5 -9.5q-13 -7 -31 -12q-9 -3 -23 3q-14 8 -14 24q-2 13 5 25q2 4 5 8.5l5 7.5q16 21 29 32q3 3 7 2q3 -1 2 -5q-1 -3 -4 -4q-2 -1 -11 -12q-7 -7 -17 -21q-10 -13 -12 -32q-1 -9 6 -16q13 -5 22 -2
q22 8 23 9q2 1 5.5 2.5t5.5 3.5q20 10 40 30q11 8 31 28l15 16l31 33q6 6 18 25q7 12 5 29q-5 26 -13 38q-9 10 -22 15q-15 4 -40 4q-13 1 -31 -5q-6 -2 -8 -2q-19 -5 -30 -10q-8 -3 -19.5 -10.5t-19.5 -11.5q-19 -11 -22 -14q-16 -10 -26 -18q-8 -6 -20 -23q-3 -5 -17 -19
q-13 -14 -16 -27l-7 -14q-7 -17 -12 -24l-9 -16q-2 -2 -2 -3q-1 -3 -4.5 -13t-4.5 -16q-2 -16 -6 -32q-4 -11 -6 -27q-3 -12 -5 -40q-1 -7 -1 -20v-9v-16q2 -6 2.5 -16.5t1.5 -16.5l7 -29l3 -15q2 -17 4 -21l4 -14q3 -13 13 -26q7 -11 25 -27q4 -4 12 -9.5t11 -8.5l12 -6
q1 0 13 -5q14 -6 24 -7q10 0 20 -3q14 -4 57 3q51 9 88 60q10 15 36 58l12 19l8 14q1 3 3 4.5t3.5 0t1.5 -4.5z" />
    <glyph glyph-name="Egrave" unicode="&#xc8;" horiz-adv-x="395" 
d="M167 364l3 -2q16 -10 38 -10q24 0 24 10q0 7 -7 11.5t-14 4.5q-33 0 -44 -14zM152 428q2 -29 9 -41q16 4 33 4q18 0 33.5 -8t15.5 -22q0 -20 -33 -20q-29 0 -51 15q-1 0 -2 1q-3 0 -9 -8l-6 -6q-6 -7 -14 -19l-3 -5l-5 -5l-6 -10q-19 -26 -19 -36l-8 -25l-15 -48l-3 -14
q-4 -17 -4 -37q0 -31 4 -42q0 -9 4 -14v-5q0 -4 4 -12t4 -10q9 -31 36.5 -45.5t56.5 -14.5q4 0 9 1t9 1q2 1 24 3.5t37.5 6.5t35.5 16.5t31 31.5l19 29q11 24 11 45q0 2 -2 10l-5 14l-3 5q-13 15 -23 16q-1 0 -3 0.5t-3 0.5h-8q-19 -3 -23 -4q-9 -3 -17 -9q-24 -21 -25 -28
q-2 -3 -5 -3q-2 0 -4 2q-2 0 -2 3l1 2q0 1 1 3l12 14q20 23 62 29q30 0 43 -18t13 -41q0 -26 -7 -38q-3 -3 -4 -8l-9 -15l-10 -15q-2 -2 -10.5 -12.5t-16 -17.5t-11.5 -7l-7 -3q-51 -23 -105 -23q-52 0 -65 5q-3 1 -6.5 2.5t-5.5 2.5l-2 1l-14 4q-29 7 -42 19q-8 4 -11 7
q-14 10 -18 22q-2 0 -4 5l-6 7q-7 9 -14 25q0 1 -2.5 10.5t-5.5 26t-3 33.5q0 39 6 55l9 24q3 3 9 16t10 19q7 12 11 15q11 18 15 21l13 12q0 1 1 1t2 1l5 7q11 11 26 20q1 0 5 3.5t12.5 10t18.5 12.5q0 1 -1 2q-17 21 -23 62l-2 14q-2 14 -2 20q0 55 36.5 93.5t84.5 50.5
l10 2q20 5 35 5q123 -11 123 -90q0 -9 -3.5 -21t-19 -25t-39.5 -13q-10 0 -28 5t-26 17l-9 17q-1 1 -1 3q0 3 5 3q1 0 3 -1.5t3 -1.5q13 -33 54 -33q11 0 35 14l3 3q13 21 13 31q0 26 -21 39q-4 1 -11.5 6t-13.5 5l-16 3q-7 1 -24 1h-12l-34 -10q-4 0 -12 -6l-13 -7
q-26 -15 -47 -49l-3 -6q-17 -25 -17 -49q0 -1 0.5 -2t0.5 -3q-1 -4 -1 -13q0 -3 2 -17zM334 765v-9.5t1 -9.5q0 -12 1 -15q0 -3 -0.5 -8t-0.5 -7q0 -4 0.5 -9t0.5 -8q0 -8 -2 -22v-24q1 -2 -1.5 -2.5t-4.5 2.5q-4 16 -11 37q-3 14 -5 17l-8 24q-3 5 -12 29q-11 17 5 28
q1 0 3.5 1t4.5 1.5t4 0.5q8 2 17 -3q8 -6 8 -23z" />
    <glyph glyph-name="Eacute" unicode="&#xc9;" horiz-adv-x="395" 
d="M167 364l3 -2q16 -10 38 -10q24 0 24 10q0 7 -7 11.5t-14 4.5q-33 0 -44 -14zM152 428q2 -29 9 -41q16 4 33 4q18 0 33.5 -8t15.5 -22q0 -20 -33 -20q-29 0 -51 15q-1 0 -2 1q-3 0 -9 -8l-6 -6q-6 -7 -14 -19l-3 -5l-5 -5l-6 -10q-19 -26 -19 -36l-8 -25l-15 -48l-3 -14
q-4 -17 -4 -37q0 -31 4 -42q0 -9 4 -14v-5q0 -4 4 -12t4 -10q9 -31 36.5 -45.5t56.5 -14.5q4 0 9 1t9 1q2 1 24 3.5t37.5 6.5t35.5 16.5t31 31.5l19 29q11 24 11 45q0 2 -2 10l-5 14l-3 5q-13 15 -23 16q-1 0 -3 0.5t-3 0.5h-8q-19 -3 -23 -4q-9 -3 -17 -9q-24 -21 -25 -28
q-2 -3 -5 -3q-2 0 -4 2q-2 0 -2 3l1 2q0 1 1 3l12 14q20 23 62 29q30 0 43 -18t13 -41q0 -26 -7 -38q-3 -3 -4 -8l-9 -15l-10 -15q-2 -2 -10.5 -12.5t-16 -17.5t-11.5 -7l-7 -3q-51 -23 -105 -23q-52 0 -65 5q-3 1 -6.5 2.5t-5.5 2.5l-2 1l-14 4q-29 7 -42 19q-8 4 -11 7
q-14 10 -18 22q-2 0 -4 5l-6 7q-7 9 -14 25q0 1 -2.5 10.5t-5.5 26t-3 33.5q0 39 6 55l9 24q3 3 9 16t10 19q7 12 11 15q11 18 15 21l13 12q0 1 1 1t2 1l5 7q11 11 26 20q1 0 5 3.5t12.5 10t18.5 12.5q0 1 -1 2q-17 21 -23 62l-2 14q-2 14 -2 20q0 55 36.5 93.5t84.5 50.5
l10 2q20 5 35 5q123 -11 123 -90q0 -9 -3.5 -21t-19 -25t-39.5 -13q-10 0 -28 5t-26 17l-9 17q-1 1 -1 3q0 3 5 3q1 0 3 -1.5t3 -1.5q13 -33 54 -33q11 0 35 14l3 3q13 21 13 31q0 26 -21 39q-4 1 -11.5 6t-13.5 5l-16 3q-7 1 -24 1h-12l-34 -10q-4 0 -12 -6l-13 -7
q-26 -15 -47 -49l-3 -6q-17 -25 -17 -49q0 -1 0.5 -2t0.5 -3q-1 -4 -1 -13q0 -3 2 -17zM391 713l-18 -11l-14 -9q-2 -2 -7 -4.5l-7 -3.5q-4 -1 -8 -5t-8 -5l-23 -11l-23 -13q-3 -3 -5 1l1 4q5 4 10 9t11 11.5t10 10.5l14 14q14 14 18 21q4 6 11 14t10 13q13 19 30 10
q9 -5 10 -8q5 -8 5 -17q0 -10 -17 -21z" />
    <glyph glyph-name="Ecircumflex" unicode="&#xca;" horiz-adv-x="395" 
d="M167 364l3 -2q16 -10 38 -10q24 0 24 10q0 7 -7 11.5t-14 4.5q-33 0 -44 -14zM152 428q2 -29 9 -41q16 4 33 4q18 0 33.5 -8t15.5 -22q0 -20 -33 -20q-29 0 -51 15q-1 0 -2 1q-3 0 -9 -8l-6 -6q-6 -7 -14 -19l-3 -5l-5 -5l-6 -10q-19 -26 -19 -36l-8 -25l-15 -48l-3 -14
q-4 -17 -4 -37q0 -31 4 -42q0 -9 4 -14v-5q0 -4 4 -12t4 -10q9 -31 36.5 -45.5t56.5 -14.5q4 0 9 1t9 1q2 1 24 3.5t37.5 6.5t35.5 16.5t31 31.5l19 29q11 24 11 45q0 2 -2 10l-5 14l-3 5q-13 15 -23 16q-1 0 -3 0.5t-3 0.5h-8q-19 -3 -23 -4q-9 -3 -17 -9q-24 -21 -25 -28
q-2 -3 -5 -3q-2 0 -4 2q-2 0 -2 3l1 2q0 1 1 3l12 14q20 23 62 29q30 0 43 -18t13 -41q0 -26 -7 -38q-3 -3 -4 -8l-9 -15l-10 -15q-2 -2 -10.5 -12.5t-16 -17.5t-11.5 -7l-7 -3q-51 -23 -105 -23q-52 0 -65 5q-3 1 -6.5 2.5t-5.5 2.5l-2 1l-14 4q-29 7 -42 19q-8 4 -11 7
q-14 10 -18 22q-2 0 -4 5l-6 7q-7 9 -14 25q0 1 -2.5 10.5t-5.5 26t-3 33.5q0 39 6 55l9 24q3 3 9 16t10 19q7 12 11 15q11 18 15 21l13 12q0 1 1 1t2 1l5 7q11 11 26 20q1 0 5 3.5t12.5 10t18.5 12.5q0 1 -1 2q-17 21 -23 62l-2 14q-2 14 -2 20q0 55 36.5 93.5t84.5 50.5
l10 2q20 5 35 5q123 -11 123 -90q0 -9 -3.5 -21t-19 -25t-39.5 -13q-10 0 -28 5t-26 17l-9 17q-1 1 -1 3q0 3 5 3q1 0 3 -1.5t3 -1.5q13 -33 54 -33q11 0 35 14l3 3q13 21 13 31q0 26 -21 39q-4 1 -11.5 6t-13.5 5l-16 3q-7 1 -24 1h-12l-34 -10q-4 0 -12 -6l-13 -7
q-26 -15 -47 -49l-3 -6q-17 -25 -17 -49q0 -1 0.5 -2t0.5 -3q-1 -4 -1 -13q0 -3 2 -17zM206 649l-8 -4q-4 -1 -6 0q-1 1 -1 3q0 1 2 3q10 8 16 13l13 10l12 9q1 1 2.5 2t2.5 2q9 9 27 23l10 8l2 3q2 1 2.5 2t2.5 2q4 2 9 7.5t8 7.5l6 5l5 6l10 8l11 11q2 2 4.5 6.5t4.5 6.5
l7 7q4 4 6.5 3.5t1.5 -5.5q0 -14 1 -16v-17q1 -2 1 -20q0 -3 -0.5 -7.5t-0.5 -6.5q1 -1 3 -18l4 -23q0 -9 1 -13q0 -1 1.5 -3t1.5 -4l2 -10q0 -4 -3 -5q-4 -2 -5 2l-4 9l-3 6q-4 2 -5 6l-4 9l-4 9q-1 2 -3.5 5.5t-2.5 4.5l-2 7q-1 1 -1 7q-1 2 -1 8q-4 -2 -9 -6
q-1 0 -3.5 -1.5t-3.5 -2.5q-2 -2 -5 -2t-4 -2q-1 -1 -4 -2.5t-4 -3.5t-4 -3t-4 -2q-2 -2 -5 -3.5l-5 -2.5q-1 -1 -5 -2t-5 -3t-4 -3t-5 -2l-8 -4q-2 -1 -5 -2t-5 -3l-7 -3q-2 -1 -5 -3t-5 -3l-8 -4l-6 -3z" />
    <glyph glyph-name="Edieresis" unicode="&#xcb;" horiz-adv-x="395" 
d="M167 364l3 -2q16 -10 38 -10q24 0 24 10q0 7 -7 11.5t-14 4.5q-33 0 -44 -14zM152 428q2 -29 9 -41q16 4 33 4q18 0 33.5 -8t15.5 -22q0 -20 -33 -20q-29 0 -51 15q-1 0 -2 1q-3 0 -9 -8l-6 -6q-6 -7 -14 -19l-3 -5l-5 -5l-6 -10q-19 -26 -19 -36l-8 -25l-15 -48l-3 -14
q-4 -17 -4 -37q0 -31 4 -42q0 -9 4 -14v-5q0 -4 4 -12t4 -10q9 -31 36.5 -45.5t56.5 -14.5q4 0 9 1t9 1q2 1 24 3.5t37.5 6.5t35.5 16.5t31 31.5l19 29q11 24 11 45q0 2 -2 10l-5 14l-3 5q-13 15 -23 16q-1 0 -3 0.5t-3 0.5h-8q-19 -3 -23 -4q-9 -3 -17 -9q-24 -21 -25 -28
q-2 -3 -5 -3q-2 0 -4 2q-2 0 -2 3l1 2q0 1 1 3l12 14q20 23 62 29q30 0 43 -18t13 -41q0 -26 -7 -38q-3 -3 -4 -8l-9 -15l-10 -15q-2 -2 -10.5 -12.5t-16 -17.5t-11.5 -7l-7 -3q-51 -23 -105 -23q-52 0 -65 5q-3 1 -6.5 2.5t-5.5 2.5l-2 1l-14 4q-29 7 -42 19q-8 4 -11 7
q-14 10 -18 22q-2 0 -4 5l-6 7q-7 9 -14 25q0 1 -2.5 10.5t-5.5 26t-3 33.5q0 39 6 55l9 24q3 3 9 16t10 19q7 12 11 15q11 18 15 21l13 12q0 1 1 1t2 1l5 7q11 11 26 20q1 0 5 3.5t12.5 10t18.5 12.5q0 1 -1 2q-17 21 -23 62l-2 14q-2 14 -2 20q0 55 36.5 93.5t84.5 50.5
l10 2q20 5 35 5q123 -11 123 -90q0 -9 -3.5 -21t-19 -25t-39.5 -13q-10 0 -28 5t-26 17l-9 17q-1 1 -1 3q0 3 5 3q1 0 3 -1.5t3 -1.5q13 -33 54 -33q11 0 35 14l3 3q13 21 13 31q0 26 -21 39q-4 1 -11.5 6t-13.5 5l-16 3q-7 1 -24 1h-12l-34 -10q-4 0 -12 -6l-13 -7
q-26 -15 -47 -49l-3 -6q-17 -25 -17 -49q0 -1 0.5 -2t0.5 -3q-1 -4 -1 -13q0 -3 2 -17zM264 735q10 0 16 -6q12 -5 12 -18q0 -14 -14 -28q-8 -6 -12 -6q-10 -4 -23 1q-26 9 -11 37q7 14 32 20zM341 663q-2 0 -18 7q-10 4 -10 17q0 14 14 28q7 6 12 6q10 4 23 -1
q26 -9 11 -37q-7 -14 -32 -20z" />
    <glyph glyph-name="Igrave" unicode="&#xcc;" horiz-adv-x="365" 
d="M342 597l1 1h1q2 0 3 1q2 1 8 3t11.5 4.5t9.5 4.5q25 11 30 33q2 6 -2 10q2 6 -8 9q-14 -3 -22 -14q-8 -15 -18 -27l-6 -9zM329 557l-15 -55q0 -4 -2 -17t-2 -20q-1 -14 -7 -49l-2.5 -15t-1.5 -13q1 -7 -0.5 -19t-1.5 -16q-1 -1 -1 -6q0 -1 0.5 -7t-0.5 -6q-2 -6 -3 -17
t-2 -16q0 -4 -1 -11.5t-1.5 -13.5t-0.5 -11l-2 -8q-2 -10 -2 -13q-2 -11 0 -22l-3 -10q-4 -9 -2 -14l-4 -20q-6 -24 -8 -30q-11 -24 -11 -25q-9 -24 -15 -34q-5 -7 -9 -16q-8 -14 -11 -17l-6 -7q-2 -3 -16 -17l-2 -2q-9 -6 -10 -8q0 1 -3 -2q-9 -11 -19 -15q-3 -2 -8 -4.5
l-7 -3.5l-6 -2t-5.5 -2t-3.5 -2q-9 -3 -16 -3h-2q-5 -2 -10.5 -2.5t-12 -0.5h-10.5q-27 -2 -44 6l-9 6q-7 5 -21 19q-4 8 -10 24q-6 22 -3 36q0 14 6 26q7 19 30 22q17 0 22 -3q5 -1 6 -6q5 -3 0 -5h-6q-3 7 -11 5q-10 0 -17 -1q-16 -7 -19 -19q-6 -28 -1 -46q3 -14 4 -17
q5 -10 13 -19q11 -11 23 -15h1l2 -1q18 -3 34 2q15 5 34 24q2 3 8 8.5t8 9.5q7 9 10 10l1 1q2 0 3 2l13 20q3 6 10 19q10 18 11 20q4 7 10 23l12 40q-2 2 0 3q3 7 5.5 20.5t4.5 18.5q0 8 5 16l4 24l9 44v9q1 9 3 13l8 39q2 14 2 15q1 22 8 47l14 65q1 4 9 28.5t9 31.5l7 16
q6 17 6 19h-17q-2 1 -7.5 1h-6.5q-13 2 -20 1l-18 4q-7 1 -19 2.5t-19 3.5l-44 10h-16q-1 1 -5 1l-9 -1l-9 -2q-14 0 -23 -4l-12 -3q0 -1 -3 -1l-12 -5l-6 -4v1l-9 -8l-7 -4v1q-10 -16 -18 -24v1q-2 -3 -9 -19l-1 -4q-2 -18 7 -30q0 -3 4 -7l4 -6q3 -3 6 -4q6 -6 9 -7
q3 0 4 -1q15 -8 40 -6q17 2 32 7l10 7l4 1q1 0 12.5 7.5t16.5 14.5q0 2 3 3l-1 -1q3 3 6 0q2 -7 -2 -8q-4 -3 -11 -9.5t-10 -8.5l-17 -11q-1 0 -6 -2t-8 -2l-12 -4q-18 -5 -44 -3q-1 1 -4 1l-9 4q-2 0 -8 2q-13 10 -14 11l-7 5q-2 2 -2 7l-5 6q-5 13 -5 23q-3 15 7 37l14 16
l18 17q1 1 19 11q2 2 9 5t10 4h6.5t7.5 2q2 0 7.5 1t9.5 1h12q10 2 13 2q17 0 34 -4l39 -8q3 -1 10 -2t11 -3l19 -4h19h6.5t7.5 -2q4 1 8 0.5t7.5 -0.5t4.5 1q5 -2 7 6l4 8q0 2 6 8q0 1 3 4t3 5q3 5 8.5 10t7.5 8q14 14 23 17q23 10 25 10q7 2 18 0q2 -1 5.5 -2t6 -2.5
t3.5 -4.5v-4q2 -6 1 -7q2 -6 -2 -10l-5 -7l-4 -6q-8 -10 -19 -17q-8 -8 -14 -9l-10 -4q-4 -4 -6 -4l-8 -3q-2 -2 -7 -2q-3 -3 -6 -3l-2 -3q-1 -1 -2 -1q-1 -1 -4 -11.5t-3 -13.5zM377 808q1 -3 1 -9v-10q0 -12 1 -15q0 -2 -0.5 -7t-0.5 -8q0 -4 0.5 -9t0.5 -8q0 -8 -2 -22
v-24q1 -2 -1.5 -2.5t-4.5 2.5q-4 16 -11 37q-3 14 -5 17l-8 24q-3 5 -12 29q-11 17 5 28q1 0 3.5 1t4.5 1.5t4 0.5q8 2 17 -3q8 -6 8 -23z" />
    <glyph glyph-name="Iacute" unicode="&#xcd;" horiz-adv-x="365" 
d="M342 597l1 1h1q2 0 3 1q2 1 8 3t11.5 4.5t9.5 4.5q25 11 30 33q2 6 -2 10q2 6 -8 9q-14 -3 -22 -14q-8 -15 -18 -27l-6 -9zM329 557l-15 -55q0 -4 -2 -17t-2 -20q-1 -14 -7 -49l-2.5 -15t-1.5 -13q1 -7 -0.5 -19t-1.5 -16q-1 -1 -1 -6q0 -1 0.5 -7t-0.5 -6q-2 -6 -3 -17
t-2 -16q0 -4 -1 -11.5t-1.5 -13.5t-0.5 -11l-2 -8q-2 -10 -2 -13q-2 -11 0 -22l-3 -10q-4 -9 -2 -14l-4 -20q-6 -24 -8 -30q-11 -24 -11 -25q-9 -24 -15 -34q-5 -7 -9 -16q-8 -14 -11 -17l-6 -7q-2 -3 -16 -17l-2 -2q-9 -6 -10 -8q0 1 -3 -2q-9 -11 -19 -15q-3 -2 -8 -4.5
l-7 -3.5l-6 -2t-5.5 -2t-3.5 -2q-9 -3 -16 -3h-2q-5 -2 -10.5 -2.5t-12 -0.5h-10.5q-27 -2 -44 6l-9 6q-7 5 -21 19q-4 8 -10 24q-6 22 -3 36q0 14 6 26q7 19 30 22q17 0 22 -3q5 -1 6 -6q5 -3 0 -5h-6q-3 7 -11 5q-10 0 -17 -1q-16 -7 -19 -19q-6 -28 -1 -46q3 -14 4 -17
q5 -10 13 -19q11 -11 23 -15h1l2 -1q18 -3 34 2q15 5 34 24q2 3 8 8.5t8 9.5q7 9 10 10l1 1q2 0 3 2l13 20q3 6 10 19q10 18 11 20q4 7 10 23l12 40q-2 2 0 3q3 7 5.5 20.5t4.5 18.5q0 8 5 16l4 24l9 44v9q1 9 3 13l8 39q2 14 2 15q1 22 8 47l14 65q1 4 9 28.5t9 31.5l7 16
q6 17 6 19h-17q-2 1 -7.5 1h-6.5q-13 2 -20 1l-18 4q-7 1 -19 2.5t-19 3.5l-44 10h-16q-1 1 -5 1l-9 -1l-9 -2q-14 0 -23 -4l-12 -3q0 -1 -3 -1l-12 -5l-6 -4v1l-9 -8l-7 -4v1q-10 -16 -18 -24v1q-2 -3 -9 -19l-1 -4q-2 -18 7 -30q0 -3 4 -7l4 -6q3 -3 6 -4q6 -6 9 -7
q3 0 4 -1q15 -8 40 -6q17 2 32 7l10 7l4 1q1 0 12.5 7.5t16.5 14.5q0 2 3 3l-1 -1q3 3 6 0q2 -7 -2 -8q-4 -3 -11 -9.5t-10 -8.5l-17 -11q-1 0 -6 -2t-8 -2l-12 -4q-18 -5 -44 -3q-1 1 -4 1l-9 4q-2 0 -8 2q-13 10 -14 11l-7 5q-2 2 -2 7l-5 6q-5 13 -5 23q-3 15 7 37l14 16
l18 17q1 1 19 11q2 2 9 5t10 4h6.5t7.5 2q2 0 7.5 1t9.5 1h12q10 2 13 2q17 0 34 -4l39 -8q3 -1 10 -2t11 -3l19 -4h19h6.5t7.5 -2q4 1 8 0.5t7.5 -0.5t4.5 1q5 -2 7 6l4 8q0 2 6 8q0 1 3 4t3 5q3 5 8.5 10t7.5 8q14 14 23 17q23 10 25 10q7 2 18 0q2 -1 5.5 -2t6 -2.5
t3.5 -4.5v-4q2 -6 1 -7q2 -6 -2 -10l-5 -7l-4 -6q-8 -10 -19 -17q-8 -8 -14 -9l-10 -4q-4 -4 -6 -4l-8 -3q-2 -2 -7 -2q-3 -3 -6 -3l-2 -3q-1 -1 -2 -1q-1 -1 -4 -11.5t-3 -13.5zM454 762l-18 -11l-14 -9q-2 -2 -7 -4t-7 -4q-4 -2 -8 -5t-8 -5l-23 -11l-23 -13q-3 -3 -5 1
l1 4l31 31l14 14q14 14 18 21q4 6 11 14t10 13q12 19 30 10q9 -6 10 -8q5 -8 5 -17q0 -10 -17 -21z" />
    </font>
</defs>
</svg>
